<svg width="375" height="375" viewBox="0 0 375 375" fill="none" xmlns="http://www.w3.org/2000/svg">
<mask id="mask0_2_11" style="mask-type:alpha" maskUnits="userSpaceOnUse" x="50" y="68" width="275" height="238">
<path d="M118.645 68.5L255.645 68.5L324.145 187.145L255.645 305.791L118.645 305.791L50.1455 187.145L118.645 68.5Z" fill="#D9D9D9"/>
</mask>
<g mask="url(#mask0_2_11)">
<rect x="44.1455" y="55.1455" width="290" height="271" fill="#222323"/>
<rect x="63.1455" y="252.145" width="253.845" height="14" fill="#365DCE"/>
<path d="M248.145 263.232C248.257 262.343 248.946 260.564 250.813 260.564C252.681 260.564 253.37 262.343 253.481 263.232M250.146 256.563V255.229H256.149V259.23H255.148L253.814 260.564V259.23H253.481M271.155 261.898L268.821 261.898L269.321 260.898V256.896C269.321 254.562 274.823 254.562 274.823 256.896V260.564L275.49 261.898L273.156 261.898M271.155 261.898C271.155 262.343 271.355 263.232 272.155 263.232C272.956 263.232 273.156 262.343 273.156 261.898M271.155 261.898L273.156 261.898M139.181 257.583C139.493 256.02 144.498 255.395 144.811 259.145M144.811 260.708C144.498 262.27 139.493 262.895 139.181 259.145M146.375 258.52L145.214 259.77L143.872 258.52M137.93 259.77L139.09 258.52L140.432 259.77M101.335 257.27V261.02M101.335 260.708C101.335 259.77 102.273 260.083 103.212 260.083C104.15 260.083 104.775 260.083 104.775 259.145M110.796 257.583C110.796 257.609 110.809 257.686 110.822 258.068C110.853 258.951 110.783 259.588 110.764 259.762C110.701 260.327 110.718 261.053 110.757 261.255C110.798 261.466 110.835 260.684 110.946 260.267C111.107 259.658 111.083 259.042 111.148 258.613C111.168 258.481 111.278 258.378 111.453 258.267C111.726 258.096 112.072 258.117 112.314 258.084C112.4 258.073 112.503 258.052 112.659 258.097C113.105 258.226 113.116 258.659 113.206 259.265M113.206 259.265C113.206 259.267 113.207 259.27 113.207 259.273C113.304 259.92 113.259 260.108 113.292 260.387C113.348 260.872 113.284 261.078 113.264 261.167M113.206 259.265C113.198 259.322 113.196 259.381 113.201 259.442C113.273 260.201 113.271 260.933 113.264 261.167M113.206 259.265C113.258 258.904 113.554 258.609 113.689 258.424C113.812 258.255 114.002 258.156 114.223 258.091C114.405 258.037 114.872 258.013 115.175 257.993C115.337 257.983 115.435 258.349 115.494 258.598C115.562 258.878 115.553 259.274 115.573 259.684C115.592 259.809 115.605 260.261 115.612 260.918C115.618 261.163 115.631 261.228 115.644 261.333M113.264 261.167C113.261 261.182 113.259 261.193 113.259 261.203C113.259 261.272 113.262 261.253 113.264 261.167ZM117.286 258.403C117.325 258.364 117.533 258.287 117.748 258.137C117.928 258.012 118.146 257.948 119.185 257.947C119.411 257.947 119.462 257.986 119.495 258.019C119.63 258.152 119.723 258.441 119.756 258.644C119.789 258.845 119.814 259.105 119.834 259.509C119.867 260.144 119.893 261.02 119.932 261.098C119.945 261.137 119.945 261.176 119.945 261.216M119.75 260.044C119.71 259.992 119.659 259.81 119.516 259.699C119.216 259.467 118.538 259.679 118.369 259.725C118.141 259.786 117.952 259.822 117.795 259.959C117.722 260.023 117.639 260.07 117.567 260.128C117.428 260.241 117.443 260.743 117.527 261.046C117.577 261.226 117.872 261.242 118.171 261.287C118.726 261.372 118.966 261.138 119.201 260.982C119.254 260.943 119.305 260.904 119.358 260.858C119.41 260.813 119.462 260.761 119.554 260.63M121.822 257.935V258.437C121.822 258.915 121.822 259.856 121.828 260.36C121.835 260.864 121.847 260.903 121.854 260.955C121.861 261.007 121.861 261.071 121.861 261.138M121.665 256.333C121.665 256.32 121.665 256.307 121.685 256.294C121.704 256.281 121.743 256.268 121.782 256.261C121.821 256.255 121.86 256.255 121.9 256.255M123.698 257.817C123.711 257.817 123.724 257.817 123.737 257.837C123.75 257.856 123.763 257.895 123.77 258.385C123.777 258.876 123.777 259.817 123.77 260.321C123.764 260.825 123.751 260.863 123.744 260.928C123.737 260.994 123.737 261.084 123.737 261.255M123.737 258.56C123.815 258.469 123.945 258.313 124.173 258.143C124.396 257.976 124.648 258.013 124.968 257.948C125.22 257.897 125.56 257.856 125.77 257.941C125.963 258.018 126.018 258.246 126.083 258.403C126.164 258.597 126.265 258.832 126.285 259.131C126.295 259.275 126.318 259.934 126.324 260.852C126.331 261.176 126.344 261.215 126.35 261.254C126.357 261.294 126.357 261.332 126.357 261.372M156.383 256.333V261.645M156.383 261.645L158.26 259.458M156.383 261.645L154.507 259.458M162.013 257.895L163.89 256.645V261.958M168.269 261.645V256.333M168.269 256.333L170.145 258.833M168.269 256.333L166.392 258.833M252.814 259.23C252.814 260.336 251.918 261.231 250.813 261.231C249.708 261.231 248.812 260.336 248.812 259.23C248.812 258.125 249.708 257.23 250.813 257.23C251.918 257.23 252.814 258.125 252.814 259.23ZM102.899 256.02C102.899 257.056 102.059 257.895 101.022 257.895C99.9857 257.895 99.1455 257.056 99.1455 256.02C99.1455 254.985 99.9857 254.145 101.022 254.145C102.059 254.145 102.899 254.985 102.899 256.02ZM102.899 262.27C102.899 263.306 102.059 264.145 101.022 264.145C99.9857 264.145 99.1455 263.306 99.1455 262.27C99.1455 261.235 99.9857 260.395 101.022 260.395C102.059 260.395 102.899 261.235 102.899 262.27ZM106.652 257.895C106.652 258.931 105.812 259.77 104.775 259.77C103.739 259.77 102.899 258.931 102.899 257.895C102.899 256.86 103.739 256.02 104.775 256.02C105.812 256.02 106.652 256.86 106.652 257.895ZM152.943 259.145C152.943 260.871 151.963 262.27 150.753 262.27C149.544 262.27 148.564 260.871 148.564 259.145C148.564 257.42 149.544 256.02 150.753 256.02C151.963 256.02 152.943 257.42 152.943 259.145Z" stroke="#D9D9D9"/>
<rect x="64.1455" y="266.145" width="247" height="40" fill="#363636"/>
<circle cx="157.145" cy="286.145" r="10" fill="#FE454C"/>
<circle cx="187.145" cy="286.145" r="10" fill="#FCC601"/>
<circle cx="217.145" cy="286.145" r="10" fill="#01D649"/>
<rect x="65.0814" y="82.1455" width="250" height="30" fill="#363636"/>
<path d="M123.812 97.0788V102.945H116.612V94.1455H121.145M123.812 97.0788L121.145 94.1455M123.812 97.0788H121.145V94.1455M116.612 97.0788H113.145V106.412H120.612V103.212" stroke="#848484" stroke-width="1.33333" stroke-linejoin="bevel"/>
<path d="M132.345 106.035L137.145 101.235M143.923 98.4121C143.923 100.769 142.012 102.679 139.656 102.679C137.3 102.679 135.389 100.769 135.389 98.4121C135.389 96.0557 137.3 94.1455 139.656 94.1455C142.012 94.1455 143.923 96.0557 143.923 98.4121Z" stroke="#848484" stroke-width="1.33333"/>
<path d="M155.279 98.4121C156.457 98.4121 157.412 97.457 157.412 96.2788C157.412 95.1006 156.457 94.1455 155.279 94.1455C154.101 94.1455 153.145 95.1006 153.145 96.2788C153.145 97.457 154.101 98.4121 155.279 98.4121ZM155.279 98.4121V102.679M155.279 102.679C154.101 102.679 153.145 103.634 153.145 104.812C153.145 105.99 154.101 106.945 155.279 106.945C156.457 106.945 157.412 105.99 157.412 104.812C157.412 103.634 156.457 102.679 155.279 102.679ZM160.612 100.012C160.612 101.345 159.279 101.612 158.212 101.612C157.145 101.612 155.279 101.879 155.279 103.212M162.745 98.4121C162.745 99.5904 161.79 100.545 160.612 100.545C159.434 100.545 158.479 99.5904 158.479 98.4121C158.479 97.2339 159.434 96.2788 160.612 96.2788C161.79 96.2788 162.745 97.2339 162.745 98.4121Z" stroke="#848484" stroke-width="1.33333"/>
<path d="M171.279 101.079C171.634 101.523 172.985 102.679 174.479 102.679C175.972 102.679 177.145 101.523 177.412 101.079M175.545 99.7455V94.1455L183.545 99.4788L178.479 102.679M171.435 106.835L173.035 105.235M177.412 106.835L175.812 105.235M172.345 104.012H170.745M178.212 104.012H176.612M174.479 100.545C175.112 100.545 176.612 101.559 176.612 103.479C176.612 105.879 175.012 106.412 174.479 106.412C173.945 106.412 172.345 105.612 172.345 103.479C172.345 101.345 173.945 100.545 174.479 100.545Z" stroke="#848484" stroke-width="1.33333" stroke-linejoin="bevel"/>
<path d="M196.945 101.079V96.2788H192.145V101.079M196.945 101.079H202.012V106.145H196.945M196.945 101.079V106.145M196.945 101.079H192.145M196.945 106.145H192.145V101.079M199.612 94.1455V98.6788H204.145V94.1455H199.612Z" stroke="#848484" stroke-width="1.33333" stroke-linejoin="bevel"/>
<path d="M236.545 102.412C238.313 102.412 239.479 101.246 239.479 99.4788C239.479 97.7115 238.313 96.5455 236.545 96.5455C234.778 96.5455 233.612 97.7115 233.612 99.4788C233.612 101.246 234.778 102.412 236.545 102.412ZM236.545 102.412C234.412 102.412 233.612 103.745 232.812 105.079M236.545 102.412C238.679 102.412 239.479 103.745 240.279 105.079M242.945 100.545C242.945 104.08 240.08 106.945 236.545 106.945C233.011 106.945 230.145 104.08 230.145 100.545C230.145 97.0109 233.011 94.1455 236.545 94.1455C240.08 94.1455 242.945 97.0109 242.945 100.545Z" stroke="#848484" stroke-width="1.33333" stroke-linejoin="bevel"/>
<circle cx="257.012" cy="100.279" r="1.46667" stroke="#848484" stroke-width="1.33333"/>
<path d="M255.945 94.1455L255.679 96.8121L253.545 95.4788L252.212 96.8121L253.545 98.9455L251.145 99.2121V101.345L253.545 101.989L252.212 104.012L253.545 105.345L255.679 103.745L255.945 106.412H258.079L258.345 103.745L260.479 105.345L262.079 104.012L260.479 101.989L262.879 101.345V99.2121L260.479 98.9455L262.079 96.8121L260.479 95.4788L258.345 96.8121L258.079 94.1455H255.945Z" stroke="#848484" stroke-width="1.33333" stroke-linejoin="bevel"/>
<rect x="84.1455" y="68.1455" width="193" height="20" fill="#3C3E42"/>
<circle cx="128.145" cy="78.1455" r="5" fill="#FE454C"/>
<circle cx="143.145" cy="78.1455" r="5" fill="#FCC601"/>
<circle cx="158.145" cy="78.1455" r="5" fill="#01D649"/>
<path d="M91.6455 139.645C97.2455 136.045 103.645 133.812 106.145 133.145C118.145 121.645 133.145 124.645 142.645 124.645C152.145 124.645 169.645 123.645 177.145 122.645C183.145 121.845 185.312 125.979 185.645 128.145C204.145 119.645 242.645 123.145 263.145 134.645C285.992 147.462 301.645 165.145 303.645 182.645C305.283 196.974 299.364 220.145 293.473 230.145C286.186 244.374 257.947 247.662 252.145 248.145C246.145 248.645 230.645 239.645 218.145 239.645C211.645 239.645 209.645 243.145 207.145 243.145C205.145 243.145 201.312 236.145 199.645 232.645C196.845 238.645 188.812 241.145 184.645 241.645C177.645 239.645 172.795 238.145 172.645 239.645C172.145 244.645 168.145 249.645 157.645 249.645C149.245 249.645 143.479 242.979 141.645 239.645C140.145 242.645 136.145 248.845 132.145 249.645C128.145 250.445 120.479 247.645 117.145 246.145C110.479 247.979 97.1455 246.645 94.6455 243.145C91.6162 238.904 93.1455 236.645 96.1455 223.645L106.145 213.145V208.645L115.145 202.645C115.979 199.979 117.145 194.545 115.145 194.145C113.145 193.745 106.312 198.312 103.145 200.645L100.645 189.145C95.6455 189.812 86.4455 190.245 89.6455 186.645C92.8455 183.045 97.3121 173.145 99.1455 168.645C84.1455 174.145 77.6455 168.145 75.1455 157.645C72.6455 147.145 84.6455 144.145 91.6455 139.645Z" fill="#968481"/>
<path d="M294.145 228.645C293.947 229.159 293.722 229.658 293.473 230.145M293.473 230.145C286.186 244.374 257.947 247.662 252.145 248.145C246.145 248.645 230.645 239.645 218.145 239.645C211.645 239.645 209.645 243.145 207.145 243.145C205.145 243.145 201.312 236.145 199.645 232.645C196.845 238.645 188.812 241.145 184.645 241.645C177.645 239.645 172.795 238.145 172.645 239.645C172.145 244.645 168.145 249.645 157.645 249.645C149.245 249.645 143.479 242.979 141.645 239.645C140.145 242.645 136.145 248.845 132.145 249.645C128.145 250.445 120.479 247.645 117.145 246.145C110.479 247.979 97.1455 246.645 94.6455 243.145C91.6162 238.904 93.1455 236.645 96.1455 223.645L106.145 213.145V208.645L115.145 202.645C115.979 199.979 117.145 194.545 115.145 194.145C113.145 193.745 106.312 198.312 103.145 200.645L100.645 189.145C95.6455 189.812 86.4455 190.245 89.6455 186.645C92.8455 183.045 97.3121 173.145 99.1455 168.645C84.1455 174.145 77.6455 168.145 75.1455 157.645C72.6455 147.145 84.6455 144.145 91.6455 139.645C97.2455 136.045 103.645 133.812 106.145 133.145C118.145 121.645 133.145 124.645 142.645 124.645C152.145 124.645 169.645 123.645 177.145 122.645C183.145 121.845 185.312 125.979 185.645 128.145C204.145 119.645 242.645 123.145 263.145 134.645C285.992 147.462 301.645 165.145 303.645 182.645C305.283 196.974 299.364 220.145 293.473 230.145Z" stroke="#D9D9D9" stroke-width="2"/>
<path d="M103.645 156.645C104.479 155.645 106.245 152.545 106.645 148.145C105.479 148.479 103.045 149.745 102.645 152.145C102.245 154.545 103.145 156.145 103.645 156.645Z" fill="#D9D9D9"/>
<path d="M101.645 188.145C106.479 184.312 107.745 185.945 110.145 167.145C110.145 160.645 119.045 146.545 136.645 148.145C139.979 146.479 148.031 143.645 153.645 143.645C162.645 143.645 165.645 151.145 168.145 154.645L170.645 163.645L175.645 167.145C175.645 171.645 174.145 182.145 168.145 188.145L172.645 190.145C173.645 193.812 174.645 202.745 170.645 209.145C164.145 209.645 149.445 213.645 142.645 225.645C137.979 220.145 127.445 209.745 122.645 212.145L115.145 218.645L113.645 212.145L105.645 209.145L115.145 201.645V194.645L103.645 200.645L101.645 188.145Z" fill="#D9D9D9"/>
<path d="M163.645 137.645L167.645 146.145L172.145 143.145C171.812 140.145 169.645 134.845 163.645 137.645Z" fill="#D9D9D9"/>
<path d="M115.145 162.145C120.645 149.145 140.145 149.645 141.145 150.645C153.145 143.645 161.263 143.645 164.645 155.145C169.344 171.12 164.145 162.745 153.145 167.145C148.145 169.145 135.145 182.646 124.645 184.146C114.145 185.646 109.645 175.145 115.145 162.145Z" fill="#4D3F3D"/>
<path d="M79.6455 146.645C84.0455 141.845 99.1455 135.645 106.145 133.145L110.145 137.645C109.979 141.145 108.545 148.145 104.145 148.145C98.6455 148.145 95.1455 152.645 93.6455 155.145C92.4455 157.145 96.1455 158.312 98.1455 158.645C99.8121 156.479 103.345 153.445 104.145 158.645C105.145 165.145 97.6455 169.645 88.1455 170.645C80.5455 171.445 76.3121 162.979 75.1455 158.645C74.8121 156.645 75.2455 151.445 79.6455 146.645Z" fill="#4D3F3D"/>
<path d="M163.145 137.645C161.945 134.045 153.645 127.812 149.645 125.145C154.645 125.145 167.145 124.645 177.145 122.645C189.645 120.145 184.645 134.645 181.645 142.645C179.245 149.045 171.645 151.979 168.145 152.645L166.645 145.145L173.145 142.645L175.145 137.645L173.145 134.645L163.145 137.645Z" fill="#4D3F3D"/>
<path d="M115.145 237.645C113.645 229.645 114.812 221.145 116.145 218.145C116.645 216.979 118.745 214.145 123.145 212.145C128.645 209.645 142.645 227.145 142.645 228.145C142.645 229.145 145.145 219.645 156.145 213.645C167.145 207.645 170.145 218.145 173.145 233.145C176.145 248.145 164.645 249.145 156.145 249.645C149.345 250.045 144.312 244.479 142.645 241.645C142.145 241.145 138.645 245.645 135.645 247.645C127.907 252.804 116.894 246.97 115.145 237.645Z" fill="#4D3F3D"/>
<path d="M298.645 170.145C285.045 164.545 270.645 175.145 264.645 188.645C291.645 185.145 302.145 207.645 302.145 207.645C302.145 207.645 308.645 181.645 298.645 170.145Z" fill="#4D3F3D"/>
<path d="M233.145 243.645C243.545 220.845 235.812 198.812 230.645 190.645C231.121 191.479 228.39 186.679 213.645 188.645C198.645 190.645 190.837 214.812 188.645 228.145L202.145 225.145C197.345 230.345 203.479 240.312 207.145 244.645C217.545 235.845 229.145 239.979 233.145 243.645Z" fill="#4D3F3D"/>
<path d="M246.145 193.645C246.201 193.698 246.257 193.75 246.313 193.804C247.659 194.949 252.203 196.321 261.145 193.645C272.845 190.145 293.645 229.645 288.645 235.145C284.645 239.545 268.645 244.312 261.145 246.145C268.296 222.312 254.342 201.437 246.313 193.804C246.25 193.75 246.194 193.697 246.145 193.645Z" fill="#4D3F3D"/>
<path d="M124.145 163.145C123.98 163.145 124.555 163.475 127.535 164.429C133.692 166.4 138.473 167.143 139.142 167.683C139.687 168.123 136.663 169.553 133.048 171.547C129.185 173.87 126.898 175.393 126.399 175.85C126.148 176.06 125.9 176.225 125.395 176.645M155.895 148.145V163.645M152.895 239.145C152.895 238.98 152.4 239.72 151.815 241.795C151.026 244.596 152.643 246.89 153.183 247.805C153.475 248.225 153.805 248.555 154.264 248.849C154.723 249.143 155.3 249.39 155.895 249.645M161.145 239.395C160.65 240.055 160.56 241.633 160.975 243.879C161.555 245.63 162.39 247.055 163.264 248.138C163.643 248.56 163.89 248.725 164.145 248.895M123.645 238.395C123.975 239.22 124.305 240.045 124.517 241.584C124.728 243.123 124.81 245.35 124.812 246.622C124.813 247.893 124.73 248.14 124.645 248.645M132.645 237.145C133.305 238.135 133.975 239.553 134.558 241.34C134.81 242.22 134.975 243.045 135.06 243.883C135.145 244.72 135.145 245.545 134.895 246.645" stroke="#D9D9D9" stroke-width="4" stroke-linecap="round"/>
<path d="M121.145 193.645L121.395 193.895M126.395 194.645L126.645 194.395M155.645 157.145H156.145" stroke="#848484" stroke-width="4" stroke-linecap="round"/>
<path d="M224.395 165.145C224.23 165.145 221.67 166.548 217.137 169.828C214.879 171.461 213.51 174.015 212.414 175.824C210.74 178.87 209.815 181.96 209.439 185.37C209.393 186.965 209.64 188.285 209.895 189.645M172.52 196.52L174.395 196.02M172.52 201.77C172.727 201.729 172.933 201.688 173.204 201.646C173.475 201.604 173.805 201.563 174.145 201.52" stroke="#4D3F3D" stroke-width="4" stroke-linecap="round"/>
<path d="M159.517 172.394C159.325 172.447 159.154 172.543 159.003 172.656M159.517 172.394C160.224 172.083 161.028 171.938 161.899 172.273C162.23 172.4 162.374 172.683 162.184 172.942C162.048 173.126 161.898 173.313 161.735 173.487M159.517 172.394C159.587 172.375 159.66 172.361 159.735 172.354C160.155 172.315 160.65 172.48 161.145 172.645M159.517 172.394C159.34 172.473 159.168 172.561 159.003 172.656M159.003 172.656C158.536 172.923 158.122 173.234 157.773 173.475C157.542 173.635 157.645 174.055 157.852 174.39C158.058 174.725 158.47 175.055 158.848 175.225C160.104 175.791 161.225 174.648 161.725 174.149C161.938 173.937 161.896 173.656 161.735 173.487M159.003 172.656C158.905 172.729 158.815 172.81 158.733 172.892C158.48 173.143 158.315 173.39 158.478 173.642L158.48 173.644M161.735 173.487C161.443 173.8 161.113 174.073 160.768 174.217M161.735 173.487L161.73 173.482C161.702 173.453 161.672 173.425 161.641 173.4M158.48 173.644C158.928 174.335 159.894 174.395 160.433 174.313C160.546 174.296 160.657 174.263 160.768 174.217M158.48 173.644C159.497 173.141 160.906 172.79 161.641 173.4M158.48 173.644C158.264 173.75 158.067 173.863 157.897 173.975C157.688 174.113 158.14 174.555 158.474 174.725C159.22 174.895 159.975 174.73 160.64 174.315C160.683 174.284 160.725 174.251 160.768 174.217M160.768 174.217C161.058 173.983 161.346 173.695 161.641 173.4M161.641 173.4L161.645 173.395M142.395 182.395C142.065 183.385 142.308 184.555 143.18 185.72C143.941 186.736 145.058 186.978 145.972 187.103C148.555 187.456 152.21 184.74 154.099 182.984C154.682 182.442 155.06 181.898 155.269 181.647C155.427 181.457 155.145 182.475 155.393 183.14C155.538 183.531 156.135 183.805 156.555 183.975C157.305 184.145 158.718 183.733 160.508 182.984C161.225 182.648 161.555 182.4 162.395 181.895M105.645 133.145C101.49 133.308 96.6705 135.63 94.5667 137.142C92.9149 138.328 90.9055 139.805 87.7817 141.432C85.7129 142.509 83.1505 143.89 81.2792 145.057C78.5307 146.77 77.4005 148.555 76.0255 150.844C74.5309 153.332 74.8955 157.46 75.3092 160.01C75.6382 162.038 77.633 164.548 80.1267 166.962C82.2513 169.018 84.5555 169.31 86.298 169.643C88.8655 169.975 91.633 170.063 93.8792 169.773C94.888 169.565 95.6305 169.235 96.3955 168.895M106.395 133.145C106.893 133.478 108.22 134.47 109.143 135.807C110.498 137.769 109.315 141.625 107.32 145.757C106.225 148.025 103.985 148.31 102.692 148.437C101.632 148.54 100.65 148.81 99.4417 149.393C98.3638 149.912 97.0705 150.805 95.8167 152.098C94.0363 153.933 93.7305 155.39 93.7692 156.599C93.7903 157.255 95.138 157.643 96.3867 157.977C97.9273 158.388 99.6405 157.315 100.683 156.855C101.311 156.578 101.893 156.395 102.392 156.395C102.89 156.395 103.393 156.56 103.809 156.934C104.702 157.735 104.395 159.555 104.064 161.055C103.5 163.61 101.075 165.965 99.1517 167.184C98.3205 167.64 97.648 167.895 97.108 167.937C96.8155 167.978 96.4856 168.06 96.1456 168.145M106.145 132.145C109.305 129.9 111.305 128.73 112.848 127.982C114.237 127.308 120.26 125.825 124.76 124.855C127.625 124.238 129.47 124.145 131.428 123.938C134.379 123.625 138.03 123.645 140.392 123.853C141.397 123.941 142.885 124.145 144.349 124.394C145.393 124.645 146.143 124.728 146.642 124.894C146.893 124.978 147.14 125.06 147.895 125.145M148.895 124.645C152.545 124.148 157.71 123.645 160.47 123.894L160.506 123.897C161.928 124.026 163.124 124.134 171.487 122.693C174.536 122.168 175.89 121.98 179.423 121.937C181.237 121.914 182.555 122.475 183.6 123.392C184.596 124.265 184.725 126.055 184.937 127.555C185.099 128.711 185.145 130.22 184.98 132.337C184.742 135.391 183.733 138.383 182.654 141.042C179.238 146.553 176.735 148.89 175.234 149.85C174.898 150.06 174.65 150.225 173.895 150.645M148.645 125.145C150.22 125.725 152.39 126.725 154.51 128.429C157.07 130.487 158.14 131.225 159.515 132.764C161.139 134.581 162.975 137.555 164.307 139.928C165.243 141.597 165.975 142.89 166.435 143.933C167.001 145.215 167.475 146.555 167.728 147.765C168.145 149.393 168.228 150.143 168.353 150.765C168.395 151.14 168.395 151.635 168.395 152.145M165.645 136.895C166.64 136.648 168.8 135.815 171.344 135.023C172.502 134.662 173.64 135.143 174.473 135.642C175.08 136.006 175.228 136.643 175.353 137.183C175.494 137.791 175.23 138.723 174.857 139.763C174.115 141.826 171.65 142.975 169.862 143.85C169.318 144.06 168.74 144.225 168.319 144.352C167.898 144.478 167.65 144.56 167.395 144.395M169.395 163.145C170.305 163.225 173.46 165.05 175.1 166.267C175.741 166.742 175.728 168.633 175.729 171.292C175.731 174.299 174.238 178.288 172.203 182.738C170.379 186.727 167.48 188.915 165.129 190.689L165.039 190.757C159.403 194.225 157.318 195.06 156.278 195.31C155.815 195.395 155.485 195.395 155.145 195.395M133.395 194.895C136.72 195.81 139.055 196.145 140.39 196.353C141.634 196.546 143.96 196.645 146.013 196.438C148.881 196.148 151.54 196.145 153.723 195.897C154.635 195.73 155.393 195.563 155.892 195.397L156.645 195.145M168.145 152.145C168.145 152.063 168.145 151.98 168.599 153.217C169.053 154.453 169.96 157.01 170.51 158.493C171.06 159.975 171.225 160.305 171.395 160.895M170.395 209.145C170.23 208.98 170.065 208.815 167.712 209.225C165.358 209.635 160.82 210.625 156.75 212.662C152.68 214.698 149.215 217.75 146.977 220.148C144.738 222.545 143.83 224.195 143.115 226.035C142.4 227.875 141.905 229.855 141.692 231.659C141.478 233.463 141.56 235.03 141.645 236.645M141.645 234.895C141.48 235.06 141.478 236.548 142.552 240.034C144.202 245.393 148.385 248.14 150.298 249.014C152.045 249.64 154.298 249.895 157.165 249.813C158.63 249.73 160.115 249.565 161.645 249.395M163.395 249.145C163.56 249.31 165.13 249.065 168.288 246.957C170.318 245.601 171.775 241.96 172.669 239.56C173.563 237.16 173.48 235.675 173.273 234.539C173.065 233.403 172.735 232.66 172.395 231.895M124.395 212.395C127.2 212.89 131.12 214.713 135.365 217.583C139.723 221.638 141.72 224.63 142.312 227.469C142.313 228.058 142.23 228.47 142.145 228.895M106.895 212.645C106.73 212.645 103.923 215.038 99.0967 220.23C96.7124 222.796 95.5905 226.165 94.7442 228.564C93.3754 232.444 93.478 236.043 93.8505 239.413C94.1405 240.885 94.6355 241.875 95.0967 242.55C95.558 243.225 95.9705 243.555 96.3955 243.895M115.395 236.645C115.31 239.973 116.14 242.3 117.598 244.513C118.735 246.239 121.38 247.47 123.472 248.393C125.527 249.3 127.305 249.145 128.682 249.353C130.213 249.584 131.555 249.645 132.765 249.355C134.536 248.931 135.64 248.23 137.057 247.233C138.556 246.177 140.14 243.905 140.893 242.442C141.06 242.148 141.225 241.9 141.31 241.649C141.395 241.398 141.395 241.15 141.395 240.895M96.1455 244.145C96.9705 244.89 100.625 246.555 102.599 247.31C103.739 247.746 107.12 247.645 109.432 247.438C110.974 247.299 112.305 246.98 113.433 246.854C114.643 246.563 115.393 246.313 115.892 246.105C116.143 245.98 116.39 245.815 117.145 245.395M173.645 237.145C175.625 239.125 178.873 240.64 182.949 241.308C186.158 241.833 189.13 240.733 191.875 239.778C193.135 239.235 194.125 238.575 194.924 237.864C195.723 237.153 196.3 236.41 196.895 235.645M185.145 128.895C187.388 127.483 190.545 125.985 195.419 124.815C199.051 123.944 203.63 123.895 207.25 123.688C211.748 123.43 215.883 123.81 219.408 124.143C224.981 124.669 228.89 124.728 230.507 124.894C233.35 125.187 236.3 125.31 239.123 125.808C242.965 126.485 245.805 127.393 247.3 127.892C251.523 129.3 255.55 130.725 257.472 131.475C258.613 131.921 259.805 132.643 262.002 133.678C265.939 135.533 268.597 137.307 270.338 138.468L270.463 138.552C271.858 139.482 274.345 141.03 277.353 143.405C280.36 145.78 283.825 148.915 286.147 151.19C289.678 154.651 290.893 156.393 292.505 158.5C293.907 160.333 296.345 163.825 298.28 167.013C300.215 170.2 301.535 173.005 302.339 174.863C303.483 177.507 303.893 180.293 304.185 185.395C304.369 188.596 304.065 193.055 303.32 198.197C302.575 203.338 301.255 209.03 300.41 212.375C299.565 215.72 299.235 216.545 298.9 217.259C298.566 217.973 298.236 218.55 297.896 219.145M267.895 185.895C267.565 186.72 264.92 189.208 260.304 192.498C258.294 193.93 256.43 194.055 253.97 194.143C251.51 194.23 248.375 194.065 243.295 193.073C238.215 192.08 231.285 190.265 226.478 189.289C221.67 188.313 219.195 188.23 217.095 188.353C213.325 188.573 210.078 189.888 206.878 191.632C205.196 192.548 203.595 193.87 201.962 195.498C200.328 197.125 198.76 199.105 197.334 201.363C195.908 203.62 194.67 206.095 193.62 208.443C192.57 210.79 191.745 212.935 191.073 215.072C189.905 219.27 189.23 222.88 188.98 225.584C188.895 226.803 188.895 227.71 189.145 228.895M189.645 228.645C190.47 228.15 192.545 227.07 195.912 225.655C199.202 224.272 201.64 224.395 202.225 224.643C203.836 225.324 200.98 227.555 200.77 230.298C200.574 232.866 201.393 235.055 202.139 236.715C203.38 239.035 204.64 241.055 205.514 242.138C205.893 242.56 206.14 242.725 206.395 242.895M207.145 244.145C207.475 243.815 209.13 242.655 212.205 240.908C215.226 239.192 218.053 239.063 220.789 239.268C222.635 239.406 225.34 240.215 229.342 241.422C233.343 242.628 238.54 244.36 241.96 245.418C245.38 246.475 246.865 246.805 248.703 247.058C250.54 247.31 252.685 247.475 255.688 247.313C258.69 247.15 262.485 246.655 265.348 246.153C268.21 245.65 270.025 245.155 272.363 244.282C274.7 243.408 277.505 242.17 279.94 240.873C282.375 239.575 284.355 238.255 285.994 237.039C288.946 234.849 291.3 232.408 293.628 229.543C294.8 227.915 295.955 225.935 296.922 223.802C297.888 221.668 298.63 219.44 299.395 217.145M196.395 236.145L201.145 229.395M100.145 167.145C99.1555 170.28 98.1655 173.415 96.6242 176.433C93.5095 182.531 90.648 185.393 90.0667 185.892C89.7497 186.164 89.3205 186.39 89.1492 186.683C88.978 186.975 89.0605 187.305 89.3505 187.64C90.7501 189.257 95.2805 189.475 100.173 189.189C100.984 189.142 101.305 188.98 101.352 189.433C101.746 193.289 101.89 197.465 103.307 200.22C103.554 200.702 103.89 200.645 104.637 200.192C108.638 197.318 111.218 195.568 112.967 194.652C113.643 194.313 113.89 194.23 114.145 194.145M115.145 202.145C110.41 205.72 106.24 207.89 105.272 208.892C104.924 209.251 105.973 210.058 107.054 210.765C108.744 211.871 110.805 211.56 112.514 211.438C113.14 211.393 113.643 211.313 113.935 211.394C115.267 211.764 113.395 214.22 114.349 217.01C114.551 217.6 114.89 217.725 115.142 217.769C115.393 217.813 115.64 217.73 116.758 216.739C117.875 215.748 119.855 213.85 122.145 211.645M115.895 196.145V200.145M171.895 152.395L171.395 151.645M176.895 171.145C177.06 171.805 178.548 173.96 180.632 176.875C181.384 177.928 181.23 178.305 180.652 178.888C177.538 182.022 175.148 182.228 174.732 182.518C173.506 183.372 174.56 185.805 174.48 188.303C174.463 188.836 173.985 188.975 173.609 189.06C172.065 189.228 170.983 189.395 170.193 189.437C169.815 189.478 169.485 189.56 168.645 189.895" stroke="#1D100E" stroke-width="4" stroke-linecap="round"/>
<path d="M78.3996 196.147C79.1077 196.294 81.219 198.031 84.4365 201.084C84.689 201.251 84.8127 201.293 84.9384 201.313C85.1877 201.334 85.6465 201.501 86.1884 201.71C86.689 201.919 87.2584 202.249 87.9177 202.313C88.5665 202.376 92.1142 202.254 91.4152 203.023C91.0165 203.461 90.4461 203.974 89.8302 204.461C88.714 205.344 85.9492 206.763 86.1659 207.69C86.229 207.96 86.5103 208.572 87.5521 209.448C90.4415 211.879 92.1388 212.571 91.8315 213.126C91.809 213.166 91.6857 213.124 90.5184 212.786C87.2065 211.828 84.8856 211.161 84.5165 211.23C83.514 211.419 81.8721 211.847 80.1578 213.696C79.0978 214.84 78.0859 216.022 77.9352 215.681C77.8115 215.401 77.7934 214.617 77.8327 214.056C77.8952 213.164 78.3915 211.277 78.8546 208.887C79.019 208.039 78.9924 207.828 78.1921 207.6C75.9215 206.955 73.0054 206.481 72.3309 205.665C72.2265 205.539 72.0933 205.353 72.1665 205.249C72.3127 205.041 73.7599 204.378 75.9421 203.958C77.234 203.709 78.6124 203.918 79.4171 203.103C79.5615 202.956 79.5708 202.831 79.3065 201.73C78.5565 198.605 78.0362 196.072 78.3996 196.147Z" fill="#FCC601" stroke="#FCC601" stroke-linecap="round"/>
</g>
<path d="M220.455 72.0075C217.342 71.9092 215.872 72.8144 215.701 72.9273C215.689 72.9354 215.681 72.9458 215.675 72.959L213.551 77.6982L212.459 81.4377C212.442 81.4955 212.493 81.5506 212.554 81.5407C215.376 81.0841 217.596 81.5007 222.209 82.7424C226.894 84.0035 230.861 85.671 238.186 85.671C244.978 85.671 253.627 77.9448 254.853 76.8177C254.908 76.7671 254.865 76.6832 254.789 76.6842C252.965 76.7078 251.335 76.6895 250.868 76.6832C250.806 76.6824 250.767 76.6185 250.795 76.5647L252.592 73.1558C252.624 73.0954 252.525 73.0035 252.465 73.0392C250.678 74.118 240.728 79.5139 230.861 74.9029C226.291 72.7673 222.876 72.0839 220.455 72.0075ZM218.615 74.1202C218.98 74.1392 219.376 74.5687 219.416 75.6667C219.41 75.9489 219.265 76.2505 219.311 76.3675C219.325 76.4135 220.504 76.8378 220.504 76.8378C220.504 76.8378 220.923 75.8869 221.181 75.4527C221.664 74.2733 222.732 74.9397 222.42 75.6696C222.213 76.8102 221.463 78.9672 221.302 79.4838C220.94 80.4883 219.633 80.6515 220.081 79.2917C220.199 78.7675 220.314 78.1339 220.314 78.1339L218.886 77.6005C218.886 77.6005 218.609 78.1403 218.339 78.6378C217.884 79.5388 216.295 79.8927 217.227 77.724C217.675 76.3643 217.889 75.312 218 74.6995C218.065 74.339 218.331 74.1055 218.615 74.1202ZM225.322 75.4244C225.342 75.4251 225.362 75.4267 225.381 75.4287C225.515 75.4395 225.697 75.7047 225.836 75.9595C226.292 77.6379 225.476 80.7247 225.331 80.932C224.834 81.7145 223.962 81.5665 224.293 80.7212C224.448 80.2077 224.614 79.7409 224.614 79.7409L223.485 79.618C222.598 81.2975 221.8 80.5943 222.26 79.8688C222.751 79.0188 223.799 77.158 224.291 76.2197C224.631 75.5588 225.019 75.4135 225.322 75.4244ZM229 76.7287C229.915 76.705 230.176 77.5327 230.038 77.9119C229.959 78.135 229.648 78.3883 229.205 77.8366C228.467 77.4762 228.004 78.9491 227.793 79.6909C227.704 80.132 227.631 80.9521 228.042 81.2752C228.285 81.468 228.585 81.4326 228.806 81.4436C228.98 81.4649 229.328 82.1253 228.311 82.4233C228.137 82.402 227.241 82.3993 226.872 81.5572C226.466 80.6837 226.723 79.4022 226.723 79.4022C226.723 79.4022 227.259 76.7562 228.809 76.7453C228.876 76.7358 228.939 76.7303 229 76.7287ZM247.283 76.8098C247.408 76.8104 247.524 76.8297 247.633 76.8679C247.887 77.0202 248.052 77.4386 247.983 77.7989C247.904 78.1121 247.772 78.3678 247.772 78.3678C248.211 78.411 248.533 78.8385 248.617 79.3983C248.7 79.958 248.159 80.4848 247.153 80.8109C246.814 80.9039 246.454 80.9029 246.438 80.7879C246.427 80.5632 245.573 77.8856 245.573 77.8856C245.546 77.7236 245.456 77.5458 245.901 77.3016C246.457 76.9741 246.909 76.8079 247.283 76.8098ZM225.049 76.8413C225.033 76.8384 225.014 76.8427 224.992 76.8553L223.917 78.3784L225.03 78.5636C225.03 78.5636 225.302 76.8851 225.049 76.8413ZM231.414 77.5435C231.742 77.5385 232.134 77.9574 232.08 78.4725C232.102 79.1809 231.887 80.116 231.887 80.116C231.887 80.116 231.992 79.8785 232.894 79.1367C233.796 78.3949 234.007 78.7111 233.891 79.1656C233.781 79.5997 232.627 80.7179 232.627 80.7179C232.79 80.7804 232.959 81.2618 232.959 81.2618C233.216 81.9191 233.353 82.4366 233.39 82.8193C233.375 83.9359 232.34 83.6123 232.262 83.0433C232.188 82.4538 231.867 81.0776 231.867 81.0776L231.5 81.1179C231.5 81.1179 231.274 81.8305 231.07 82.1092C230.225 83.3267 229.459 82.916 229.836 82.2192C229.884 82.121 230.282 81.4296 230.445 81.0526C231.126 79.5089 230.784 78.6548 231.057 77.8439C231.13 77.6357 231.266 77.5458 231.414 77.5435ZM247.015 77.5435C246.786 77.5552 246.486 77.6846 246.209 77.7779L246.58 78.6254C246.58 78.6254 247.48 78.2728 247.374 77.8022C247.328 77.5964 247.193 77.5344 247.015 77.5435ZM244.353 77.8696C244.548 77.8682 244.786 78.0877 244.931 78.4743C245.145 79.2401 245.369 80.4773 245.257 80.9172C245.15 81.3361 245.038 81.8652 244.481 81.9945C244.336 82.0256 243.131 82.1947 242.707 80.9094C242.299 79.5613 242.17 79.1733 242.121 78.7381C242.073 78.303 242.528 78.037 242.796 78.5042C243 78.8664 243.237 80.4394 243.569 81.1008C243.752 81.3686 244.127 81.4169 244.304 81.1712C244.512 80.7997 244.362 79.8717 244.233 79.1271C244.141 78.7704 244.036 78.4978 244.041 78.2987C244.076 78.0053 244.202 77.8706 244.353 77.8696ZM239.818 78.6849C239.996 78.6927 240.192 78.9259 240.297 79.5568C240.574 80.4265 240.504 82.1081 240.637 82.2638C240.77 82.4195 241.758 82.2022 242.026 82.1144C242.294 82.0266 242.787 82.1419 242.676 82.4033C242.585 82.6699 242.33 82.6952 242.277 82.7265C242.224 82.7577 239.989 83.4035 239.906 82.9736C239.823 82.5436 239.817 82.3458 239.734 81.6137C239.65 80.8814 239.447 79.8788 239.441 79.2768C239.438 78.957 239.617 78.6762 239.818 78.6849ZM237.661 78.9293C237.976 78.9333 238.255 79.1127 238.491 79.4374C238.704 79.8503 238.587 80.3151 237.993 79.8958C237.956 79.864 237.738 79.7417 237.526 79.8678C237.473 79.8994 237.372 79.9414 237.266 80.0944C236.911 80.6111 237.018 81.5363 237.214 82.0125C237.512 82.7163 237.867 82.9183 238.339 82.7454C238.811 82.5724 238.833 82.6675 238.917 82.6889C239.024 82.7157 239.295 83.5252 238.144 83.7066C236.992 83.888 236.318 82.9769 236.264 81.3912C236.237 80.3289 236.481 79.6269 236.868 79.2529C237.151 79.0295 237.417 78.9263 237.661 78.9293ZM247.51 78.9814C247.136 78.9904 246.707 79.2788 246.707 79.2788C246.707 79.2788 246.962 80.3193 246.952 80.2722C246.946 80.2043 248.264 79.9485 247.983 79.2788C247.886 79.0487 247.705 78.9767 247.51 78.9814Z" fill="#D9D9D9"/>
</svg>
