<svg width="1296" height="1728" viewBox="0 0 1296 1728" fill="none" xmlns="http://www.w3.org/2000/svg">
<g clip-path="url(#clip0_1_7)">
<rect width="1296" height="1728" fill="#0090F6"/>
<mask id="mask0_1_7" style="mask-type:alpha" maskUnits="userSpaceOnUse" x="-14" y="64" width="1555" height="445">
<rect x="-5.59766" y="64.2779" width="1600.58" height="31.4182" transform="rotate(15 -5.59766 64.2779)" fill="#D9D9D9"/>
</mask>
<g mask="url(#mask0_1_7)">
<rect width="19.9139" height="243.392" transform="matrix(0.666447 0.745552 -0.949936 0.312444 78.9844 -14.1862)" fill="#34CBF7"/>
<rect width="19.9139" height="243.392" transform="matrix(0.666447 0.745552 -0.949936 0.312444 139.68 2.07709)" fill="#34CBF7"/>
<rect width="19.9139" height="243.392" transform="matrix(0.666447 0.745552 -0.949936 0.312444 200.375 18.3403)" fill="#34CBF7"/>
<rect width="19.9139" height="243.392" transform="matrix(0.666447 0.745552 -0.949936 0.312444 261.071 34.6036)" fill="#34CBF7"/>
<rect width="19.9139" height="243.392" transform="matrix(0.666447 0.745552 -0.949936 0.312444 321.766 50.8668)" fill="#34CBF7"/>
<rect width="19.9139" height="243.392" transform="matrix(0.666447 0.745552 -0.949936 0.312444 382.461 67.1301)" fill="#34CBF7"/>
<rect width="19.9139" height="243.392" transform="matrix(0.666447 0.745552 -0.949936 0.312444 443.156 83.3933)" fill="#34CBF7"/>
<rect width="19.9139" height="243.392" transform="matrix(0.666447 0.745552 -0.949936 0.312444 503.852 99.6565)" fill="#34CBF7"/>
<rect width="19.9139" height="243.392" transform="matrix(0.666447 0.745552 -0.949936 0.312444 564.547 115.92)" fill="#34CBF7"/>
<rect width="19.9139" height="243.392" transform="matrix(0.666447 0.745552 -0.949936 0.312444 625.242 132.183)" fill="#34CBF7"/>
<rect width="19.9139" height="243.392" transform="matrix(0.666447 0.745552 -0.949936 0.312444 685.938 148.446)" fill="#34CBF7"/>
<rect width="19.9139" height="243.392" transform="matrix(0.666447 0.745552 -0.949936 0.312444 746.633 164.71)" fill="#34CBF7"/>
<rect width="19.9139" height="243.392" transform="matrix(0.666447 0.745552 -0.949936 0.312444 807.328 180.973)" fill="#34CBF7"/>
<rect width="19.9139" height="243.392" transform="matrix(0.666447 0.745552 -0.949936 0.312444 868.022 197.236)" fill="#34CBF7"/>
<rect width="19.9139" height="243.392" transform="matrix(0.666447 0.745552 -0.949936 0.312444 928.719 213.499)" fill="#34CBF7"/>
<rect width="19.9139" height="243.392" transform="matrix(0.666447 0.745552 -0.949936 0.312444 989.413 229.762)" fill="#34CBF7"/>
<rect width="19.9139" height="243.392" transform="matrix(0.666447 0.745552 -0.949936 0.312444 1050.11 246.026)" fill="#34CBF7"/>
<rect width="19.9139" height="243.392" transform="matrix(0.666447 0.745552 -0.949936 0.312444 1110.8 262.289)" fill="#34CBF7"/>
<rect width="19.9139" height="243.392" transform="matrix(0.666447 0.745552 -0.949936 0.312444 1171.5 278.552)" fill="#34CBF7"/>
<rect width="19.9139" height="243.392" transform="matrix(0.666447 0.745552 -0.949936 0.312444 1232.19 294.815)" fill="#34CBF7"/>
<rect width="19.9139" height="243.392" transform="matrix(0.666447 0.745552 -0.949936 0.312444 1292.89 311.079)" fill="#34CBF7"/>
<rect width="19.9139" height="243.392" transform="matrix(0.666447 0.745552 -0.949936 0.312444 1353.59 327.342)" fill="#34CBF7"/>
<rect width="19.9139" height="243.392" transform="matrix(0.666447 0.745552 -0.949936 0.312444 1414.28 343.605)" fill="#34CBF7"/>
<rect width="19.9139" height="243.392" transform="matrix(0.666447 0.745552 -0.949936 0.312444 1474.98 359.868)" fill="#34CBF7"/>
</g>
<mask id="mask1_1_7" style="mask-type:alpha" maskUnits="userSpaceOnUse" x="-81" y="926" width="1555" height="446">
<rect x="-72.1787" y="926.46" width="1600.58" height="31.4182" transform="rotate(15 -72.1787 926.46)" fill="#D9D9D9"/>
</mask>
<g mask="url(#mask1_1_7)">
<rect x="25.7466" y="798.198" width="23.5636" height="288" transform="rotate(60 25.7466 798.198)" fill="#34CBF7"/>
<rect x="86.4419" y="814.461" width="23.5636" height="288" transform="rotate(60 86.4419 814.461)" fill="#34CBF7"/>
<rect x="147.137" y="830.725" width="23.5636" height="288" transform="rotate(60 147.137 830.725)" fill="#34CBF7"/>
<rect x="207.833" y="846.988" width="23.5636" height="288" transform="rotate(60 207.833 846.988)" fill="#34CBF7"/>
<rect x="268.528" y="863.251" width="23.5636" height="288" transform="rotate(60 268.528 863.251)" fill="#34CBF7"/>
<rect x="329.223" y="879.514" width="23.5636" height="288" transform="rotate(60 329.223 879.514)" fill="#34CBF7"/>
<rect x="389.919" y="895.778" width="23.5636" height="288" transform="rotate(60 389.919 895.778)" fill="#34CBF7"/>
<rect x="450.614" y="912.041" width="23.5636" height="288" transform="rotate(60 450.614 912.041)" fill="#34CBF7"/>
<rect x="511.309" y="928.304" width="23.5636" height="288" transform="rotate(60 511.309 928.304)" fill="#34CBF7"/>
<rect x="572.004" y="944.567" width="23.5636" height="288" transform="rotate(60 572.004 944.567)" fill="#34CBF7"/>
<rect x="632.7" y="960.831" width="23.5636" height="288" transform="rotate(60 632.7 960.831)" fill="#34CBF7"/>
<rect x="693.395" y="977.094" width="23.5636" height="288" transform="rotate(60 693.395 977.094)" fill="#34CBF7"/>
<rect x="754.09" y="993.357" width="23.5636" height="288" transform="rotate(60 754.09 993.357)" fill="#34CBF7"/>
<rect x="814.786" y="1009.62" width="23.5636" height="288" transform="rotate(60 814.786 1009.62)" fill="#34CBF7"/>
<rect x="875.48" y="1025.88" width="23.5636" height="288" transform="rotate(60 875.48 1025.88)" fill="#34CBF7"/>
<rect x="936.176" y="1042.15" width="23.5636" height="288" transform="rotate(60 936.176 1042.15)" fill="#34CBF7"/>
<rect x="996.871" y="1058.41" width="23.5636" height="288" transform="rotate(60 996.871 1058.41)" fill="#34CBF7"/>
<rect x="1057.57" y="1074.67" width="23.5636" height="288" transform="rotate(60 1057.57 1074.67)" fill="#34CBF7"/>
<rect x="1118.26" y="1090.94" width="23.5636" height="288" transform="rotate(60 1118.26 1090.94)" fill="#34CBF7"/>
<rect x="1178.96" y="1107.2" width="23.5636" height="288" transform="rotate(60 1178.96 1107.2)" fill="#34CBF7"/>
<rect x="1239.65" y="1123.46" width="23.5636" height="288" transform="rotate(60 1239.65 1123.46)" fill="#34CBF7"/>
<rect x="1300.35" y="1139.73" width="23.5636" height="288" transform="rotate(60 1300.35 1139.73)" fill="#34CBF7"/>
<rect x="1361.04" y="1155.99" width="23.5636" height="288" transform="rotate(60 1361.04 1155.99)" fill="#34CBF7"/>
<rect x="1421.74" y="1172.25" width="23.5636" height="288" transform="rotate(60 1421.74 1172.25)" fill="#34CBF7"/>
<rect x="1482.43" y="1188.52" width="23.5636" height="288" transform="rotate(60 1482.43 1188.52)" fill="#34CBF7"/>
<rect x="1543.13" y="1204.78" width="23.5636" height="288" transform="rotate(60 1543.13 1204.78)" fill="#34CBF7"/>
</g>
<rect x="-431.015" y="926.986" width="644.073" height="315.055" transform="rotate(15 -431.015 926.986)" fill="#34CBF7"/>
<rect width="90.7636" height="315.055" transform="matrix(-0.965926 -0.258819 -0.258819 0.965926 339.541 1133.47)" fill="#DAEFF7"/>
<rect width="90.7636" height="315.055" transform="matrix(0.258819 -0.965926 -0.965926 -0.258819 474.647 1495.84)" fill="#DAEFF7"/>
<rect width="64.1455" height="64.1455" transform="matrix(0.258819 -0.965926 -0.965926 -0.258819 539.588 1253.48)" fill="#DAEFF7"/>
<rect width="90.7636" height="354.902" transform="matrix(-0.5 -0.866025 -0.866025 0.5 539.591 1253.5)" fill="#DAEFF7"/>
<rect x="859.603" y="1272.81" width="15.7091" height="78.5455" transform="rotate(15 859.603 1272.81)" fill="#DAEFF7"/>
<rect x="920.299" y="1289.07" width="15.7091" height="78.5455" transform="rotate(15 920.299 1289.07)" fill="#DAEFF7"/>
<rect x="950.646" y="1297.2" width="15.7091" height="78.5455" transform="rotate(15 950.646 1297.2)" fill="#DAEFF7"/>
<rect x="980.994" y="1305.33" width="15.7091" height="78.5455" transform="rotate(15 980.994 1305.33)" fill="#DAEFF7"/>
<rect x="1011.34" y="1313.46" width="15.7091" height="47.1273" transform="rotate(15 1011.34 1313.46)" fill="#DAEFF7"/>
<rect x="1041.69" y="1321.6" width="15.7091" height="78.5455" transform="rotate(15 1041.69 1321.6)" fill="#DAEFF7"/>
<rect x="858.514" y="1337.57" width="15.7091" height="15.7091" transform="rotate(15 858.514 1337.57)" fill="#DAEFF7"/>
<rect x="888.861" y="1345.7" width="15.7091" height="15.7091" transform="rotate(15 888.861 1345.7)" fill="#DAEFF7"/>
<rect x="957.688" y="1331.61" width="15.7091" height="15.7091" transform="rotate(15 957.688 1331.61)" fill="#DAEFF7"/>
<rect x="1018.38" y="1347.88" width="15.7091" height="15.7091" transform="rotate(15 1018.38 1347.88)" fill="#DAEFF7"/>
<rect x="995.078" y="1374.16" width="31.4182" height="15.7091" transform="rotate(15 995.078 1374.16)" fill="#DAEFF7"/>
<rect x="965.82" y="1301.27" width="15.7091" height="15.7091" transform="rotate(15 965.82 1301.27)" fill="#DAEFF7"/>
<rect x="881.819" y="1311.29" width="15.7091" height="31.4182" transform="rotate(15 881.819 1311.29)" fill="#DAEFF7"/>
<path d="M627.93 1226.99L643.104 1231.06L626.841 1291.75L611.667 1287.69L627.93 1226.99Z" fill="#DAEFF7"/>
<rect x="677.518" y="1224.02" width="15.7091" height="78.5455" transform="rotate(15 677.518 1224.02)" fill="#DAEFF7"/>
<rect x="707.865" y="1232.15" width="15.7091" height="78.5455" transform="rotate(15 707.865 1232.15)" fill="#DAEFF7"/>
<rect x="738.212" y="1240.28" width="15.7091" height="78.5455" transform="rotate(15 738.212 1240.28)" fill="#DAEFF7"/>
<rect x="768.56" y="1248.41" width="47.1273" height="15.7091" transform="rotate(15 768.56 1248.41)" fill="#DAEFF7"/>
<rect x="760.429" y="1278.76" width="47.1273" height="15.7091" transform="rotate(15 760.429 1278.76)" fill="#DAEFF7"/>
<rect x="752.297" y="1309.11" width="47.1273" height="15.7091" transform="rotate(15 752.297 1309.11)" fill="#DAEFF7"/>
<rect x="616.822" y="1207.75" width="47.1273" height="15.7091" transform="rotate(15 616.822 1207.75)" fill="#DAEFF7"/>
<rect x="684.56" y="1258.43" width="15.7091" height="15.7091" transform="rotate(15 684.56 1258.43)" fill="#DAEFF7"/>
<rect x="764.495" y="1263.58" width="15.7091" height="15.7091" transform="rotate(15 764.495 1263.58)" fill="#DAEFF7"/>
<rect x="786.71" y="1302.06" width="15.7091" height="15.7091" transform="rotate(15 786.71 1302.06)" fill="#DAEFF7"/>
<rect x="555.609" y="1436.2" width="15.7091" height="62.8364" transform="rotate(15 555.609 1436.2)" fill="#34CBF7"/>
<rect x="585.957" y="1444.33" width="15.7091" height="62.8364" transform="rotate(15 585.957 1444.33)" fill="#34CBF7"/>
<rect x="612.239" y="1467.64" width="15.7091" height="62.8364" transform="rotate(15 612.239 1467.64)" fill="#34CBF7"/>
<rect x="642.586" y="1475.77" width="15.7091" height="62.8364" transform="rotate(15 642.586 1475.77)" fill="#34CBF7"/>
<rect x="676.999" y="1468.73" width="15.7091" height="78.5455" transform="rotate(15 676.999 1468.73)" fill="#34CBF7"/>
<rect x="737.695" y="1484.99" width="15.7091" height="78.5455" transform="rotate(15 737.695 1484.99)" fill="#34CBF7"/>
<rect x="798.39" y="1501.26" width="15.7091" height="78.5455" transform="rotate(15 798.39 1501.26)" fill="#34CBF7"/>
<rect x="859.085" y="1517.52" width="15.7091" height="78.5455" transform="rotate(15 859.085 1517.52)" fill="#34CBF7"/>
<rect x="874.26" y="1521.59" width="31.4182" height="15.7091" transform="rotate(15 874.26 1521.59)" fill="#34CBF7"/>
<rect x="950.128" y="1541.91" width="47.1273" height="15.7091" transform="rotate(15 950.128 1541.91)" fill="#34CBF7"/>
<rect x="994.56" y="1618.87" width="31.4182" height="15.7091" transform="rotate(15 994.56 1618.87)" fill="#34CBF7"/>
<rect x="1017.87" y="1592.59" width="15.7091" height="15.7091" transform="rotate(15 1017.87 1592.59)" fill="#34CBF7"/>
<rect x="857.996" y="1582.28" width="31.4182" height="15.7091" transform="rotate(15 857.996 1582.28)" fill="#34CBF7"/>
<rect x="919.78" y="1533.78" width="15.7091" height="78.5455" transform="rotate(15 919.78 1533.78)" fill="#34CBF7"/>
<rect x="961.235" y="1561.15" width="15.7091" height="62.8364" transform="rotate(15 961.235 1561.15)" fill="#34CBF7"/>
<rect x="1010.82" y="1558.18" width="15.7091" height="47.1273" transform="rotate(15 1010.82 1558.18)" fill="#34CBF7"/>
<rect x="1041.17" y="1566.31" width="15.7091" height="78.5455" transform="rotate(15 1041.17 1566.31)" fill="#34CBF7"/>
<rect x="828.738" y="1509.39" width="15.7091" height="31.4182" transform="rotate(15 828.738 1509.39)" fill="#34CBF7"/>
<rect x="816.541" y="1554.91" width="15.7091" height="31.4182" transform="rotate(15 816.541 1554.91)" fill="#34CBF7"/>
<rect x="616.304" y="1452.47" width="47.1273" height="15.7091" transform="rotate(15 616.304 1452.47)" fill="#34CBF7"/>
<rect x="692.173" y="1472.8" width="15.7091" height="15.7091" transform="rotate(15 692.173 1472.8)" fill="#34CBF7"/>
<rect x="752.869" y="1489.06" width="31.4182" height="15.7091" transform="rotate(15 752.869 1489.06)" fill="#34CBF7"/>
<rect x="813.564" y="1505.32" width="15.7091" height="15.7091" transform="rotate(15 813.564 1505.32)" fill="#34CBF7"/>
<rect x="805.432" y="1535.67" width="15.7091" height="15.7091" transform="rotate(15 805.432 1535.67)" fill="#34CBF7"/>
<rect x="744.736" y="1519.41" width="31.4182" height="15.7091" transform="rotate(15 744.736 1519.41)" fill="#34CBF7"/>
<rect x="736.605" y="1549.75" width="31.4182" height="15.7091" transform="rotate(15 736.605 1549.75)" fill="#34CBF7"/>
<rect x="675.91" y="1533.49" width="15.7091" height="15.7091" transform="rotate(15 675.91 1533.49)" fill="#34CBF7"/>
<rect x="703.281" y="1492.04" width="15.7091" height="47.1273" transform="rotate(15 703.281 1492.04)" fill="#34CBF7"/>
<rect x="539.346" y="1496.9" width="47.1273" height="15.7091" transform="rotate(15 539.346 1496.9)" fill="#34CBF7"/>
<path d="M748.949 1382.3L764.123 1386.36L747.86 1447.06L732.686 1442.99L748.949 1382.3Z" fill="#34CBF7"/>
<path d="M798.536 1379.32L813.71 1383.39L793.381 1459.26L778.207 1455.19L798.536 1379.32Z" fill="#34CBF7"/>
<path d="M828.884 1387.45L844.058 1391.52L823.729 1467.39L808.555 1463.32L828.884 1387.45Z" fill="#34CBF7"/>
<path d="M859.231 1395.58L874.405 1399.65L854.076 1475.52L838.902 1471.45L859.231 1395.58Z" fill="#34CBF7"/>
<path d="M874.405 1399.65L904.753 1407.78L900.687 1422.96L870.339 1414.82L874.405 1399.65Z" fill="#34CBF7"/>
<path d="M866.274 1430L896.622 1438.13L892.556 1453.3L862.208 1445.17L866.274 1430Z" fill="#34CBF7"/>
<path d="M858.142 1460.35L888.49 1468.48L884.424 1483.65L854.076 1475.52L858.142 1460.35Z" fill="#34CBF7"/>
<path d="M805.579 1413.73L820.752 1417.8L816.687 1432.97L801.513 1428.91L805.579 1413.73Z" fill="#34CBF7"/>
<rect x="737.841" y="1363.06" width="47.1273" height="15.7091" transform="rotate(15 737.841 1363.06)" fill="#34CBF7"/>
<path d="M597.211 1341.64L612.385 1345.71L596.122 1406.4L580.948 1402.33L597.211 1341.64Z" fill="#34CBF7"/>
<rect x="646.798" y="1338.66" width="15.7091" height="78.5455" transform="rotate(15 646.798 1338.66)" fill="#34CBF7"/>
<rect x="677.146" y="1346.79" width="15.7091" height="78.5455" transform="rotate(15 677.146 1346.79)" fill="#34CBF7"/>
<rect x="586.103" y="1322.4" width="47.1273" height="15.7091" transform="rotate(15 586.103 1322.4)" fill="#34CBF7"/>
<rect x="661.972" y="1342.73" width="15.7091" height="15.7091" transform="rotate(15 661.972 1342.73)" fill="#34CBF7"/>
<rect x="645.708" y="1403.42" width="15.7091" height="15.7091" transform="rotate(15 645.708 1403.42)" fill="#34CBF7"/>
<mask id="mask2_1_7" style="mask-type:alpha" maskUnits="userSpaceOnUse" x="1039" y="855" width="637" height="454">
<rect x="1121.29" y="855.93" width="574.255" height="314.182" transform="rotate(15 1121.29 855.93)" fill="#34CBF7"/>
</mask>
<g mask="url(#mask2_1_7)">
<rect x="1168.31" y="829.68" width="23.5636" height="523.636" transform="rotate(60 1168.31 829.68)" fill="#34CBF7"/>
<rect x="1229.01" y="845.943" width="23.5636" height="523.636" transform="rotate(60 1229.01 845.943)" fill="#34CBF7"/>
<rect x="1289.71" y="862.207" width="23.5636" height="523.636" transform="rotate(60 1289.71 862.207)" fill="#34CBF7"/>
<rect x="1350.4" y="878.47" width="23.5636" height="523.636" transform="rotate(60 1350.4 878.47)" fill="#34CBF7"/>
<rect x="1411.1" y="894.733" width="23.5636" height="523.636" transform="rotate(60 1411.1 894.733)" fill="#34CBF7"/>
<rect x="1471.79" y="910.996" width="23.5636" height="523.636" transform="rotate(60 1471.79 910.996)" fill="#34CBF7"/>
<rect x="1532.48" y="927.26" width="23.5636" height="523.636" transform="rotate(60 1532.48 927.26)" fill="#34CBF7"/>
<rect x="1593.18" y="943.523" width="23.5636" height="523.636" transform="rotate(60 1593.18 943.523)" fill="#34CBF7"/>
<rect x="1653.88" y="959.786" width="23.5636" height="523.636" transform="rotate(60 1653.88 959.786)" fill="#34CBF7"/>
<rect x="1714.57" y="976.049" width="23.5636" height="523.636" transform="rotate(60 1714.57 976.049)" fill="#34CBF7"/>
</g>
<rect x="211.084" y="611.139" width="125.673" height="62.8364" transform="rotate(15 211.084 611.139)" fill="#DAEFF7"/>
<rect x="150.389" y="594.876" width="62.8364" height="188.509" transform="rotate(15 150.389 594.876)" fill="#DAEFF7"/>
<rect x="222.99" y="809.488" width="62.8364" height="126.545" transform="rotate(15 222.99 809.488)" fill="#DAEFF7"/>
<rect x="178.557" y="732.529" width="125.673" height="62.8364" transform="rotate(15 178.557 732.529)" fill="#DAEFF7"/>
<rect x="85.1094" y="838.5" width="125.673" height="62.8364" transform="rotate(15 85.1094 838.5)" fill="#DAEFF7"/>
<rect x="393.169" y="659.929" width="62.8364" height="315.055" transform="rotate(15 393.169 659.929)" fill="#DAEFF7"/>
<rect x="514.56" y="692.455" width="62.8364" height="315.055" transform="rotate(15 514.56 692.455)" fill="#DAEFF7"/>
<rect x="421.338" y="797.582" width="62.8364" height="62.8364" transform="rotate(15 421.338 797.582)" fill="#DAEFF7"/>
<rect x="635.95" y="724.982" width="62.8364" height="315.055" transform="rotate(15 635.95 724.982)" fill="#DAEFF7"/>
<rect x="757.341" y="757.508" width="62.8364" height="315.055" transform="rotate(15 757.341 757.508)" fill="#DAEFF7"/>
<rect x="696.646" y="741.245" width="62.8364" height="62.8364" transform="rotate(15 696.646 741.245)" fill="#DAEFF7"/>
<path d="M631.367 984.869L692.062 1001.13L675.799 1061.83L615.104 1045.56L631.367 984.869Z" fill="#DAEFF7"/>
<rect x="878.731" y="790.035" width="62.8364" height="315.055" transform="rotate(15 878.731 790.035)" fill="#DAEFF7"/>
<rect x="983.859" y="883.256" width="62.8364" height="126.545" transform="rotate(15 983.859 883.256)" fill="#DAEFF7"/>
<rect x="939.427" y="806.298" width="125.673" height="62.8364" transform="rotate(15 939.427 806.298)" fill="#DAEFF7"/>
<path d="M906.674 928.531L967.37 944.795L951.106 1005.49L890.411 989.227L906.674 928.531Z" fill="#DAEFF7"/>
<mask id="mask3_1_7" style="mask-type:alpha" maskUnits="userSpaceOnUse" x="-250" y="118" width="620" height="449">
<rect x="-168.242" y="118.277" width="556.8" height="315.055" transform="rotate(15 -168.242 118.277)" fill="#34CBF7"/>
</mask>
<g mask="url(#mask3_1_7)">
<rect x="82.3071" y="161.016" width="23.5636" height="488.727" transform="rotate(60 82.3071 161.016)" fill="#34CBF7"/>
<rect x="143.002" y="177.279" width="23.5636" height="488.727" transform="rotate(60 143.002 177.279)" fill="#34CBF7"/>
<rect x="203.698" y="193.543" width="23.5636" height="488.727" transform="rotate(60 203.698 193.543)" fill="#34CBF7"/>
<rect x="264.393" y="209.806" width="23.5636" height="488.727" transform="rotate(60 264.393 209.806)" fill="#34CBF7"/>
<rect x="325.088" y="226.069" width="23.5636" height="488.727" transform="rotate(60 325.088 226.069)" fill="#34CBF7"/>
<rect x="385.784" y="242.332" width="23.5636" height="488.727" transform="rotate(60 385.784 242.332)" fill="#34CBF7"/>
<rect x="446.479" y="258.596" width="23.5636" height="488.727" transform="rotate(60 446.479 258.596)" fill="#34CBF7"/>
<rect x="507.174" y="274.859" width="23.5636" height="488.727" transform="rotate(60 507.174 274.859)" fill="#34CBF7"/>
<rect x="567.87" y="291.122" width="23.5636" height="488.727" transform="rotate(60 567.87 291.122)" fill="#34CBF7"/>
<rect x="628.564" y="307.385" width="23.5636" height="488.727" transform="rotate(60 628.564 307.385)" fill="#34CBF7"/>
<rect x="689.26" y="323.649" width="23.5636" height="488.727" transform="rotate(60 689.26 323.649)" fill="#34CBF7"/>
</g>
<rect x="474.938" y="354.766" width="62.8364" height="252.218" transform="rotate(15 474.938 354.766)" fill="#DAEFF7"/>
<rect x="430.055" y="279.493" width="188.509" height="62.8364" transform="rotate(15 430.055 279.493)" fill="#DAEFF7"/>
<rect x="673.062" y="343.703" width="62.8364" height="315.055" transform="rotate(15 673.062 343.703)" fill="#DAEFF7"/>
<rect x="794.453" y="376.23" width="62.8364" height="315.055" transform="rotate(15 794.453 376.23)" fill="#DAEFF7"/>
<path d="M701.23 481.357L761.926 497.62L745.662 558.316L684.967 542.052L701.23 481.357Z" fill="#DAEFF7"/>
<rect x="915.842" y="408.756" width="62.8364" height="315.055" transform="rotate(15 915.842 408.756)" fill="#DAEFF7"/>
<rect x="976.537" y="425.02" width="125.673" height="62.8364" transform="rotate(15 976.537 425.02)" fill="#DAEFF7"/>
<path d="M943.785 547.253L1065.18 579.78L1048.91 640.475L927.521 607.949L943.785 547.253Z" fill="#DAEFF7"/>
<path d="M906.427 666.445L1027.82 698.972L1011.55 759.667L890.164 727.141L906.427 666.445Z" fill="#DAEFF7"/>
<rect x="1128.57" y="221.809" width="491.345" height="78.5455" transform="rotate(15 1128.57 221.809)" fill="#34CBF7"/>
<rect x="929.625" y="168.501" width="15.7091" height="78.5455" transform="rotate(15 929.625 168.501)" fill="#34CBF7"/>
<rect x="990.32" y="184.764" width="15.7091" height="78.5455" transform="rotate(15 990.32 184.764)" fill="#34CBF7"/>
<rect x="1020.67" y="192.896" width="15.7091" height="78.5455" transform="rotate(15 1020.67 192.896)" fill="#34CBF7"/>
<rect x="1051.02" y="201.028" width="15.7091" height="78.5455" transform="rotate(15 1051.02 201.028)" fill="#34CBF7"/>
<rect x="944.798" y="172.567" width="31.4182" height="15.7091" transform="rotate(15 944.798 172.567)" fill="#34CBF7"/>
<rect x="936.667" y="202.915" width="31.4182" height="15.7091" transform="rotate(15 936.667 202.915)" fill="#34CBF7"/>
<rect x="1005.49" y="188.83" width="15.7091" height="15.7091" transform="rotate(15 1005.49 188.83)" fill="#34CBF7"/>
<rect x="1081.36" y="209.159" width="15.7091" height="31.4182" transform="rotate(15 1081.36 209.159)" fill="#34CBF7"/>
<rect x="1069.17" y="254.681" width="15.7091" height="31.4182" transform="rotate(15 1069.17 254.681)" fill="#34CBF7"/>
<rect x="1058.06" y="235.441" width="15.7091" height="15.7091" transform="rotate(15 1058.06 235.441)" fill="#34CBF7"/>
<rect x="1066.19" y="205.093" width="15.7091" height="15.7091" transform="rotate(15 1066.19 205.093)" fill="#34CBF7"/>
<rect x="989.23" y="249.525" width="15.7091" height="15.7091" transform="rotate(15 989.23 249.525)" fill="#34CBF7"/>
<rect x="686.844" y="103.448" width="15.7091" height="78.5455" transform="rotate(15 686.844 103.448)" fill="#34CBF7"/>
<rect x="747.54" y="119.711" width="15.7091" height="78.5455" transform="rotate(15 747.54 119.711)" fill="#34CBF7"/>
<rect x="777.887" y="127.843" width="15.7091" height="78.5455" transform="rotate(15 777.887 127.843)" fill="#34CBF7"/>
<rect x="838.582" y="144.106" width="15.7091" height="47.1273" transform="rotate(15 838.582 144.106)" fill="#34CBF7"/>
<rect x="868.93" y="152.238" width="15.7091" height="78.5455" transform="rotate(15 868.93 152.238)" fill="#34CBF7"/>
<rect x="808.234" y="135.975" width="15.7091" height="78.5455" transform="rotate(15 808.234 135.975)" fill="#34CBF7"/>
<rect x="709.06" y="141.927" width="15.7091" height="31.4182" transform="rotate(15 709.06 141.927)" fill="#34CBF7"/>
<rect x="685.754" y="168.209" width="15.7091" height="15.7091" transform="rotate(15 685.754 168.209)" fill="#34CBF7"/>
<rect x="716.102" y="176.341" width="15.7091" height="15.7091" transform="rotate(15 716.102 176.341)" fill="#34CBF7"/>
<rect x="793.061" y="131.909" width="15.7091" height="15.7091" transform="rotate(15 793.061 131.909)" fill="#34CBF7"/>
<rect x="784.928" y="162.256" width="15.7091" height="15.7091" transform="rotate(15 784.928 162.256)" fill="#34CBF7"/>
<rect x="845.625" y="178.52" width="15.7091" height="15.7091" transform="rotate(15 845.625 178.52)" fill="#34CBF7"/>
<rect x="822.318" y="204.801" width="31.4182" height="15.7091" transform="rotate(15 822.318 204.801)" fill="#34CBF7"/>
<rect x="455.171" y="57.6349" width="15.7091" height="62.8364" transform="rotate(15 455.171 57.6349)" fill="#34CBF7"/>
<rect x="565.454" y="70.9215" width="15.7091" height="78.5455" transform="rotate(15 565.454 70.9215)" fill="#34CBF7"/>
<rect x="504.758" y="54.6583" width="15.7091" height="78.5455" transform="rotate(15 504.758 54.6583)" fill="#34CBF7"/>
<rect x="535.106" y="62.7901" width="15.7091" height="78.5455" transform="rotate(15 535.106 62.7901)" fill="#34CBF7"/>
<rect x="444.063" y="38.3952" width="47.1273" height="15.7091" transform="rotate(15 444.063 38.3952)" fill="#34CBF7"/>
<rect x="595.801" y="79.0532" width="47.1273" height="15.7091" transform="rotate(15 595.801 79.0532)" fill="#34CBF7"/>
<rect x="579.537" y="139.749" width="47.1273" height="15.7091" transform="rotate(15 579.537 139.749)" fill="#34CBF7"/>
<rect x="587.67" y="109.401" width="47.1273" height="15.7091" transform="rotate(15 587.67 109.401)" fill="#34CBF7"/>
<rect x="511.801" y="89.0719" width="15.7091" height="15.7091" transform="rotate(15 511.801 89.0719)" fill="#34CBF7"/>
<rect x="591.51" y="95.07" width="15.7091" height="15.7091" transform="rotate(15 591.51 95.07)" fill="#34CBF7"/>
<rect x="613.951" y="132.706" width="15.7091" height="15.7091" transform="rotate(15 613.951 132.706)" fill="#34CBF7"/>
<rect x="-242.82" y="1367.73" width="1569.16" height="286.255" transform="rotate(15 -242.82 1367.73)" fill="#024C66"/>
<rect x="313.008" y="1549.19" width="15.7091" height="78.5455" transform="rotate(15 313.008 1549.19)" fill="#0090F6"/>
<rect x="343.356" y="1557.32" width="15.7091" height="78.5455" transform="rotate(15 343.356 1557.32)" fill="#0090F6"/>
<rect x="373.705" y="1565.45" width="15.7091" height="78.5455" transform="rotate(15 373.705 1565.45)" fill="#0090F6"/>
<rect x="404.051" y="1573.59" width="15.7091" height="78.5455" transform="rotate(15 404.051 1573.59)" fill="#0090F6"/>
<rect x="434.399" y="1581.72" width="15.7091" height="78.5455" transform="rotate(15 434.399 1581.72)" fill="#0090F6"/>
<rect x="495.095" y="1597.98" width="15.7091" height="78.5455" transform="rotate(15 495.095 1597.98)" fill="#0090F6"/>
<rect x="555.79" y="1614.24" width="15.7091" height="78.5455" transform="rotate(15 555.79 1614.24)" fill="#0090F6"/>
<rect x="616.485" y="1630.51" width="15.7091" height="78.5455" transform="rotate(15 616.485 1630.51)" fill="#0090F6"/>
<rect x="677.18" y="1646.77" width="15.7091" height="78.5455" transform="rotate(15 677.18 1646.77)" fill="#0090F6"/>
<rect x="718.636" y="1674.14" width="15.7091" height="62.8364" transform="rotate(15 718.636 1674.14)" fill="#0090F6"/>
<rect x="768.223" y="1671.17" width="15.7091" height="31.4182" transform="rotate(15 768.223 1671.17)" fill="#0090F6"/>
<rect x="798.57" y="1679.3" width="15.7091" height="78.5455" transform="rotate(15 798.57 1679.3)" fill="#0090F6"/>
<rect x="586.137" y="1622.38" width="15.7091" height="31.4182" transform="rotate(15 586.137 1622.38)" fill="#0090F6"/>
<rect x="573.94" y="1667.9" width="15.7091" height="31.4182" transform="rotate(15 573.94 1667.9)" fill="#0090F6"/>
<rect x="460.681" y="1605.02" width="15.7091" height="47.1273" transform="rotate(15 460.681 1605.02)" fill="#0090F6"/>
<rect x="311.919" y="1613.95" width="15.7091" height="15.7091" transform="rotate(15 311.919 1613.95)" fill="#0090F6"/>
<rect x="388.877" y="1569.52" width="15.7091" height="15.7091" transform="rotate(15 388.877 1569.52)" fill="#0090F6"/>
<rect x="449.573" y="1585.78" width="15.7091" height="15.7091" transform="rotate(15 449.573 1585.78)" fill="#0090F6"/>
<rect x="570.964" y="1618.31" width="15.7091" height="15.7091" transform="rotate(15 570.964 1618.31)" fill="#0090F6"/>
<rect x="562.832" y="1648.66" width="15.7091" height="15.7091" transform="rotate(15 562.832 1648.66)" fill="#0090F6"/>
<rect x="510.269" y="1602.05" width="31.4182" height="15.7091" transform="rotate(15 510.269 1602.05)" fill="#0090F6"/>
<rect x="631.658" y="1634.57" width="31.4182" height="15.7091" transform="rotate(15 631.658 1634.57)" fill="#0090F6"/>
<rect x="707.527" y="1654.9" width="47.1273" height="15.7091" transform="rotate(15 707.527 1654.9)" fill="#0090F6"/>
<rect x="760.091" y="1701.51" width="31.4182" height="15.7091" transform="rotate(15 760.091 1701.51)" fill="#0090F6"/>
<rect x="615.395" y="1695.27" width="31.4182" height="15.7091" transform="rotate(15 615.395 1695.27)" fill="#0090F6"/>
<rect x="494.005" y="1662.74" width="31.4182" height="15.7091" transform="rotate(15 494.005 1662.74)" fill="#0090F6"/>
<rect x="502.137" y="1632.39" width="31.4182" height="15.7091" transform="rotate(15 502.137 1632.39)" fill="#0090F6"/>
<rect x="433.31" y="1646.48" width="15.7091" height="15.7091" transform="rotate(15 433.31 1646.48)" fill="#0090F6"/>
<rect x="9.53223" y="1467.87" width="15.7091" height="78.5455" transform="rotate(15 9.53223 1467.87)" fill="#0090F6"/>
<rect x="70.2285" y="1484.14" width="15.7091" height="78.5455" transform="rotate(15 70.2285 1484.14)" fill="#0090F6"/>
<rect x="130.923" y="1500.4" width="15.7091" height="78.5455" transform="rotate(15 130.923 1500.4)" fill="#0090F6"/>
<rect x="172.379" y="1527.77" width="15.7091" height="62.8364" transform="rotate(15 172.379 1527.77)" fill="#0090F6"/>
<rect x="221.966" y="1524.8" width="15.7091" height="31.4182" transform="rotate(15 221.966 1524.8)" fill="#0090F6"/>
<rect x="252.314" y="1532.93" width="15.7091" height="78.5455" transform="rotate(15 252.314 1532.93)" fill="#0090F6"/>
<rect x="39.8809" y="1476.01" width="15.7091" height="31.4182" transform="rotate(15 39.8809 1476.01)" fill="#0090F6"/>
<rect x="27.6826" y="1521.53" width="15.7091" height="31.4182" transform="rotate(15 27.6826 1521.53)" fill="#0090F6"/>
<rect x="24.7065" y="1471.94" width="15.7091" height="15.7091" transform="rotate(15 24.7065 1471.94)" fill="#0090F6"/>
<rect x="16.5752" y="1502.29" width="15.7091" height="15.7091" transform="rotate(15 16.5752 1502.29)" fill="#0090F6"/>
<rect x="85.4019" y="1488.2" width="31.4182" height="15.7091" transform="rotate(15 85.4019 1488.2)" fill="#0090F6"/>
<rect x="161.271" y="1508.53" width="47.1273" height="15.7091" transform="rotate(15 161.271 1508.53)" fill="#0090F6"/>
<rect x="213.833" y="1555.14" width="31.4182" height="15.7091" transform="rotate(15 213.833 1555.14)" fill="#0090F6"/>
<rect x="205.703" y="1585.49" width="31.4182" height="15.7091" transform="rotate(15 205.703 1585.49)" fill="#0090F6"/>
<rect x="69.1382" y="1548.9" width="31.4182" height="15.7091" transform="rotate(15 69.1382 1548.9)" fill="#0090F6"/>
<rect x="859.266" y="1695.56" width="15.7091" height="78.5455" transform="rotate(15 859.266 1695.56)" fill="#0090F6"/>
<rect x="889.614" y="1703.69" width="15.7091" height="78.5455" transform="rotate(15 889.614 1703.69)" fill="#0090F6"/>
<rect x="919.961" y="1711.82" width="15.7091" height="78.5455" transform="rotate(15 919.961 1711.82)" fill="#0090F6"/>
<rect x="950.309" y="1719.96" width="15.7091" height="78.5455" transform="rotate(15 950.309 1719.96)" fill="#0090F6"/>
<rect x="935.135" y="1715.89" width="15.7091" height="15.7091" transform="rotate(15 935.135 1715.89)" fill="#0090F6"/>
<path d="M204.756 -302.65L1672.4 90.6046L1621.8 279.434L154.16 -113.82L204.756 -302.65Z" fill="#024C66"/>
<rect x="994.419" y="-2.51586" width="15.7091" height="78.5455" transform="rotate(15 994.419 -2.51586)" fill="#0090F6"/>
<rect x="1024.77" y="5.61578" width="15.7091" height="78.5455" transform="rotate(15 1024.77 5.61578)" fill="#0090F6"/>
<rect x="1055.11" y="13.7474" width="15.7091" height="78.5455" transform="rotate(15 1055.11 13.7474)" fill="#0090F6"/>
<rect x="1085.46" y="21.879" width="15.7091" height="78.5455" transform="rotate(15 1085.46 21.879)" fill="#0090F6"/>
<rect x="1115.81" y="30.0107" width="15.7091" height="78.5455" transform="rotate(15 1115.81 30.0107)" fill="#0090F6"/>
<rect x="1176.51" y="46.2739" width="15.7091" height="78.5455" transform="rotate(15 1176.51 46.2739)" fill="#0090F6"/>
<rect x="1237.2" y="62.5371" width="15.7091" height="78.5455" transform="rotate(15 1237.2 62.5371)" fill="#0090F6"/>
<rect x="1297.9" y="78.8004" width="15.7091" height="78.5455" transform="rotate(15 1297.9 78.8004)" fill="#0090F6"/>
<rect x="1267.55" y="70.6688" width="15.7091" height="31.4182" transform="rotate(15 1267.55 70.6688)" fill="#0090F6"/>
<rect x="1255.35" y="116.19" width="15.7091" height="31.4182" transform="rotate(15 1255.35 116.19)" fill="#0090F6"/>
<rect x="1142.09" y="53.3161" width="15.7091" height="47.1273" transform="rotate(15 1142.09 53.3161)" fill="#0090F6"/>
<rect x="993.33" y="62.2452" width="15.7091" height="15.7091" transform="rotate(15 993.33 62.2452)" fill="#0090F6"/>
<rect x="1070.29" y="17.8132" width="15.7091" height="15.7091" transform="rotate(15 1070.29 17.8132)" fill="#0090F6"/>
<rect x="1130.98" y="34.0765" width="15.7091" height="15.7091" transform="rotate(15 1130.98 34.0765)" fill="#0090F6"/>
<rect x="1252.37" y="66.603" width="15.7091" height="15.7091" transform="rotate(15 1252.37 66.603)" fill="#0090F6"/>
<rect x="1244.24" y="96.9506" width="15.7091" height="15.7091" transform="rotate(15 1244.24 96.9506)" fill="#0090F6"/>
<rect x="1191.68" y="50.3397" width="31.4182" height="15.7091" transform="rotate(15 1191.68 50.3397)" fill="#0090F6"/>
<rect x="1296.81" y="143.561" width="31.4182" height="15.7091" transform="rotate(15 1296.81 143.561)" fill="#0090F6"/>
<rect x="1175.42" y="111.035" width="31.4182" height="15.7091" transform="rotate(15 1175.42 111.035)" fill="#0090F6"/>
<rect x="1183.55" y="80.6873" width="31.4182" height="15.7091" transform="rotate(15 1183.55 80.6873)" fill="#0090F6"/>
<rect x="1114.72" y="94.7717" width="15.7091" height="15.7091" transform="rotate(15 1114.72 94.7717)" fill="#0090F6"/>
<rect x="751.638" y="-67.5688" width="15.7091" height="78.5455" transform="rotate(15 751.638 -67.5688)" fill="#0090F6"/>
<rect x="812.334" y="-51.3055" width="15.7091" height="78.5455" transform="rotate(15 812.334 -51.3055)" fill="#0090F6"/>
<rect x="853.789" y="-23.9343" width="15.7091" height="62.8364" transform="rotate(15 853.789 -23.9343)" fill="#0090F6"/>
<rect x="903.376" y="-26.9107" width="15.7091" height="31.4182" transform="rotate(15 903.376 -26.9107)" fill="#0090F6"/>
<rect x="933.724" y="-18.7791" width="15.7091" height="78.5455" transform="rotate(15 933.724 -18.7791)" fill="#0090F6"/>
<rect x="709.093" y="-30.179" width="15.7091" height="31.4182" transform="rotate(15 709.093 -30.179)" fill="#0090F6"/>
<rect x="895.245" y="3.43692" width="31.4182" height="15.7091" transform="rotate(15 895.245 3.43692)" fill="#0090F6"/>
<rect x="887.113" y="33.7845" width="31.4182" height="15.7091" transform="rotate(15 887.113 33.7845)" fill="#0090F6"/>
<rect x="750.549" y="-2.80776" width="31.4182" height="15.7091" transform="rotate(15 750.549 -2.80776)" fill="#0090F6"/>
</g>
<defs>
<clipPath id="clip0_1_7">
<rect width="1296" height="1728" fill="white"/>
</clipPath>
</defs>
</svg>
