<svg width="1296" height="1728" viewBox="0 0 1296 1728" fill="none" xmlns="http://www.w3.org/2000/svg">
<g clip-path="url(#clip0_1_9)">
<rect width="1296" height="1728" fill="#EF8705"/>
<mask id="mask0_1_9" style="mask-type:alpha" maskUnits="userSpaceOnUse" x="1046" y="440" width="589" height="441">
<rect x="1128.21" y="440.947" width="523.636" height="315.055" transform="rotate(15 1128.21 440.947)" fill="#D9D9D9"/>
</mask>
<g mask="url(#mask0_1_9)">
<rect x="1187.68" y="405.379" width="23.5636" height="523.636" transform="rotate(60 1187.68 405.379)" fill="#F2B86F"/>
<rect x="1491.15" y="486.695" width="23.5636" height="523.636" transform="rotate(60 1491.15 486.695)" fill="#F2B86F"/>
<rect x="1248.37" y="421.642" width="23.5636" height="523.636" transform="rotate(60 1248.37 421.642)" fill="#F2B86F"/>
<rect x="1551.85" y="502.958" width="23.5636" height="523.636" transform="rotate(60 1551.85 502.958)" fill="#F2B86F"/>
<rect x="1309.07" y="437.905" width="23.5636" height="523.636" transform="rotate(60 1309.07 437.905)" fill="#F2B86F"/>
<rect x="1612.54" y="519.222" width="23.5636" height="523.636" transform="rotate(60 1612.54 519.222)" fill="#F2B86F"/>
<rect x="1369.76" y="454.169" width="23.5636" height="523.636" transform="rotate(60 1369.76 454.169)" fill="#F2B86F"/>
<rect x="1673.24" y="535.485" width="23.5636" height="523.636" transform="rotate(60 1673.24 535.485)" fill="#F2B86F"/>
<rect x="1430.46" y="470.432" width="23.5636" height="523.636" transform="rotate(60 1430.46 470.432)" fill="#F2B86F"/>
<rect x="1733.93" y="551.748" width="23.5636" height="523.636" transform="rotate(60 1733.93 551.748)" fill="#F2B86F"/>
</g>
<rect x="157.091" y="180.735" width="62.8364" height="315.055" transform="rotate(15 157.091 180.735)" fill="#D9D9D9"/>
<rect x="278.48" y="213.261" width="62.8364" height="315.055" transform="rotate(15 278.48 213.261)" fill="#D9D9D9"/>
<rect x="185.258" y="318.389" width="62.8364" height="62.8364" transform="rotate(15 185.258 318.389)" fill="#D9D9D9"/>
<rect x="399.872" y="245.788" width="62.8364" height="315.055" transform="rotate(15 399.872 245.788)" fill="#D9D9D9"/>
<rect x="521.262" y="278.314" width="62.8364" height="315.055" transform="rotate(15 521.262 278.314)" fill="#D9D9D9"/>
<rect x="460.567" y="262.051" width="62.8364" height="62.8364" transform="rotate(15 460.567 262.051)" fill="#D9D9D9"/>
<rect x="428.04" y="383.442" width="62.8364" height="62.8364" transform="rotate(15 428.04 383.442)" fill="#D9D9D9"/>
<rect x="642.652" y="310.841" width="62.8364" height="315.055" transform="rotate(15 642.652 310.841)" fill="#D9D9D9"/>
<rect x="764.044" y="343.367" width="62.8364" height="126.545" transform="rotate(15 764.044 343.367)" fill="#D9D9D9"/>
<rect x="715.254" y="525.453" width="62.8364" height="126.545" transform="rotate(15 715.254 525.453)" fill="#D9D9D9"/>
<rect x="703.349" y="327.104" width="62.8364" height="62.8364" transform="rotate(15 703.349 327.104)" fill="#D9D9D9"/>
<path d="M670.821 448.495L731.517 464.758L715.253 525.453L654.558 509.19L670.821 448.495Z" fill="#D9D9D9"/>
<rect x="885.434" y="375.894" width="62.8364" height="315.055" transform="rotate(15 885.434 375.894)" fill="#D9D9D9"/>
<rect x="990.561" y="469.116" width="62.8364" height="189.382" transform="rotate(15 990.561 469.116)" fill="#D9D9D9"/>
<rect x="946.129" y="392.157" width="62.8364" height="62.8364" transform="rotate(15 946.129 392.157)" fill="#D9D9D9"/>
<path d="M880.85 635.781L941.545 652.044L925.282 712.74L864.586 696.476L880.85 635.781Z" fill="#D9D9D9"/>
<mask id="mask1_1_9" style="mask-type:alpha" maskUnits="userSpaceOnUse" x="-488" y="466" width="588" height="441">
<rect x="-405.93" y="466.274" width="523.636" height="315.055" transform="rotate(15 -405.93 466.274)" fill="#4F4B88"/>
</mask>
<g mask="url(#mask1_1_9)">
<rect x="201.477" y="577.528" width="23.5636" height="523.636" transform="rotate(60 201.477 577.528)" fill="#F2B86F"/>
<rect x="262.172" y="593.791" width="23.5636" height="523.636" transform="rotate(60 262.172 593.791)" fill="#F2B86F"/>
<rect x="19.3906" y="528.738" width="23.5636" height="523.636" transform="rotate(60 19.3906 528.738)" fill="#F2B86F"/>
<rect x="322.866" y="610.054" width="23.5636" height="523.636" transform="rotate(60 322.866 610.054)" fill="#F2B86F"/>
<rect x="80.084" y="545.001" width="23.5636" height="523.636" transform="rotate(60 80.084 545.001)" fill="#F2B86F"/>
<rect x="383.562" y="626.318" width="23.5636" height="523.636" transform="rotate(60 383.562 626.318)" fill="#F2B86F"/>
<rect x="140.779" y="561.264" width="23.5636" height="523.636" transform="rotate(60 140.779 561.264)" fill="#F2B86F"/>
<rect x="444.257" y="642.581" width="23.5636" height="523.636" transform="rotate(60 444.257 642.581)" fill="#F2B86F"/>
</g>
<rect x="162.245" y="618.516" width="62.8364" height="315.055" transform="rotate(15 162.245 618.516)" fill="#D9D9D9"/>
<rect x="250.883" y="773.276" width="62.8364" height="125.673" transform="rotate(15 250.883 773.276)" fill="#D9D9D9"/>
<rect x="157.66" y="878.403" width="62.8364" height="62.8364" transform="rotate(15 157.66 878.403)" fill="#D9D9D9"/>
<rect x="279.051" y="910.93" width="62.8364" height="62.8364" transform="rotate(15 279.051 910.93)" fill="#D9D9D9"/>
<rect x="405.026" y="683.569" width="62.8364" height="315.055" transform="rotate(15 405.026 683.569)" fill="#D9D9D9"/>
<rect x="554.811" y="852.907" width="62.8364" height="62.8364" transform="rotate(15 554.811 852.907)" fill="#D9D9D9"/>
<rect x="587.11" y="732.359" width="62.8364" height="62.8364" transform="rotate(15 587.11 732.359)" fill="#D9D9D9"/>
<rect x="526.415" y="716.096" width="62.8364" height="315.055" transform="rotate(15 526.415 716.096)" fill="#D9D9D9"/>
<rect x="647.808" y="748.622" width="62.8364" height="315.055" transform="rotate(15 647.808 748.622)" fill="#D9D9D9"/>
<rect x="1072.68" y="862.465" width="125.673" height="62.8364" transform="rotate(15 1072.68 862.465)" fill="#D9D9D9"/>
<rect x="1039.92" y="984.698" width="125.673" height="62.8364" transform="rotate(15 1039.92 984.698)" fill="#D9D9D9"/>
<rect x="1007.17" y="1106.93" width="125.673" height="62.8364" transform="rotate(15 1007.17 1106.93)" fill="#D9D9D9"/>
<rect x="1011.98" y="846.202" width="62.8364" height="315.055" transform="rotate(15 1011.98 846.202)" fill="#D9D9D9"/>
<rect x="829.893" y="797.412" width="62.8364" height="62.8364" transform="rotate(15 829.893 797.412)" fill="#D9D9D9"/>
<rect x="797.591" y="917.959" width="62.8364" height="62.8364" transform="rotate(15 797.591 917.959)" fill="#D9D9D9"/>
<rect x="769.196" y="781.148" width="62.8364" height="315.055" transform="rotate(15 769.196 781.148)" fill="#D9D9D9"/>
<rect x="890.588" y="813.675" width="62.8364" height="124.8" transform="rotate(15 890.588 813.675)" fill="#D9D9D9"/>
<rect x="842.023" y="994.918" width="62.8364" height="124.8" transform="rotate(15 842.023 994.918)" fill="#D9D9D9"/>
<path d="M313.562 92.5587L328.735 96.6245L312.472 157.32L297.298 153.254L313.562 92.5587Z" fill="#F2B86F"/>
<rect x="378.323" y="93.648" width="15.7091" height="78.5455" transform="rotate(15 378.323 93.648)" fill="#F2B86F"/>
<rect x="408.672" y="101.78" width="15.7091" height="78.5455" transform="rotate(15 408.672 101.78)" fill="#F2B86F"/>
<rect x="317.628" y="77.3849" width="47.1273" height="15.7091" transform="rotate(15 317.628 77.3849)" fill="#F2B86F"/>
<rect x="316.539" y="142.146" width="31.4182" height="15.7091" transform="rotate(15 316.539 142.146)" fill="#F2B86F"/>
<rect x="339.845" y="115.864" width="15.7091" height="31.4182" transform="rotate(15 339.845 115.864)" fill="#F2B86F"/>
<rect x="393.497" y="97.714" width="15.7091" height="15.7091" transform="rotate(15 393.497 97.714)" fill="#F2B86F"/>
<rect x="377.234" y="158.409" width="15.7091" height="15.7091" transform="rotate(15 377.234 158.409)" fill="#F2B86F"/>
<path d="M-178.893 -55.6577L287.281 69.2531L266.952 145.122L-199.222 20.2114L-178.893 -55.6577Z" fill="#F2B86F"/>
<rect x="469.366" y="118.043" width="31.4182" height="15.7091" transform="rotate(15 469.366 118.043)" fill="#F2B86F"/>
<rect x="575.582" y="146.504" width="47.1273" height="15.7091" transform="rotate(15 575.582 146.504)" fill="#F2B86F"/>
<path d="M513.799 195.002L544.146 203.133L540.081 218.307L509.733 210.175L513.799 195.002Z" fill="#F2B86F"/>
<path d="M530.062 134.306L560.409 142.438L556.343 157.612L525.996 149.48L530.062 134.306Z" fill="#F2B86F"/>
<path d="M521.93 164.654L552.277 172.786L548.212 187.959L517.864 179.828L521.93 164.654Z" fill="#F2B86F"/>
<rect x="453.104" y="178.738" width="31.4182" height="15.7091" transform="rotate(15 453.104 178.738)" fill="#F2B86F"/>
<rect x="476.408" y="152.457" width="15.7091" height="31.4182" transform="rotate(15 476.408 152.457)" fill="#F2B86F"/>
<rect x="454.193" y="113.977" width="15.7091" height="78.5455" transform="rotate(15 454.193 113.977)" fill="#F2B86F"/>
<rect x="586.69" y="165.743" width="15.7091" height="62.8364" transform="rotate(15 586.69 165.743)" fill="#F2B86F"/>
<rect x="514.888" y="130.24" width="15.7091" height="78.5455" transform="rotate(15 514.888 130.24)" fill="#F2B86F"/>
<rect x="651.451" y="166.833" width="47.1273" height="15.7091" transform="rotate(15 651.451 166.833)" fill="#F2B86F"/>
<rect x="709.618" y="182.418" width="47.1273" height="15.7091" transform="rotate(15 709.618 182.418)" fill="#F2B86F"/>
<rect x="693.354" y="243.114" width="47.1273" height="15.7091" transform="rotate(15 693.354 243.114)" fill="#F2B86F"/>
<rect x="647.386" y="182.007" width="15.7091" height="15.7091" transform="rotate(15 647.386 182.007)" fill="#F2B86F"/>
<rect x="785.486" y="202.747" width="15.7091" height="15.7091" transform="rotate(15 785.486 202.747)" fill="#F2B86F"/>
<rect x="815.835" y="210.879" width="15.7091" height="15.7091" transform="rotate(15 815.835 210.879)" fill="#F2B86F"/>
<rect x="876.529" y="227.142" width="31.4182" height="15.7091" transform="rotate(15 876.529 227.142)" fill="#F2B86F"/>
<rect x="860.268" y="287.838" width="31.4182" height="15.7091" transform="rotate(15 860.268 287.838)" fill="#F2B86F"/>
<rect x="868.398" y="257.49" width="31.4182" height="15.7091" transform="rotate(15 868.398 257.49)" fill="#F2B86F"/>
<rect x="796.596" y="221.987" width="15.7091" height="31.4182" transform="rotate(15 796.596 221.987)" fill="#F2B86F"/>
<rect x="705.553" y="197.592" width="15.7091" height="47.1273" transform="rotate(15 705.553 197.592)" fill="#F2B86F"/>
<rect x="735.9" y="205.724" width="15.7091" height="47.1273" transform="rotate(15 735.9 205.724)" fill="#F2B86F"/>
<rect x="770.313" y="198.682" width="15.7091" height="78.5455" transform="rotate(15 770.313 198.682)" fill="#F2B86F"/>
<rect x="831.008" y="214.945" width="15.7091" height="78.5455" transform="rotate(15 831.008 214.945)" fill="#F2B86F"/>
<rect x="861.356" y="223.077" width="15.7091" height="78.5455" transform="rotate(15 861.356 223.077)" fill="#F2B86F"/>
<rect x="669.602" y="220.486" width="15.7091" height="15.7091" transform="rotate(15 669.602 220.486)" fill="#F2B86F"/>
<rect x="643.321" y="197.18" width="47.1273" height="15.7091" transform="rotate(15 643.321 197.18)" fill="#F2B86F"/>
<rect x="635.188" y="227.528" width="47.1273" height="15.7091" transform="rotate(15 635.188 227.528)" fill="#F2B86F"/>
<rect width="90.7636" height="315.055" transform="matrix(-0.965926 -0.258819 -0.258819 0.965926 290.225 1142.53)" fill="#D9D9D9"/>
<rect width="90.7636" height="315.055" transform="matrix(0.258819 -0.965926 -0.965926 -0.258819 425.33 1504.9)" fill="#D9D9D9"/>
<rect width="64.1454" height="64.1455" transform="matrix(0.258819 -0.965926 -0.965926 -0.258819 490.271 1262.54)" fill="#D9D9D9"/>
<rect width="90.7636" height="354.902" transform="matrix(-0.5 -0.866025 -0.866025 0.5 490.274 1262.56)" fill="#D9D9D9"/>
<rect x="811.133" y="1282.09" width="15.7091" height="78.5455" transform="rotate(15 811.133 1282.09)" fill="#D9D9D9"/>
<rect x="871.828" y="1298.35" width="15.7091" height="78.5455" transform="rotate(15 871.828 1298.35)" fill="#D9D9D9"/>
<rect x="902.176" y="1306.49" width="15.7091" height="78.5455" transform="rotate(15 902.176 1306.49)" fill="#D9D9D9"/>
<rect x="932.523" y="1314.62" width="15.7091" height="78.5455" transform="rotate(15 932.523 1314.62)" fill="#D9D9D9"/>
<rect x="962.872" y="1322.75" width="15.7091" height="47.1273" transform="rotate(15 962.872 1322.75)" fill="#D9D9D9"/>
<rect x="993.218" y="1330.88" width="15.7091" height="78.5455" transform="rotate(15 993.218 1330.88)" fill="#D9D9D9"/>
<rect x="810.043" y="1346.85" width="15.7091" height="15.7091" transform="rotate(15 810.043 1346.85)" fill="#D9D9D9"/>
<rect x="840.392" y="1354.98" width="15.7091" height="15.7091" transform="rotate(15 840.392 1354.98)" fill="#D9D9D9"/>
<rect x="909.218" y="1340.9" width="15.7091" height="15.7091" transform="rotate(15 909.218 1340.9)" fill="#D9D9D9"/>
<rect x="969.914" y="1357.16" width="15.7091" height="15.7091" transform="rotate(15 969.914 1357.16)" fill="#D9D9D9"/>
<rect x="946.607" y="1383.44" width="31.4182" height="15.7091" transform="rotate(15 946.607 1383.44)" fill="#D9D9D9"/>
<rect x="917.351" y="1310.55" width="15.7091" height="15.7091" transform="rotate(15 917.351 1310.55)" fill="#D9D9D9"/>
<rect x="833.35" y="1320.57" width="15.7091" height="31.4182" transform="rotate(15 833.35 1320.57)" fill="#D9D9D9"/>
<path d="M579.46 1236.28L594.634 1240.34L578.371 1301.04L563.197 1296.97L579.46 1236.28Z" fill="#D9D9D9"/>
<rect x="629.048" y="1233.3" width="15.7091" height="78.5455" transform="rotate(15 629.048 1233.3)" fill="#D9D9D9"/>
<rect x="659.395" y="1241.43" width="15.7091" height="78.5455" transform="rotate(15 659.395 1241.43)" fill="#D9D9D9"/>
<rect x="689.743" y="1249.57" width="15.7091" height="78.5455" transform="rotate(15 689.743 1249.57)" fill="#D9D9D9"/>
<rect x="720.09" y="1257.7" width="47.1273" height="15.7091" transform="rotate(15 720.09 1257.7)" fill="#D9D9D9"/>
<rect x="711.958" y="1288.04" width="47.1273" height="15.7091" transform="rotate(15 711.958 1288.04)" fill="#D9D9D9"/>
<rect x="703.827" y="1318.39" width="47.1273" height="15.7091" transform="rotate(15 703.827 1318.39)" fill="#D9D9D9"/>
<rect x="568.353" y="1217.04" width="47.1273" height="15.7091" transform="rotate(15 568.353 1217.04)" fill="#D9D9D9"/>
<rect x="636.09" y="1267.72" width="15.7091" height="15.7091" transform="rotate(15 636.09 1267.72)" fill="#D9D9D9"/>
<rect x="716.024" y="1272.87" width="15.7091" height="15.7091" transform="rotate(15 716.024 1272.87)" fill="#D9D9D9"/>
<rect x="738.24" y="1311.35" width="15.7091" height="15.7091" transform="rotate(15 738.24 1311.35)" fill="#D9D9D9"/>
<rect x="507.139" y="1445.49" width="15.7091" height="62.8364" transform="rotate(15 507.139 1445.49)" fill="#F2B86F"/>
<rect x="537.485" y="1453.62" width="15.7091" height="62.8364" transform="rotate(15 537.485 1453.62)" fill="#F2B86F"/>
<rect x="563.769" y="1476.93" width="15.7091" height="62.8364" transform="rotate(15 563.769 1476.93)" fill="#F2B86F"/>
<rect x="594.115" y="1485.06" width="15.7091" height="62.8364" transform="rotate(15 594.115 1485.06)" fill="#F2B86F"/>
<rect x="628.529" y="1478.01" width="15.7091" height="78.5455" transform="rotate(15 628.529 1478.01)" fill="#F2B86F"/>
<rect x="689.224" y="1494.28" width="15.7091" height="78.5455" transform="rotate(15 689.224 1494.28)" fill="#F2B86F"/>
<rect x="749.919" y="1510.54" width="15.7091" height="78.5455" transform="rotate(15 749.919 1510.54)" fill="#F2B86F"/>
<rect x="810.616" y="1526.8" width="15.7091" height="78.5455" transform="rotate(15 810.616 1526.8)" fill="#F2B86F"/>
<rect x="825.788" y="1530.87" width="31.4182" height="15.7091" transform="rotate(15 825.788 1530.87)" fill="#F2B86F"/>
<rect x="901.658" y="1551.2" width="47.1273" height="15.7091" transform="rotate(15 901.658 1551.2)" fill="#F2B86F"/>
<rect x="946.089" y="1628.16" width="31.4182" height="15.7091" transform="rotate(15 946.089 1628.16)" fill="#F2B86F"/>
<rect x="969.395" y="1601.88" width="15.7091" height="15.7091" transform="rotate(15 969.395 1601.88)" fill="#F2B86F"/>
<rect x="809.524" y="1591.57" width="31.4182" height="15.7091" transform="rotate(15 809.524 1591.57)" fill="#F2B86F"/>
<rect x="871.311" y="1543.07" width="15.7091" height="78.5455" transform="rotate(15 871.311 1543.07)" fill="#F2B86F"/>
<rect x="912.765" y="1570.44" width="15.7091" height="62.8364" transform="rotate(15 912.765 1570.44)" fill="#F2B86F"/>
<rect x="962.353" y="1567.46" width="15.7091" height="47.1273" transform="rotate(15 962.353 1567.46)" fill="#F2B86F"/>
<rect x="992.7" y="1575.59" width="15.7091" height="78.5455" transform="rotate(15 992.7 1575.59)" fill="#F2B86F"/>
<rect x="780.267" y="1518.67" width="15.7091" height="31.4182" transform="rotate(15 780.267 1518.67)" fill="#F2B86F"/>
<rect x="768.069" y="1564.19" width="15.7091" height="31.4182" transform="rotate(15 768.069 1564.19)" fill="#F2B86F"/>
<rect x="567.833" y="1461.75" width="47.1273" height="15.7091" transform="rotate(15 567.833 1461.75)" fill="#F2B86F"/>
<rect x="643.703" y="1482.08" width="15.7091" height="15.7091" transform="rotate(15 643.703 1482.08)" fill="#F2B86F"/>
<rect x="704.397" y="1498.34" width="31.4182" height="15.7091" transform="rotate(15 704.397 1498.34)" fill="#F2B86F"/>
<rect x="765.094" y="1514.61" width="15.7091" height="15.7091" transform="rotate(15 765.094 1514.61)" fill="#F2B86F"/>
<rect x="756.961" y="1544.95" width="15.7091" height="15.7091" transform="rotate(15 756.961 1544.95)" fill="#F2B86F"/>
<rect x="696.267" y="1528.69" width="31.4182" height="15.7091" transform="rotate(15 696.267 1528.69)" fill="#F2B86F"/>
<rect x="688.136" y="1559.04" width="31.4182" height="15.7091" transform="rotate(15 688.136 1559.04)" fill="#F2B86F"/>
<rect x="627.439" y="1542.78" width="15.7091" height="15.7091" transform="rotate(15 627.439 1542.78)" fill="#F2B86F"/>
<rect x="654.812" y="1501.32" width="15.7091" height="47.1273" transform="rotate(15 654.812 1501.32)" fill="#F2B86F"/>
<rect x="490.876" y="1506.18" width="47.1273" height="15.7091" transform="rotate(15 490.876 1506.18)" fill="#F2B86F"/>
<path d="M700.476 1391.58L715.649 1395.65L699.386 1456.34L684.212 1452.28L700.476 1391.58Z" fill="#F2B86F"/>
<path d="M750.063 1388.61L765.237 1392.67L744.908 1468.54L729.734 1464.48L750.063 1388.61Z" fill="#F2B86F"/>
<path d="M780.411 1396.74L795.585 1400.8L775.256 1476.67L760.082 1472.61L780.411 1396.74Z" fill="#F2B86F"/>
<path d="M810.761 1404.87L825.935 1408.94L805.605 1484.8L790.432 1480.74L810.761 1404.87Z" fill="#F2B86F"/>
<path d="M825.934 1408.94L856.281 1417.07L852.215 1432.24L821.868 1424.11L825.934 1408.94Z" fill="#F2B86F"/>
<path d="M817.8 1439.28L848.147 1447.41L844.082 1462.59L813.734 1454.46L817.8 1439.28Z" fill="#F2B86F"/>
<path d="M809.668 1469.63L840.016 1477.76L835.95 1492.94L805.602 1484.8L809.668 1469.63Z" fill="#F2B86F"/>
<path d="M757.105 1423.02L772.279 1427.08L768.213 1442.26L753.04 1438.19L757.105 1423.02Z" fill="#F2B86F"/>
<rect x="689.368" y="1372.34" width="47.1273" height="15.7091" transform="rotate(15 689.368 1372.34)" fill="#F2B86F"/>
<path d="M548.738 1350.92L563.912 1354.99L547.649 1415.69L532.475 1411.62L548.738 1350.92Z" fill="#F2B86F"/>
<rect x="598.326" y="1347.95" width="15.7091" height="78.5455" transform="rotate(15 598.326 1347.95)" fill="#F2B86F"/>
<rect x="628.675" y="1356.08" width="15.7091" height="78.5455" transform="rotate(15 628.675 1356.08)" fill="#F2B86F"/>
<rect x="537.632" y="1331.69" width="47.1273" height="15.7091" transform="rotate(15 537.632 1331.69)" fill="#F2B86F"/>
<rect x="613.501" y="1352.01" width="15.7091" height="15.7091" transform="rotate(15 613.501 1352.01)" fill="#F2B86F"/>
<rect x="597.237" y="1412.71" width="15.7091" height="15.7091" transform="rotate(15 597.237 1412.71)" fill="#F2B86F"/>
<rect x="1130.62" y="1367.7" width="644.073" height="315.055" transform="rotate(15 1130.62 1367.7)" fill="#F2B86F"/>
<rect x="-361.047" y="1359.23" width="1707.93" height="329.891" transform="rotate(15 -361.047 1359.23)" fill="#903D04"/>
<rect x="328.816" y="1576.6" width="15.7091" height="78.5455" transform="rotate(15 328.816 1576.6)" fill="#EF8705"/>
<rect x="359.164" y="1584.73" width="15.7091" height="78.5455" transform="rotate(15 359.164 1584.73)" fill="#EF8705"/>
<rect x="389.512" y="1592.87" width="15.7091" height="78.5455" transform="rotate(15 389.512 1592.87)" fill="#EF8705"/>
<rect x="419.86" y="1601" width="15.7091" height="78.5455" transform="rotate(15 419.86 1601)" fill="#EF8705"/>
<rect x="450.207" y="1609.13" width="15.7091" height="78.5455" transform="rotate(15 450.207 1609.13)" fill="#EF8705"/>
<rect x="510.902" y="1625.39" width="15.7091" height="78.5455" transform="rotate(15 510.902 1625.39)" fill="#EF8705"/>
<rect x="571.598" y="1641.65" width="15.7091" height="78.5455" transform="rotate(15 571.598 1641.65)" fill="#EF8705"/>
<rect x="632.293" y="1657.92" width="15.7091" height="78.5455" transform="rotate(15 632.293 1657.92)" fill="#EF8705"/>
<rect x="692.988" y="1674.18" width="15.7091" height="78.5455" transform="rotate(15 692.988 1674.18)" fill="#EF8705"/>
<rect x="734.443" y="1701.55" width="15.7091" height="62.8364" transform="rotate(15 734.443 1701.55)" fill="#EF8705"/>
<rect x="784.031" y="1698.58" width="15.7091" height="31.4182" transform="rotate(15 784.031 1698.58)" fill="#EF8705"/>
<rect x="814.379" y="1706.71" width="15.7091" height="78.5455" transform="rotate(15 814.379 1706.71)" fill="#EF8705"/>
<rect x="601.945" y="1649.79" width="15.7091" height="31.4182" transform="rotate(15 601.945 1649.79)" fill="#EF8705"/>
<rect x="589.748" y="1695.31" width="15.7091" height="31.4182" transform="rotate(15 589.748 1695.31)" fill="#EF8705"/>
<rect x="476.489" y="1632.43" width="15.7091" height="47.1273" transform="rotate(15 476.489 1632.43)" fill="#EF8705"/>
<rect x="327.728" y="1641.36" width="15.7091" height="15.7091" transform="rotate(15 327.728 1641.36)" fill="#EF8705"/>
<rect x="404.686" y="1596.93" width="15.7091" height="15.7091" transform="rotate(15 404.686 1596.93)" fill="#EF8705"/>
<rect x="465.381" y="1613.19" width="15.7091" height="15.7091" transform="rotate(15 465.381 1613.19)" fill="#EF8705"/>
<rect x="586.771" y="1645.72" width="15.7091" height="15.7091" transform="rotate(15 586.771 1645.72)" fill="#EF8705"/>
<rect x="578.64" y="1676.07" width="15.7091" height="15.7091" transform="rotate(15 578.64 1676.07)" fill="#EF8705"/>
<rect x="526.077" y="1629.46" width="31.4182" height="15.7091" transform="rotate(15 526.077 1629.46)" fill="#EF8705"/>
<rect x="647.467" y="1661.98" width="31.4182" height="15.7091" transform="rotate(15 647.467 1661.98)" fill="#EF8705"/>
<rect x="723.336" y="1682.31" width="47.1273" height="15.7091" transform="rotate(15 723.336 1682.31)" fill="#EF8705"/>
<rect x="631.204" y="1722.68" width="31.4182" height="15.7091" transform="rotate(15 631.204 1722.68)" fill="#EF8705"/>
<rect x="509.812" y="1690.15" width="31.4182" height="15.7091" transform="rotate(15 509.812 1690.15)" fill="#EF8705"/>
<rect x="517.943" y="1659.8" width="31.4182" height="15.7091" transform="rotate(15 517.943 1659.8)" fill="#EF8705"/>
<rect x="449.117" y="1673.89" width="15.7091" height="15.7091" transform="rotate(15 449.117 1673.89)" fill="#EF8705"/>
<rect x="25.3389" y="1495.29" width="15.7091" height="78.5455" transform="rotate(15 25.3389 1495.29)" fill="#EF8705"/>
<rect x="86.0361" y="1511.55" width="15.7091" height="78.5455" transform="rotate(15 86.0361 1511.55)" fill="#EF8705"/>
<rect x="146.731" y="1527.81" width="15.7091" height="78.5455" transform="rotate(15 146.731 1527.81)" fill="#EF8705"/>
<rect x="188.187" y="1555.18" width="15.7091" height="62.8364" transform="rotate(15 188.187 1555.18)" fill="#EF8705"/>
<rect x="237.773" y="1552.21" width="15.7091" height="31.4182" transform="rotate(15 237.773 1552.21)" fill="#EF8705"/>
<rect x="268.121" y="1560.34" width="15.7091" height="78.5455" transform="rotate(15 268.121 1560.34)" fill="#EF8705"/>
<rect x="55.6875" y="1503.42" width="15.7091" height="31.4182" transform="rotate(15 55.6875 1503.42)" fill="#EF8705"/>
<rect x="43.4902" y="1548.94" width="15.7091" height="31.4182" transform="rotate(15 43.4902 1548.94)" fill="#EF8705"/>
<rect x="40.5137" y="1499.35" width="15.7091" height="15.7091" transform="rotate(15 40.5137 1499.35)" fill="#EF8705"/>
<rect x="32.3828" y="1529.7" width="15.7091" height="15.7091" transform="rotate(15 32.3828 1529.7)" fill="#EF8705"/>
<rect x="-20.1807" y="1483.09" width="31.4182" height="15.7091" transform="rotate(15 -20.1807 1483.09)" fill="#EF8705"/>
<rect x="101.209" y="1515.61" width="31.4182" height="15.7091" transform="rotate(15 101.209 1515.61)" fill="#EF8705"/>
<rect x="177.079" y="1535.94" width="47.1273" height="15.7091" transform="rotate(15 177.079 1535.94)" fill="#EF8705"/>
<rect x="229.642" y="1582.55" width="31.4182" height="15.7091" transform="rotate(15 229.642 1582.55)" fill="#EF8705"/>
<rect x="221.511" y="1612.9" width="31.4182" height="15.7091" transform="rotate(15 221.511 1612.9)" fill="#EF8705"/>
<rect x="84.9453" y="1576.31" width="31.4182" height="15.7091" transform="rotate(15 84.9453 1576.31)" fill="#EF8705"/>
<rect x="-28.3125" y="1513.44" width="31.4182" height="15.7091" transform="rotate(15 -28.3125 1513.44)" fill="#EF8705"/>
<rect x="875.073" y="1722.97" width="15.7091" height="78.5455" transform="rotate(15 875.073 1722.97)" fill="#EF8705"/>
<path d="M114.895 -430.501L1784.01 16.7381L1686.89 379.224L17.7668 -68.0156L114.895 -430.501Z" fill="#903D04"/>
<rect x="1138.74" y="118.506" width="15.7091" height="78.5455" transform="rotate(15 1138.74 118.506)" fill="#EF8705"/>
<rect x="1169.09" y="126.638" width="15.7091" height="78.5455" transform="rotate(15 1169.09 126.638)" fill="#EF8705"/>
<rect x="1199.44" y="134.769" width="15.7091" height="78.5455" transform="rotate(15 1199.44 134.769)" fill="#EF8705"/>
<rect x="1229.78" y="142.901" width="15.7091" height="78.5455" transform="rotate(15 1229.78 142.901)" fill="#EF8705"/>
<rect x="1260.13" y="151.033" width="15.7091" height="78.5455" transform="rotate(15 1260.13 151.033)" fill="#EF8705"/>
<rect x="1286.42" y="174.338" width="15.7091" height="47.1273" transform="rotate(15 1286.42 174.338)" fill="#EF8705"/>
<rect x="1137.65" y="183.267" width="15.7091" height="15.7091" transform="rotate(15 1137.65 183.267)" fill="#EF8705"/>
<rect x="1214.61" y="138.835" width="15.7091" height="15.7091" transform="rotate(15 1214.61 138.835)" fill="#EF8705"/>
<rect x="1275.31" y="155.098" width="15.7091" height="15.7091" transform="rotate(15 1275.31 155.098)" fill="#EF8705"/>
<rect x="1259.04" y="215.794" width="15.7091" height="15.7091" transform="rotate(15 1259.04 215.794)" fill="#EF8705"/>
<rect x="592.485" y="-27.863" width="15.7091" height="78.5455" transform="rotate(15 592.485 -27.863)" fill="#EF8705"/>
<rect x="622.834" y="-19.7314" width="15.7091" height="78.5455" transform="rotate(15 622.834 -19.7314)" fill="#EF8705"/>
<rect x="653.182" y="-11.5998" width="15.7091" height="78.5455" transform="rotate(15 653.182 -11.5998)" fill="#EF8705"/>
<rect x="683.528" y="-3.46816" width="15.7091" height="78.5455" transform="rotate(15 683.528 -3.46816)" fill="#EF8705"/>
<rect x="713.877" y="4.66346" width="15.7091" height="78.5455" transform="rotate(15 713.877 4.66346)" fill="#EF8705"/>
<rect x="774.572" y="20.9267" width="15.7091" height="78.5455" transform="rotate(15 774.572 20.9267)" fill="#EF8705"/>
<rect x="835.267" y="37.19" width="15.7091" height="78.5455" transform="rotate(15 835.267 37.19)" fill="#EF8705"/>
<rect x="895.961" y="53.4532" width="15.7091" height="78.5455" transform="rotate(15 895.961 53.4532)" fill="#EF8705"/>
<rect x="956.656" y="69.7165" width="15.7091" height="78.5455" transform="rotate(15 956.656 69.7165)" fill="#EF8705"/>
<rect x="998.113" y="97.0877" width="15.7091" height="62.8364" transform="rotate(15 998.113 97.0877)" fill="#EF8705"/>
<rect x="1047.7" y="94.1113" width="15.7091" height="31.4182" transform="rotate(15 1047.7 94.1113)" fill="#EF8705"/>
<rect x="1078.05" y="102.243" width="15.7091" height="78.5455" transform="rotate(15 1078.05 102.243)" fill="#EF8705"/>
<rect x="865.615" y="45.3216" width="15.7091" height="31.4182" transform="rotate(15 865.615 45.3216)" fill="#EF8705"/>
<rect x="853.417" y="90.843" width="15.7091" height="31.4182" transform="rotate(15 853.417 90.843)" fill="#EF8705"/>
<rect x="740.159" y="27.9689" width="15.7091" height="47.1273" transform="rotate(15 740.159 27.9689)" fill="#EF8705"/>
<rect x="591.396" y="36.898" width="15.7091" height="15.7091" transform="rotate(15 591.396 36.898)" fill="#EF8705"/>
<rect x="668.354" y="-7.53397" width="15.7091" height="15.7091" transform="rotate(15 668.354 -7.53397)" fill="#EF8705"/>
<rect x="729.05" y="8.72928" width="15.7091" height="15.7091" transform="rotate(15 729.05 8.72928)" fill="#EF8705"/>
<rect x="850.441" y="41.2558" width="15.7091" height="15.7091" transform="rotate(15 850.441 41.2558)" fill="#EF8705"/>
<rect x="842.309" y="71.6034" width="15.7091" height="15.7091" transform="rotate(15 842.309 71.6034)" fill="#EF8705"/>
<rect x="789.745" y="24.9925" width="31.4182" height="15.7091" transform="rotate(15 789.745 24.9925)" fill="#EF8705"/>
<rect x="911.136" y="57.519" width="31.4182" height="15.7091" transform="rotate(15 911.136 57.519)" fill="#EF8705"/>
<rect x="987.005" y="77.8481" width="47.1273" height="15.7091" transform="rotate(15 987.005 77.8481)" fill="#EF8705"/>
<rect x="1039.57" y="124.459" width="31.4182" height="15.7091" transform="rotate(15 1039.57 124.459)" fill="#EF8705"/>
<rect x="1031.44" y="154.807" width="31.4182" height="15.7091" transform="rotate(15 1031.44 154.807)" fill="#EF8705"/>
<rect x="894.872" y="118.214" width="31.4182" height="15.7091" transform="rotate(15 894.872 118.214)" fill="#EF8705"/>
<rect x="773.482" y="85.6878" width="31.4182" height="15.7091" transform="rotate(15 773.482 85.6878)" fill="#EF8705"/>
<rect x="781.614" y="55.3401" width="31.4182" height="15.7091" transform="rotate(15 781.614 55.3401)" fill="#EF8705"/>
<rect x="712.786" y="69.4245" width="15.7091" height="15.7091" transform="rotate(15 712.786 69.4245)" fill="#EF8705"/>
<rect x="410.4" y="-76.6527" width="15.7091" height="78.5455" transform="rotate(15 410.4 -76.6527)" fill="#EF8705"/>
<rect x="451.856" y="-49.2814" width="15.7091" height="62.8364" transform="rotate(15 451.856 -49.2814)" fill="#EF8705"/>
<rect x="531.79" y="-44.1262" width="15.7091" height="78.5455" transform="rotate(15 531.79 -44.1262)" fill="#EF8705"/>
<rect x="493.312" y="-21.9102" width="31.4182" height="15.7091" transform="rotate(15 493.312 -21.9102)" fill="#EF8705"/>
<rect x="485.179" y="8.43745" width="31.4182" height="15.7091" transform="rotate(15 485.179 8.43745)" fill="#EF8705"/>
<mask id="mask2_1_9" style="mask-type:alpha" maskUnits="userSpaceOnUse" x="-96" y="943" width="1557" height="446">
<rect x="-87.1318" y="943.823" width="1602.33" height="31.4182" transform="rotate(15 -87.1318 943.823)" fill="#716E9F"/>
</mask>
<g mask="url(#mask2_1_9)">
<rect x="45.5625" y="941.611" width="23.5636" height="111.709" transform="rotate(60 45.5625 941.611)" fill="#F2B86F"/>
<rect x="106.257" y="957.874" width="23.5636" height="111.709" transform="rotate(60 106.257 957.874)" fill="#F2B86F"/>
<rect x="166.952" y="974.138" width="23.5636" height="111.709" transform="rotate(60 166.952 974.138)" fill="#F2B86F"/>
<rect x="227.647" y="990.401" width="23.5636" height="111.709" transform="rotate(60 227.647 990.401)" fill="#F2B86F"/>
<rect x="288.344" y="1006.66" width="23.5636" height="111.709" transform="rotate(60 288.344 1006.66)" fill="#F2B86F"/>
<rect x="349.038" y="1022.93" width="23.5636" height="111.709" transform="rotate(60 349.038 1022.93)" fill="#F2B86F"/>
<rect x="409.733" y="1039.19" width="23.5636" height="111.709" transform="rotate(60 409.733 1039.19)" fill="#F2B86F"/>
<rect x="470.429" y="1055.45" width="23.5636" height="111.709" transform="rotate(60 470.429 1055.45)" fill="#F2B86F"/>
<rect x="531.124" y="1071.72" width="23.5636" height="111.709" transform="rotate(60 531.124 1071.72)" fill="#F2B86F"/>
<rect x="591.819" y="1087.98" width="23.5636" height="111.709" transform="rotate(60 591.819 1087.98)" fill="#F2B86F"/>
<rect x="652.515" y="1104.24" width="23.5636" height="111.709" transform="rotate(60 652.515 1104.24)" fill="#F2B86F"/>
<rect x="713.21" y="1120.51" width="23.5636" height="111.709" transform="rotate(60 713.21 1120.51)" fill="#F2B86F"/>
<rect x="773.905" y="1136.77" width="23.5636" height="111.709" transform="rotate(60 773.905 1136.77)" fill="#F2B86F"/>
<rect x="834.601" y="1153.03" width="23.5636" height="111.709" transform="rotate(60 834.601 1153.03)" fill="#F2B86F"/>
<rect x="895.296" y="1169.3" width="23.5636" height="111.709" transform="rotate(60 895.296 1169.3)" fill="#F2B86F"/>
<rect x="955.99" y="1185.56" width="23.5636" height="111.709" transform="rotate(60 955.99 1185.56)" fill="#F2B86F"/>
<rect x="1016.69" y="1201.82" width="23.5636" height="111.709" transform="rotate(60 1016.69 1201.82)" fill="#F2B86F"/>
<rect x="1077.38" y="1218.09" width="23.5636" height="111.709" transform="rotate(60 1077.38 1218.09)" fill="#F2B86F"/>
<rect x="1138.08" y="1234.35" width="23.5636" height="111.709" transform="rotate(60 1138.08 1234.35)" fill="#F2B86F"/>
<rect x="1198.77" y="1250.61" width="23.5636" height="111.709" transform="rotate(60 1198.77 1250.61)" fill="#F2B86F"/>
<rect x="1259.47" y="1266.88" width="23.5636" height="111.709" transform="rotate(60 1259.47 1266.88)" fill="#F2B86F"/>
<rect x="1320.16" y="1283.14" width="23.5636" height="111.709" transform="rotate(60 1320.16 1283.14)" fill="#F2B86F"/>
<rect x="1380.86" y="1299.4" width="23.5636" height="111.709" transform="rotate(60 1380.86 1299.4)" fill="#F2B86F"/>
</g>
</g>
<defs>
<clipPath id="clip0_1_9">
<rect width="1296" height="1728" fill="white"/>
</clipPath>
</defs>
</svg>
