<svg width="1296" height="1728" viewBox="0 0 1296 1728" fill="none" xmlns="http://www.w3.org/2000/svg">
<g clip-path="url(#clip0_14_2)">
<rect width="1296" height="1728" fill="#F0004F"/>
<mask id="mask0_14_2" style="mask-type:alpha" maskUnits="userSpaceOnUse" x="-97" y="927" width="1620" height="463">
<rect x="-96.6331" y="1359.08" width="1667.78" height="31.4182" transform="rotate(-15 -96.6331 1359.08)" fill="#03001E"/>
</mask>
<g mask="url(#mask0_14_2)">
<rect x="-12.8582" y="1313.14" width="23.5636" height="288" transform="rotate(30 -12.8582 1313.14)" fill="#A20024"/>
<rect x="47.8369" y="1296.87" width="23.5636" height="288" transform="rotate(30 47.8369 1296.87)" fill="#A20024"/>
<rect x="108.532" y="1280.61" width="23.5636" height="288" transform="rotate(30 108.532 1280.61)" fill="#A20024"/>
<rect x="169.228" y="1264.35" width="23.5636" height="288" transform="rotate(30 169.228 1264.35)" fill="#A20024"/>
<rect x="229.923" y="1248.08" width="23.5636" height="288" transform="rotate(30 229.923 1248.08)" fill="#A20024"/>
<rect x="290.618" y="1231.82" width="23.5636" height="288" transform="rotate(30 290.618 1231.82)" fill="#A20024"/>
<rect x="351.313" y="1215.56" width="23.5636" height="288" transform="rotate(30 351.313 1215.56)" fill="#A20024"/>
<rect x="412.009" y="1199.29" width="23.5636" height="288" transform="rotate(30 412.009 1199.29)" fill="#A20024"/>
<rect x="472.704" y="1183.03" width="23.5636" height="288" transform="rotate(30 472.704 1183.03)" fill="#A20024"/>
<rect x="533.399" y="1166.77" width="23.5636" height="288" transform="rotate(30 533.399 1166.77)" fill="#A20024"/>
<rect x="594.095" y="1150.5" width="23.5636" height="288" transform="rotate(30 594.095 1150.5)" fill="#A20024"/>
<rect x="654.79" y="1134.24" width="23.5636" height="288" transform="rotate(30 654.79 1134.24)" fill="#A20024"/>
<rect x="715.486" y="1117.98" width="23.5636" height="288" transform="rotate(30 715.486 1117.98)" fill="#A20024"/>
<rect x="776.181" y="1101.71" width="23.5636" height="288" transform="rotate(30 776.181 1101.71)" fill="#A20024"/>
<rect x="836.875" y="1085.45" width="23.5636" height="288" transform="rotate(30 836.875 1085.45)" fill="#A20024"/>
<rect x="897.571" y="1069.19" width="23.5636" height="288" transform="rotate(30 897.571 1069.19)" fill="#A20024"/>
<rect x="958.266" y="1052.92" width="23.5636" height="288" transform="rotate(30 958.266 1052.92)" fill="#A20024"/>
<rect x="1018.96" y="1036.66" width="23.5636" height="288" transform="rotate(30 1018.96 1036.66)" fill="#A20024"/>
<rect x="1079.66" y="1020.4" width="23.5636" height="288" transform="rotate(30 1079.66 1020.4)" fill="#A20024"/>
<rect x="1140.35" y="1004.13" width="23.5636" height="288" transform="rotate(30 1140.35 1004.13)" fill="#A20024"/>
<rect x="1201.05" y="987.871" width="23.5636" height="288" transform="rotate(30 1201.05 987.871)" fill="#A20024"/>
<rect x="1261.74" y="971.608" width="23.5636" height="288" transform="rotate(30 1261.74 971.608)" fill="#A20024"/>
<rect x="1322.44" y="955.345" width="23.5636" height="288" transform="rotate(30 1322.44 955.345)" fill="#A20024"/>
<rect x="1383.13" y="939.081" width="23.5636" height="288" transform="rotate(30 1383.13 939.081)" fill="#A20024"/>
</g>
<rect x="953.044" y="1175.39" width="90.7636" height="315.055" transform="rotate(-15 953.044 1175.39)" fill="#F9E2D9"/>
<rect x="817.938" y="1537.76" width="90.7636" height="315.055" transform="rotate(-105 817.938 1537.76)" fill="#F9E2D9"/>
<rect x="752.998" y="1295.4" width="64.1455" height="64.1455" transform="rotate(-105 752.998 1295.4)" fill="#F9E2D9"/>
<rect x="752.994" y="1295.43" width="90.7636" height="354.902" transform="rotate(-60 752.994 1295.43)" fill="#F9E2D9"/>
<mask id="mask1_14_2" style="mask-type:alpha" maskUnits="userSpaceOnUse" x="1101" y="968" width="705" height="472">
<rect x="1101.41" y="1135.64" width="644.073" height="315.055" transform="rotate(-15 1101.41 1135.64)" fill="#FF6799"/>
</mask>
<g mask="url(#mask1_14_2)">
<rect x="1110.21" y="1097.46" width="23.5636" height="565.527" transform="rotate(30 1110.21 1097.46)" fill="#FD6597"/>
<rect x="1170.9" y="1081.2" width="23.5636" height="565.527" transform="rotate(30 1170.9 1081.2)" fill="#FD6597"/>
<rect x="1231.6" y="1064.93" width="23.5636" height="565.527" transform="rotate(30 1231.6 1064.93)" fill="#FD6597"/>
<rect x="1292.29" y="1048.67" width="23.5636" height="565.527" transform="rotate(30 1292.29 1048.67)" fill="#FD6597"/>
<rect x="1352.99" y="1032.41" width="23.5636" height="565.527" transform="rotate(30 1352.99 1032.41)" fill="#FD6597"/>
<rect x="1413.68" y="1016.14" width="23.5636" height="565.527" transform="rotate(30 1413.68 1016.14)" fill="#FD6597"/>
<rect x="1474.38" y="999.881" width="23.5636" height="565.527" transform="rotate(30 1474.38 999.881)" fill="#FD6597"/>
<rect x="1535.07" y="983.618" width="23.5636" height="565.527" transform="rotate(30 1535.07 983.618)" fill="#FD6597"/>
</g>
<rect x="478.666" y="1303.41" width="15.7091" height="78.5455" transform="rotate(-15 478.666 1303.41)" fill="#F9E2D9"/>
<rect x="539.362" y="1287.14" width="15.7091" height="78.5455" transform="rotate(-15 539.362 1287.14)" fill="#F9E2D9"/>
<rect x="569.709" y="1279.01" width="15.7091" height="78.5455" transform="rotate(-15 569.709 1279.01)" fill="#F9E2D9"/>
<rect x="600.057" y="1270.88" width="15.7091" height="78.5455" transform="rotate(-15 600.057 1270.88)" fill="#F9E2D9"/>
<rect x="630.405" y="1262.75" width="15.7091" height="47.1273" transform="rotate(-15 630.405 1262.75)" fill="#F9E2D9"/>
<rect x="660.752" y="1254.62" width="15.7091" height="78.5455" transform="rotate(-15 660.752 1254.62)" fill="#F9E2D9"/>
<rect x="510.104" y="1360.04" width="15.7091" height="15.7091" transform="rotate(-15 510.104 1360.04)" fill="#F9E2D9"/>
<rect x="540.451" y="1351.9" width="15.7091" height="15.7091" transform="rotate(-15 540.451 1351.9)" fill="#F9E2D9"/>
<rect x="593.015" y="1305.29" width="15.7091" height="15.7091" transform="rotate(-15 593.015 1305.29)" fill="#F9E2D9"/>
<rect x="653.71" y="1289.03" width="15.7091" height="15.7091" transform="rotate(-15 653.71 1289.03)" fill="#F9E2D9"/>
<rect x="646.668" y="1323.44" width="31.4182" height="15.7091" transform="rotate(-15 646.668 1323.44)" fill="#F9E2D9"/>
<rect x="584.883" y="1274.95" width="15.7091" height="15.7091" transform="rotate(-15 584.883 1274.95)" fill="#F9E2D9"/>
<rect x="517.146" y="1325.62" width="15.7091" height="31.4182" transform="rotate(-15 517.146 1325.62)" fill="#F9E2D9"/>
<path d="M255.125 1379.57L270.299 1375.5L286.562 1436.2L271.388 1440.26L255.125 1379.57Z" fill="#F9E2D9"/>
<rect x="296.581" y="1352.2" width="15.7091" height="78.5455" transform="rotate(-15 296.581 1352.2)" fill="#F9E2D9"/>
<rect x="326.928" y="1344.07" width="15.7091" height="78.5455" transform="rotate(-15 326.928 1344.07)" fill="#F9E2D9"/>
<rect x="357.276" y="1335.93" width="15.7091" height="78.5455" transform="rotate(-15 357.276 1335.93)" fill="#F9E2D9"/>
<rect x="387.624" y="1327.8" width="47.1273" height="15.7091" transform="rotate(-15 387.624 1327.8)" fill="#F9E2D9"/>
<rect x="395.755" y="1358.15" width="47.1273" height="15.7091" transform="rotate(-15 395.755 1358.15)" fill="#F9E2D9"/>
<rect x="403.887" y="1388.5" width="47.1273" height="15.7091" transform="rotate(-15 403.887 1388.5)" fill="#F9E2D9"/>
<rect x="235.885" y="1368.46" width="47.1273" height="15.7091" transform="rotate(-15 235.885 1368.46)" fill="#F9E2D9"/>
<rect x="319.886" y="1378.48" width="15.7091" height="15.7091" transform="rotate(-15 319.886 1378.48)" fill="#F9E2D9"/>
<rect x="391.69" y="1342.98" width="15.7091" height="15.7091" transform="rotate(-15 391.69 1342.98)" fill="#F9E2D9"/>
<rect x="430.168" y="1365.19" width="15.7091" height="15.7091" transform="rotate(-15 430.168 1365.19)" fill="#F9E2D9"/>
<rect x="236.177" y="1612.33" width="15.7091" height="62.8364" transform="rotate(-15 236.177 1612.33)" fill="#FD6597"/>
<rect x="266.525" y="1604.2" width="15.7091" height="62.8364" transform="rotate(-15 266.525 1604.2)" fill="#FD6597"/>
<rect x="300.938" y="1611.24" width="15.7091" height="62.8364" transform="rotate(-15 300.938 1611.24)" fill="#FD6597"/>
<rect x="331.286" y="1603.11" width="15.7091" height="62.8364" transform="rotate(-15 331.286 1603.11)" fill="#FD6597"/>
<rect x="357.568" y="1579.8" width="15.7091" height="78.5455" transform="rotate(-15 357.568 1579.8)" fill="#FD6597"/>
<rect x="418.263" y="1563.54" width="15.7091" height="78.5455" transform="rotate(-15 418.263 1563.54)" fill="#FD6597"/>
<rect x="478.958" y="1547.28" width="15.7091" height="78.5455" transform="rotate(-15 478.958 1547.28)" fill="#FD6597"/>
<rect x="539.654" y="1531.01" width="15.7091" height="78.5455" transform="rotate(-15 539.654 1531.01)" fill="#FD6597"/>
<rect x="554.827" y="1526.95" width="31.4182" height="15.7091" transform="rotate(-15 554.827 1526.95)" fill="#FD6597"/>
<rect x="630.697" y="1506.62" width="47.1273" height="15.7091" transform="rotate(-15 630.697 1506.62)" fill="#FD6597"/>
<rect x="707.655" y="1551.05" width="31.4182" height="15.7091" transform="rotate(-15 707.655 1551.05)" fill="#FD6597"/>
<rect x="714.698" y="1516.64" width="15.7091" height="15.7091" transform="rotate(-15 714.698 1516.64)" fill="#FD6597"/>
<rect x="571.091" y="1587.64" width="31.4182" height="15.7091" transform="rotate(-15 571.091 1587.64)" fill="#FD6597"/>
<rect x="600.349" y="1514.75" width="15.7091" height="78.5455" transform="rotate(-15 600.349 1514.75)" fill="#FD6597"/>
<rect x="649.936" y="1517.73" width="15.7091" height="62.8364" transform="rotate(-15 649.936 1517.73)" fill="#FD6597"/>
<rect x="691.392" y="1490.36" width="15.7091" height="47.1273" transform="rotate(-15 691.392 1490.36)" fill="#FD6597"/>
<rect x="721.74" y="1482.22" width="15.7091" height="78.5455" transform="rotate(-15 721.74 1482.22)" fill="#FD6597"/>
<rect x="509.306" y="1539.15" width="15.7091" height="31.4182" transform="rotate(-15 509.306 1539.15)" fill="#FD6597"/>
<rect x="521.503" y="1584.67" width="15.7091" height="31.4182" transform="rotate(-15 521.503 1584.67)" fill="#FD6597"/>
<rect x="296.873" y="1596.07" width="47.1273" height="15.7091" transform="rotate(-15 296.873 1596.07)" fill="#FD6597"/>
<rect x="372.742" y="1575.74" width="15.7091" height="15.7091" transform="rotate(-15 372.742 1575.74)" fill="#FD6597"/>
<rect x="433.437" y="1559.47" width="31.4182" height="15.7091" transform="rotate(-15 433.437 1559.47)" fill="#FD6597"/>
<rect x="494.132" y="1543.21" width="15.7091" height="15.7091" transform="rotate(-15 494.132 1543.21)" fill="#FD6597"/>
<rect x="502.264" y="1573.56" width="15.7091" height="15.7091" transform="rotate(-15 502.264 1573.56)" fill="#FD6597"/>
<rect x="441.569" y="1589.82" width="31.4182" height="15.7091" transform="rotate(-15 441.569 1589.82)" fill="#FD6597"/>
<rect x="449.7" y="1620.17" width="31.4182" height="15.7091" transform="rotate(-15 449.7 1620.17)" fill="#FD6597"/>
<rect x="389.005" y="1636.43" width="15.7091" height="15.7091" transform="rotate(-15 389.005 1636.43)" fill="#FD6597"/>
<rect x="391.981" y="1586.85" width="15.7091" height="47.1273" transform="rotate(-15 391.981 1586.85)" fill="#FD6597"/>
<rect x="252.44" y="1673.03" width="47.1273" height="15.7091" transform="rotate(-15 252.44 1673.03)" fill="#FD6597"/>
<path d="M558.748 1420.19L573.921 1416.12L590.185 1476.82L575.011 1480.88L558.748 1420.19Z" fill="#FD6597"/>
<path d="M600.203 1392.82L615.377 1388.75L635.706 1464.62L620.532 1468.68L600.203 1392.82Z" fill="#FD6597"/>
<path d="M630.551 1384.68L645.725 1380.62L666.054 1456.49L650.88 1460.55L630.551 1384.68Z" fill="#FD6597"/>
<path d="M660.898 1376.55L676.072 1372.49L696.401 1448.36L681.227 1452.42L660.898 1376.55Z" fill="#FD6597"/>
<path d="M676.072 1372.49L706.42 1364.35L710.486 1379.53L680.138 1387.66L676.072 1372.49Z" fill="#FD6597"/>
<path d="M684.204 1402.83L714.551 1394.7L718.617 1409.88L688.269 1418.01L684.204 1402.83Z" fill="#FD6597"/>
<path d="M692.335 1433.18L722.683 1425.05L726.749 1440.22L696.401 1448.36L692.335 1433.18Z" fill="#FD6597"/>
<path d="M623.509 1419.1L638.682 1415.03L642.748 1430.21L627.574 1434.27L623.509 1419.1Z" fill="#FD6597"/>
<rect x="539.508" y="1409.08" width="47.1273" height="15.7091" transform="rotate(-15 539.508 1409.08)" fill="#FD6597"/>
<path d="M407.009 1460.85L422.183 1456.78L438.446 1517.47L423.273 1521.54L407.009 1460.85Z" fill="#FD6597"/>
<rect x="448.465" y="1433.47" width="15.7091" height="78.5455" transform="rotate(-15 448.465 1433.47)" fill="#FD6597"/>
<rect x="478.812" y="1425.34" width="15.7091" height="78.5455" transform="rotate(-15 478.812 1425.34)" fill="#FD6597"/>
<rect x="387.77" y="1449.74" width="47.1273" height="15.7091" transform="rotate(-15 387.77 1449.74)" fill="#FD6597"/>
<rect x="463.639" y="1429.41" width="15.7091" height="15.7091" transform="rotate(-15 463.639 1429.41)" fill="#FD6597"/>
<rect x="479.902" y="1490.1" width="15.7091" height="15.7091" transform="rotate(-15 479.902 1490.1)" fill="#FD6597"/>
<mask id="mask2_14_2" style="mask-type:alpha" maskUnits="userSpaceOnUse" x="-368" y="358" width="621" height="450">
<rect x="-367.19" y="502.758" width="556.8" height="315.055" transform="rotate(-15 -367.19 502.758)" fill="#FF74A2"/>
</mask>
<g mask="url(#mask2_14_2)">
<rect x="40.0049" y="365.642" width="23.5636" height="496.582" transform="rotate(30 40.0049 365.642)" fill="#FD6597"/>
<rect x="100.7" y="349.379" width="23.5636" height="496.582" transform="rotate(30 100.7 349.379)" fill="#FD6597"/>
<rect x="161.396" y="333.115" width="23.5636" height="496.582" transform="rotate(30 161.396 333.115)" fill="#FD6597"/>
<rect x="222.091" y="316.852" width="23.5636" height="496.582" transform="rotate(30 222.091 316.852)" fill="#FD6597"/>
<rect x="282.786" y="300.589" width="23.5636" height="496.582" transform="rotate(30 282.786 300.589)" fill="#FD6597"/>
<rect x="343.481" y="284.326" width="23.5636" height="496.582" transform="rotate(30 343.481 284.326)" fill="#FD6597"/>
<rect x="404.176" y="268.062" width="23.5636" height="496.582" transform="rotate(30 404.176 268.062)" fill="#FD6597"/>
<rect x="464.872" y="251.799" width="23.5636" height="496.582" transform="rotate(30 464.872 251.799)" fill="#FD6597"/>
</g>
<rect x="231.332" y="342.385" width="62.8364" height="315.055" transform="rotate(-15 231.332 342.385)" fill="#F9E2D9"/>
<rect x="292.028" y="326.122" width="125.673" height="62.8364" transform="rotate(-15 292.028 326.122)" fill="#F9E2D9"/>
<rect x="324.554" y="447.512" width="125.673" height="62.8364" transform="rotate(-15 324.554 447.512)" fill="#F9E2D9"/>
<rect x="474.113" y="277.332" width="62.8364" height="315.055" transform="rotate(-15 474.113 277.332)" fill="#F9E2D9"/>
<rect x="595.504" y="244.805" width="62.8364" height="315.055" transform="rotate(-15 595.504 244.805)" fill="#F9E2D9"/>
<rect x="534.808" y="261.069" width="62.8364" height="62.8364" transform="rotate(-15 534.808 261.069)" fill="#F9E2D9"/>
<path d="M600.087 504.693L660.782 488.429L677.046 549.125L616.35 565.388L600.087 504.693Z" fill="#F9E2D9"/>
<rect x="716.894" y="212.279" width="62.8364" height="315.055" transform="rotate(-15 716.894 212.279)" fill="#F9E2D9"/>
<rect x="838.285" y="179.752" width="62.8364" height="315.055" transform="rotate(-15 838.285 179.752)" fill="#F9E2D9"/>
<rect x="777.59" y="196.016" width="62.8364" height="62.8364" transform="rotate(-15 777.59 196.016)" fill="#F9E2D9"/>
<path d="M842.868 439.64L903.564 423.376L919.827 484.072L859.132 500.335L842.868 439.64Z" fill="#F9E2D9"/>
<rect x="959.676" y="147.226" width="62.8364" height="315.055" transform="rotate(-15 959.676 147.226)" fill="#F9E2D9"/>
<rect x="1097.33" y="175.395" width="62.8364" height="188.509" transform="rotate(-15 1097.33 175.395)" fill="#F9E2D9"/>
<rect x="1020.37" y="130.963" width="62.8364" height="62.8364" transform="rotate(-15 1020.37 130.963)" fill="#F9E2D9"/>
<path d="M1085.65 374.587L1146.34 358.323L1162.61 419.019L1101.91 435.282L1085.65 374.587Z" fill="#F9E2D9"/>
<mask id="mask3_14_2" style="mask-type:alpha" maskUnits="userSpaceOnUse" x="-684" y="907" width="893" height="523">
<rect x="-683.581" y="1125.13" width="839.564" height="315.055" transform="rotate(-15 -683.581 1125.13)" fill="#FF74A2"/>
</mask>
<g mask="url(#mask3_14_2)">
<rect x="-8.93164" y="917.249" width="23.5636" height="496.582" transform="rotate(30 -8.93164 917.249)" fill="#FD6597"/>
<rect x="51.7637" y="900.985" width="23.5636" height="496.582" transform="rotate(30 51.7637 900.985)" fill="#FD6597"/>
<rect x="112.459" y="884.722" width="23.5636" height="496.582" transform="rotate(30 112.459 884.722)" fill="#FD6597"/>
<rect x="173.154" y="868.459" width="23.5636" height="496.582" transform="rotate(30 173.154 868.459)" fill="#FD6597"/>
<rect x="233.849" y="852.195" width="23.5636" height="496.582" transform="rotate(30 233.849 852.195)" fill="#FD6597"/>
<rect x="294.544" y="835.932" width="23.5636" height="496.582" transform="rotate(30 294.544 835.932)" fill="#FD6597"/>
<rect x="355.24" y="819.669" width="23.5636" height="496.582" transform="rotate(30 355.24 819.669)" fill="#FD6597"/>
<rect x="415.935" y="803.406" width="23.5636" height="496.582" transform="rotate(30 415.935 803.406)" fill="#FD6597"/>
</g>
<rect x="188.071" y="891.567" width="62.8364" height="125.673" transform="rotate(-15 188.071 891.567)" fill="#F9E2D9"/>
<rect x="358.251" y="1041.13" width="62.8364" height="125.673" transform="rotate(-15 358.251 1041.13)" fill="#F9E2D9"/>
<rect x="248.766" y="875.304" width="125.673" height="62.8364" transform="rotate(-15 248.766 875.304)" fill="#F9E2D9"/>
<rect x="220.597" y="1012.96" width="188.509" height="62.8364" transform="rotate(-15 220.597 1012.96)" fill="#F9E2D9"/>
<rect x="253.124" y="1134.35" width="125.673" height="62.8364" transform="rotate(-15 253.124 1134.35)" fill="#F9E2D9"/>
<rect x="430.852" y="826.514" width="62.8364" height="315.055" transform="rotate(-15 430.852 826.514)" fill="#F9E2D9"/>
<rect x="552.242" y="793.988" width="62.8364" height="315.055" transform="rotate(-15 552.242 793.988)" fill="#F9E2D9"/>
<rect x="491.547" y="810.251" width="62.8364" height="62.8364" transform="rotate(-15 491.547 810.251)" fill="#F9E2D9"/>
<rect x="673.633" y="761.461" width="62.8364" height="315.055" transform="rotate(-15 673.633 761.461)" fill="#F9E2D9"/>
<rect x="795.023" y="728.935" width="62.8364" height="315.055" transform="rotate(-15 795.023 728.935)" fill="#F9E2D9"/>
<rect x="734.328" y="745.198" width="62.8364" height="62.8364" transform="rotate(-15 734.328 745.198)" fill="#F9E2D9"/>
<path d="M767.08 867.432L827.775 851.168L844.039 911.864L783.343 928.127L767.08 867.432Z" fill="#F9E2D9"/>
<rect x="916.414" y="696.409" width="62.8364" height="126.545" transform="rotate(-15 916.414 696.409)" fill="#F9E2D9"/>
<rect x="1037.8" y="663.882" width="62.8364" height="126.545" transform="rotate(-15 1037.8 663.882)" fill="#F9E2D9"/>
<rect x="1009.86" y="802.379" width="62.8364" height="62.8364" transform="rotate(-15 1009.86 802.379)" fill="#F9E2D9"/>
<path d="M965.43 879.337L1026.12 863.074L1058.65 984.464L997.956 1000.73L965.43 879.337Z" fill="#F9E2D9"/>
<path d="M1086.82 846.811L1147.52 830.547L1180.04 951.938L1119.35 968.201L1086.82 846.811Z" fill="#F9E2D9"/>
<rect x="-182.5" y="306.902" width="256.582" height="78.5455" transform="rotate(-15 -182.5 306.902)" fill="#FD6597"/>
<rect x="581.25" y="102.256" width="15.7091" height="78.5455" transform="rotate(-15 581.25 102.256)" fill="#FD6597"/>
<rect x="641.944" y="85.9925" width="15.7091" height="78.5455" transform="rotate(-15 641.944 85.9925)" fill="#FD6597"/>
<rect x="672.292" y="77.8609" width="15.7091" height="78.5455" transform="rotate(-15 672.292 77.8609)" fill="#FD6597"/>
<rect x="702.639" y="69.7293" width="15.7091" height="78.5455" transform="rotate(-15 702.639 69.7293)" fill="#FD6597"/>
<rect x="596.423" y="98.19" width="31.4182" height="15.7091" transform="rotate(-15 596.423 98.19)" fill="#FD6597"/>
<rect x="604.554" y="128.538" width="31.4182" height="15.7091" transform="rotate(-15 604.554 128.538)" fill="#FD6597"/>
<rect x="657.118" y="81.9267" width="15.7091" height="15.7091" transform="rotate(-15 657.118 81.9267)" fill="#FD6597"/>
<rect x="732.987" y="61.5976" width="15.7091" height="31.4182" transform="rotate(-15 732.987 61.5976)" fill="#FD6597"/>
<rect x="745.185" y="107.119" width="15.7091" height="31.4182" transform="rotate(-15 745.185 107.119)" fill="#FD6597"/>
<rect x="725.945" y="96.0111" width="15.7091" height="15.7091" transform="rotate(-15 725.945 96.0111)" fill="#FD6597"/>
<rect x="717.813" y="65.6635" width="15.7091" height="15.7091" transform="rotate(-15 717.813 65.6635)" fill="#FD6597"/>
<rect x="673.382" y="142.622" width="15.7091" height="15.7091" transform="rotate(-15 673.382 142.622)" fill="#FD6597"/>
<rect x="338.468" y="167.309" width="15.7091" height="78.5455" transform="rotate(-15 338.468 167.309)" fill="#FD6597"/>
<rect x="399.163" y="151.046" width="15.7091" height="78.5455" transform="rotate(-15 399.163 151.046)" fill="#FD6597"/>
<rect x="429.511" y="142.914" width="15.7091" height="78.5455" transform="rotate(-15 429.511 142.914)" fill="#FD6597"/>
<rect x="490.206" y="126.651" width="15.7091" height="47.1273" transform="rotate(-15 490.206 126.651)" fill="#FD6597"/>
<rect x="520.554" y="118.519" width="15.7091" height="78.5455" transform="rotate(-15 520.554 118.519)" fill="#FD6597"/>
<rect x="459.859" y="134.782" width="15.7091" height="78.5455" transform="rotate(-15 459.859 134.782)" fill="#FD6597"/>
<rect x="376.948" y="189.525" width="15.7091" height="31.4182" transform="rotate(-15 376.948 189.525)" fill="#FD6597"/>
<rect x="369.905" y="223.938" width="15.7091" height="15.7091" transform="rotate(-15 369.905 223.938)" fill="#FD6597"/>
<rect x="400.253" y="215.807" width="15.7091" height="15.7091" transform="rotate(-15 400.253 215.807)" fill="#FD6597"/>
<rect x="444.685" y="138.848" width="15.7091" height="15.7091" transform="rotate(-15 444.685 138.848)" fill="#FD6597"/>
<rect x="452.816" y="169.196" width="15.7091" height="15.7091" transform="rotate(-15 452.816 169.196)" fill="#FD6597"/>
<rect x="513.511" y="152.932" width="15.7091" height="15.7091" transform="rotate(-15 513.511 152.932)" fill="#FD6597"/>
<rect x="506.47" y="187.346" width="31.4182" height="15.7091" transform="rotate(-15 506.47 187.346)" fill="#FD6597"/>
<rect x="114.927" y="243.47" width="15.7091" height="62.8364" transform="rotate(-15 114.927 243.47)" fill="#FD6597"/>
<rect x="217.078" y="199.835" width="15.7091" height="78.5455" transform="rotate(-15 217.078 199.835)" fill="#FD6597"/>
<rect x="156.382" y="216.099" width="15.7091" height="78.5455" transform="rotate(-15 156.382 216.099)" fill="#FD6597"/>
<rect x="186.73" y="207.967" width="15.7091" height="78.5455" transform="rotate(-15 186.73 207.967)" fill="#FD6597"/>
<rect x="95.6873" y="232.362" width="47.1273" height="15.7091" transform="rotate(-15 95.6873 232.362)" fill="#FD6597"/>
<rect x="247.425" y="191.704" width="47.1273" height="15.7091" transform="rotate(-15 247.425 191.704)" fill="#FD6597"/>
<rect x="263.689" y="252.399" width="47.1273" height="15.7091" transform="rotate(-15 263.689 252.399)" fill="#FD6597"/>
<rect x="255.557" y="222.051" width="47.1273" height="15.7091" transform="rotate(-15 255.557 222.051)" fill="#FD6597"/>
<rect x="179.688" y="242.38" width="15.7091" height="15.7091" transform="rotate(-15 179.688 242.38)" fill="#FD6597"/>
<rect x="251.717" y="207.72" width="15.7091" height="15.7091" transform="rotate(-15 251.717 207.72)" fill="#FD6597"/>
<rect x="289.97" y="229.093" width="15.7091" height="15.7091" transform="rotate(-15 289.97 229.093)" fill="#FD6597"/>
<rect x="838.723" y="570.857" width="691.2" height="78.5455" transform="rotate(-15 838.723 570.857)" fill="#FD6597"/>
<rect x="611.116" y="631.844" width="15.7091" height="78.5455" transform="rotate(-15 611.116 631.844)" fill="#FD6597"/>
<rect x="580.769" y="639.975" width="15.7091" height="78.5455" transform="rotate(-15 580.769 639.975)" fill="#FD6597"/>
<rect x="535.247" y="652.173" width="31.4182" height="15.7091" transform="rotate(-15 535.247 652.173)" fill="#FD6597"/>
<rect x="551.51" y="712.868" width="31.4182" height="15.7091" transform="rotate(-15 551.51 712.868)" fill="#FD6597"/>
<rect x="520.073" y="656.238" width="15.7091" height="78.5455" transform="rotate(-15 520.073 656.238)" fill="#FD6597"/>
<rect x="489.726" y="664.37" width="15.7091" height="78.5455" transform="rotate(-15 489.726 664.37)" fill="#FD6597"/>
<rect x="460.467" y="737.263" width="31.4182" height="15.7091" transform="rotate(-15 460.467 737.263)" fill="#FD6597"/>
<rect x="429.03" y="680.633" width="15.7091" height="78.5455" transform="rotate(-15 429.03 680.633)" fill="#FD6597"/>
<rect x="383.509" y="692.831" width="31.4182" height="15.7091" transform="rotate(-15 383.509 692.831)" fill="#FD6597"/>
<rect x="391.641" y="723.178" width="31.4182" height="15.7091" transform="rotate(-15 391.641 723.178)" fill="#FD6597"/>
<rect x="399.772" y="753.526" width="31.4182" height="15.7091" transform="rotate(-15 399.772 753.526)" fill="#FD6597"/>
<rect x="368.335" y="696.897" width="15.7091" height="78.5455" transform="rotate(-15 368.335 696.897)" fill="#FD6597"/>
<rect x="342.053" y="720.202" width="15.7091" height="47.1273" transform="rotate(-15 342.053 720.202)" fill="#FD6597"/>
<rect x="322.814" y="709.094" width="15.7091" height="15.7091" transform="rotate(-15 322.814 709.094)" fill="#FD6597"/>
<rect x="339.077" y="769.789" width="15.7091" height="15.7091" transform="rotate(-15 339.077 769.789)" fill="#FD6597"/>
<rect x="307.64" y="713.16" width="15.7091" height="78.5455" transform="rotate(-15 307.64 713.16)" fill="#FD6597"/>
<rect x="641.464" y="623.712" width="15.7091" height="78.5455" transform="rotate(-15 641.464 623.712)" fill="#FD6597"/>
<rect x="671.812" y="615.58" width="15.7091" height="78.5455" transform="rotate(-15 671.812 615.58)" fill="#FD6597"/>
<rect x="702.159" y="607.449" width="15.7091" height="78.5455" transform="rotate(-15 702.159 607.449)" fill="#FD6597"/>
<rect x="732.507" y="599.317" width="15.7091" height="47.1273" transform="rotate(-15 732.507 599.317)" fill="#FD6597"/>
<rect x="626.29" y="627.778" width="15.7091" height="15.7091" transform="rotate(-15 626.29 627.778)" fill="#FD6597"/>
<rect x="642.553" y="688.473" width="15.7091" height="15.7091" transform="rotate(-15 642.553 688.473)" fill="#FD6597"/>
<rect x="775.052" y="636.707" width="15.7091" height="31.4182" transform="rotate(-15 775.052 636.707)" fill="#FD6597"/>
<rect x="793.202" y="583.054" width="15.7091" height="47.1273" transform="rotate(-15 793.202 583.054)" fill="#FD6597"/>
<rect x="809.466" y="643.749" width="15.7091" height="15.7091" transform="rotate(-15 809.466 643.749)" fill="#FD6597"/>
<rect x="755.812" y="625.599" width="31.4182" height="15.7091" transform="rotate(-15 755.812 625.599)" fill="#FD6597"/>
<rect x="748.77" y="660.012" width="31.4182" height="15.7091" transform="rotate(-15 748.77 660.012)" fill="#FD6597"/>
<rect x="747.681" y="595.251" width="31.4182" height="15.7091" transform="rotate(-15 747.681 595.251)" fill="#FD6597"/>
<rect x="703.249" y="672.21" width="15.7091" height="15.7091" transform="rotate(-15 703.249 672.21)" fill="#FD6597"/>
<rect x="99.7505" y="1795.26" width="1569.16" height="366.545" transform="rotate(-15 99.7505 1795.26)" fill="#A20024"/>
<rect x="671.842" y="1674.49" width="15.7091" height="78.5455" transform="rotate(-15 671.842 1674.49)" fill="#F0004F"/>
<rect x="702.19" y="1666.36" width="15.7091" height="78.5455" transform="rotate(-15 702.19 1666.36)" fill="#F0004F"/>
<rect x="732.537" y="1658.23" width="15.7091" height="78.5455" transform="rotate(-15 732.537 1658.23)" fill="#F0004F"/>
<rect x="762.885" y="1650.1" width="15.7091" height="78.5455" transform="rotate(-15 762.885 1650.1)" fill="#F0004F"/>
<rect x="793.233" y="1641.96" width="15.7091" height="78.5455" transform="rotate(-15 793.233 1641.96)" fill="#F0004F"/>
<rect x="853.928" y="1625.7" width="15.7091" height="78.5455" transform="rotate(-15 853.928 1625.7)" fill="#F0004F"/>
<rect x="914.623" y="1609.44" width="15.7091" height="78.5455" transform="rotate(-15 914.623 1609.44)" fill="#F0004F"/>
<rect x="975.318" y="1593.17" width="15.7091" height="78.5455" transform="rotate(-15 975.318 1593.17)" fill="#F0004F"/>
<rect x="1036.01" y="1576.91" width="15.7091" height="78.5455" transform="rotate(-15 1036.01 1576.91)" fill="#F0004F"/>
<rect x="1085.6" y="1579.89" width="15.7091" height="62.8364" transform="rotate(-15 1085.6 1579.89)" fill="#F0004F"/>
<rect x="1127.06" y="1552.52" width="15.7091" height="31.4182" transform="rotate(-15 1127.06 1552.52)" fill="#F0004F"/>
<rect x="1157.4" y="1544.38" width="15.7091" height="78.5455" transform="rotate(-15 1157.4 1544.38)" fill="#F0004F"/>
<rect x="944.971" y="1601.31" width="15.7091" height="31.4182" transform="rotate(-15 944.971 1601.31)" fill="#F0004F"/>
<rect x="957.168" y="1646.83" width="15.7091" height="31.4182" transform="rotate(-15 957.168 1646.83)" fill="#F0004F"/>
<rect x="827.646" y="1649.01" width="15.7091" height="47.1273" transform="rotate(-15 827.646 1649.01)" fill="#F0004F"/>
<rect x="703.279" y="1731.12" width="15.7091" height="15.7091" transform="rotate(-15 703.279 1731.12)" fill="#F0004F"/>
<rect x="747.711" y="1654.16" width="15.7091" height="15.7091" transform="rotate(-15 747.711 1654.16)" fill="#F0004F"/>
<rect x="808.406" y="1637.9" width="15.7091" height="15.7091" transform="rotate(-15 808.406 1637.9)" fill="#F0004F"/>
<rect x="929.797" y="1605.37" width="15.7091" height="15.7091" transform="rotate(-15 929.797 1605.37)" fill="#F0004F"/>
<rect x="937.928" y="1635.72" width="15.7091" height="15.7091" transform="rotate(-15 937.928 1635.72)" fill="#F0004F"/>
<rect x="869.102" y="1621.63" width="31.4182" height="15.7091" transform="rotate(-15 869.102 1621.63)" fill="#F0004F"/>
<rect x="990.492" y="1589.11" width="31.4182" height="15.7091" transform="rotate(-15 990.492 1589.11)" fill="#F0004F"/>
<rect x="1066.36" y="1568.78" width="47.1273" height="15.7091" transform="rotate(-15 1066.36 1568.78)" fill="#F0004F"/>
<rect x="1135.19" y="1582.86" width="31.4182" height="15.7091" transform="rotate(-15 1135.19 1582.86)" fill="#F0004F"/>
<rect x="1143.32" y="1613.21" width="31.4182" height="15.7091" transform="rotate(-15 1143.32 1613.21)" fill="#F0004F"/>
<rect x="1006.76" y="1649.8" width="31.4182" height="15.7091" transform="rotate(-15 1006.76 1649.8)" fill="#F0004F"/>
<rect x="885.365" y="1682.33" width="31.4182" height="15.7091" transform="rotate(-15 885.365 1682.33)" fill="#F0004F"/>
<rect x="877.233" y="1651.98" width="31.4182" height="15.7091" transform="rotate(-15 877.233 1651.98)" fill="#F0004F"/>
<rect x="824.67" y="1698.59" width="15.7091" height="15.7091" transform="rotate(-15 824.67 1698.59)" fill="#F0004F"/>
<rect x="504.93" y="1719.21" width="15.7091" height="78.5455" transform="rotate(-15 504.93 1719.21)" fill="#F0004F"/>
<rect x="554.517" y="1722.19" width="15.7091" height="62.8364" transform="rotate(-15 554.517 1722.19)" fill="#F0004F"/>
<rect x="595.973" y="1694.82" width="15.7091" height="31.4182" transform="rotate(-15 595.973 1694.82)" fill="#F0004F"/>
<rect x="626.321" y="1686.69" width="15.7091" height="78.5455" transform="rotate(-15 626.321 1686.69)" fill="#F0004F"/>
<rect x="459.408" y="1731.41" width="31.4182" height="15.7091" transform="rotate(-15 459.408 1731.41)" fill="#F0004F"/>
<rect x="535.278" y="1711.08" width="47.1273" height="15.7091" transform="rotate(-15 535.278 1711.08)" fill="#F0004F"/>
<rect x="604.104" y="1725.17" width="31.4182" height="15.7091" transform="rotate(-15 604.104 1725.17)" fill="#F0004F"/>
<rect x="1202.93" y="1532.19" width="15.7091" height="78.5455" transform="rotate(-15 1202.93 1532.19)" fill="#F0004F"/>
<rect x="1233.27" y="1524.06" width="15.7091" height="78.5455" transform="rotate(-15 1233.27 1524.06)" fill="#F0004F"/>
<rect x="1263.62" y="1515.92" width="15.7091" height="78.5455" transform="rotate(-15 1263.62 1515.92)" fill="#F0004F"/>
<rect x="1293.97" y="1507.79" width="15.7091" height="78.5455" transform="rotate(-15 1293.97 1507.79)" fill="#F0004F"/>
<rect x="1234.36" y="1588.82" width="15.7091" height="15.7091" transform="rotate(-15 1234.36 1588.82)" fill="#F0004F"/>
<rect x="1278.79" y="1511.86" width="15.7091" height="15.7091" transform="rotate(-15 1278.79 1511.86)" fill="#F0004F"/>
<path d="M-352.75 -136.281L1114.89 -529.535L1220.61 -135.016L-247.039 258.238L-352.75 -136.281Z" fill="#A20024"/>
<rect x="536.299" y="-65.4992" width="15.7091" height="78.5455" transform="rotate(-15 536.299 -65.4992)" fill="#F0004F"/>
<rect x="566.647" y="-73.6308" width="15.7091" height="78.5455" transform="rotate(-15 566.647 -73.6308)" fill="#F0004F"/>
<rect x="567.736" y="-8.86975" width="15.7091" height="15.7091" transform="rotate(-15 567.736 -8.86975)" fill="#F0004F"/>
<rect x="-9.95825" y="80.87" width="15.7091" height="78.5455" transform="rotate(-15 -9.95825 80.87)" fill="#F0004F"/>
<rect x="20.3894" y="72.7384" width="15.7091" height="78.5455" transform="rotate(-15 20.3894 72.7384)" fill="#F0004F"/>
<rect x="50.7371" y="64.6068" width="15.7091" height="78.5455" transform="rotate(-15 50.7371 64.6068)" fill="#F0004F"/>
<rect x="81.0845" y="56.4752" width="15.7091" height="78.5455" transform="rotate(-15 81.0845 56.4752)" fill="#F0004F"/>
<rect x="111.432" y="48.3435" width="15.7091" height="78.5455" transform="rotate(-15 111.432 48.3435)" fill="#F0004F"/>
<rect x="172.127" y="32.0803" width="15.7091" height="78.5455" transform="rotate(-15 172.127 32.0803)" fill="#F0004F"/>
<rect x="232.823" y="15.817" width="15.7091" height="78.5455" transform="rotate(-15 232.823 15.817)" fill="#F0004F"/>
<rect x="293.518" y="-0.446211" width="15.7091" height="78.5455" transform="rotate(-15 293.518 -0.446211)" fill="#F0004F"/>
<rect x="354.213" y="-16.7095" width="15.7091" height="78.5455" transform="rotate(-15 354.213 -16.7095)" fill="#F0004F"/>
<rect x="403.801" y="-13.7331" width="15.7091" height="62.8364" transform="rotate(-15 403.801 -13.7331)" fill="#F0004F"/>
<rect x="475.604" y="-49.2359" width="15.7091" height="78.5455" transform="rotate(-15 475.604 -49.2359)" fill="#F0004F"/>
<rect x="263.17" y="7.68542" width="15.7091" height="31.4182" transform="rotate(-15 263.17 7.68542)" fill="#F0004F"/>
<rect x="275.368" y="53.2069" width="15.7091" height="31.4182" transform="rotate(-15 275.368 53.2069)" fill="#F0004F"/>
<rect x="145.846" y="55.3857" width="15.7091" height="47.1273" transform="rotate(-15 145.846 55.3857)" fill="#F0004F"/>
<rect x="21.4788" y="137.499" width="15.7091" height="15.7091" transform="rotate(-15 21.4788 137.499)" fill="#F0004F"/>
<rect x="65.9109" y="60.541" width="15.7091" height="15.7091" transform="rotate(-15 65.9109 60.541)" fill="#F0004F"/>
<rect x="126.606" y="44.2777" width="15.7091" height="15.7091" transform="rotate(-15 126.606 44.2777)" fill="#F0004F"/>
<rect x="247.997" y="11.7512" width="15.7091" height="15.7091" transform="rotate(-15 247.997 11.7512)" fill="#F0004F"/>
<rect x="256.128" y="42.0989" width="15.7091" height="15.7091" transform="rotate(-15 256.128 42.0989)" fill="#F0004F"/>
<rect x="187.301" y="28.0145" width="31.4182" height="15.7091" transform="rotate(-15 187.301 28.0145)" fill="#F0004F"/>
<rect x="308.692" y="-4.51202" width="31.4182" height="15.7091" transform="rotate(-15 308.692 -4.51202)" fill="#F0004F"/>
<rect x="453.388" y="-10.7567" width="31.4182" height="15.7091" transform="rotate(-15 453.388 -10.7567)" fill="#F0004F"/>
<rect x="461.52" y="19.5909" width="31.4182" height="15.7091" transform="rotate(-15 461.52 19.5909)" fill="#F0004F"/>
<rect x="324.955" y="56.1832" width="31.4182" height="15.7091" transform="rotate(-15 324.955 56.1832)" fill="#F0004F"/>
<rect x="203.565" y="88.7097" width="31.4182" height="15.7091" transform="rotate(-15 203.565 88.7097)" fill="#F0004F"/>
<rect x="195.433" y="58.3621" width="31.4182" height="15.7091" transform="rotate(-15 195.433 58.3621)" fill="#F0004F"/>
<rect x="142.869" y="104.973" width="15.7091" height="15.7091" transform="rotate(-15 142.869 104.973)" fill="#F0004F"/>
</g>
<defs>
<clipPath id="clip0_14_2">
<rect width="1296" height="1728" fill="white"/>
</clipPath>
</defs>
</svg>
