<svg width="1296" height="1728" viewBox="0 0 1296 1728" fill="none" xmlns="http://www.w3.org/2000/svg">
<g clip-path="url(#clip0_1_5)">
<rect width="1296" height="1728" fill="#4A47FF"/>
<rect x="68.8999" y="375.93" width="62.8364" height="315.055" transform="rotate(-15 68.8999 375.93)" fill="#E8E9F5"/>
<rect x="194.875" y="603.29" width="125.673" height="62.8364" transform="rotate(-15 194.875 603.29)" fill="#E8E9F5"/>
<rect x="129.596" y="359.666" width="125.673" height="62.8364" transform="rotate(-15 129.596 359.666)" fill="#E8E9F5"/>
<mask id="mask0_1_5" style="mask-type:alpha" maskUnits="userSpaceOnUse" x="-354" y="391" width="445" height="403">
<rect x="-353.438" y="489.095" width="375.273" height="315.055" transform="rotate(-15 -353.438 489.095)" fill="#BFBDE0"/>
</mask>
<g mask="url(#mask0_1_5)">
<rect x="-230.301" y="591.224" width="436.364" height="23.5636" transform="rotate(-60 -230.301 591.224)" fill="#918FFF"/>
<rect x="-214.037" y="651.919" width="436.364" height="23.5636" transform="rotate(-60 -214.037 651.919)" fill="#918FFF"/>
<rect x="-197.774" y="712.614" width="436.364" height="23.5636" transform="rotate(-60 -197.774 712.614)" fill="#918FFF"/>
<rect x="-181.51" y="773.309" width="436.364" height="23.5636" transform="rotate(-60 -181.51 773.309)" fill="#918FFF"/>
<rect x="-165.247" y="834.005" width="436.364" height="23.5636" transform="rotate(-60 -165.247 834.005)" fill="#918FFF"/>
<rect x="-148.984" y="894.7" width="436.364" height="23.5636" transform="rotate(-60 -148.984 894.7)" fill="#918FFF"/>
<rect x="-132.721" y="955.395" width="436.364" height="23.5636" transform="rotate(-60 -132.721 955.395)" fill="#918FFF"/>
<rect x="-116.457" y="1016.09" width="436.364" height="23.5636" transform="rotate(-60 -116.457 1016.09)" fill="#918FFF"/>
</g>
<rect x="311.681" y="310.877" width="62.8364" height="315.055" transform="rotate(-15 311.681 310.877)" fill="#E8E9F5"/>
<rect x="433.072" y="278.35" width="62.8364" height="315.055" transform="rotate(-15 433.072 278.35)" fill="#E8E9F5"/>
<rect x="404.903" y="416.004" width="62.8364" height="62.8364" transform="rotate(-15 404.903 416.004)" fill="#E8E9F5"/>
<rect x="554.462" y="245.824" width="62.8364" height="315.055" transform="rotate(-15 554.462 245.824)" fill="#E8E9F5"/>
<rect x="615.157" y="229.56" width="125.673" height="62.8364" transform="rotate(-15 615.157 229.56)" fill="#E8E9F5"/>
<path d="M647.91 351.794L769.3 319.267L785.563 379.963L664.173 412.489L647.91 351.794Z" fill="#E8E9F5"/>
<path d="M680.436 473.184L801.826 440.658L818.089 501.353L696.699 533.88L680.436 473.184Z" fill="#E8E9F5"/>
<rect x="797.243" y="180.771" width="62.8364" height="315.055" transform="rotate(-15 797.243 180.771)" fill="#E8E9F5"/>
<rect x="857.938" y="164.507" width="125.673" height="62.8364" transform="rotate(-15 857.938 164.507)" fill="#E8E9F5"/>
<path d="M923.217 408.131L1044.61 375.605L1060.87 436.3L939.481 468.827L923.217 408.131Z" fill="#E8E9F5"/>
<rect x="1041.71" y="115.266" width="62.8364" height="315.055" transform="rotate(-15 1041.71 115.266)" fill="#E8E9F5"/>
<path d="M1163.1 82.7393L1223.8 66.476L1256.32 187.867L1195.63 204.13L1163.1 82.7393Z" fill="#E8E9F5"/>
<rect x="1211.89" y="264.825" width="62.8364" height="125.673" transform="rotate(-15 1211.89 264.825)" fill="#E8E9F5"/>
<rect x="1134.93" y="220.393" width="62.8364" height="62.8364" transform="rotate(-15 1134.93 220.393)" fill="#E8E9F5"/>
<rect x="118.962" y="822.404" width="62.8364" height="315.055" transform="rotate(-15 118.962 822.404)" fill="#E8E9F5"/>
<rect x="301.048" y="773.614" width="62.8364" height="62.8364" transform="rotate(-15 301.048 773.614)" fill="#E8E9F5"/>
<rect x="240.353" y="789.878" width="62.8364" height="315.055" transform="rotate(-15 240.353 789.878)" fill="#E8E9F5"/>
<rect x="361.744" y="757.351" width="62.8364" height="315.055" transform="rotate(-15 361.744 757.351)" fill="#E8E9F5"/>
<mask id="mask1_1_5" style="mask-type:alpha" maskUnits="userSpaceOnUse" x="-300" y="837" width="445" height="402">
<rect x="-299.161" y="934.44" width="375.273" height="315.055" transform="rotate(-15 -299.161 934.44)" fill="#BFBDE0"/>
</mask>
<g mask="url(#mask1_1_5)">
<rect x="-176.025" y="1036.57" width="436.364" height="23.5636" transform="rotate(-60 -176.025 1036.57)" fill="#918FFF"/>
<rect x="-192.288" y="975.873" width="436.364" height="23.5636" transform="rotate(-60 -192.288 975.873)" fill="#918FFF"/>
<rect x="-159.761" y="1097.26" width="436.364" height="23.5636" transform="rotate(-60 -159.761 1097.26)" fill="#918FFF"/>
<rect x="-143.498" y="1157.96" width="436.364" height="23.5636" transform="rotate(-60 -143.498 1157.96)" fill="#918FFF"/>
<rect x="-127.234" y="1218.65" width="436.364" height="23.5636" transform="rotate(-60 -127.234 1218.65)" fill="#918FFF"/>
<rect x="-110.971" y="1279.35" width="436.364" height="23.5636" transform="rotate(-60 -110.971 1279.35)" fill="#918FFF"/>
<rect x="-94.708" y="1340.04" width="436.364" height="23.5636" transform="rotate(-60 -94.708 1340.04)" fill="#918FFF"/>
<rect x="-78.4448" y="1400.74" width="436.364" height="23.5636" transform="rotate(-60 -78.4448 1400.74)" fill="#918FFF"/>
<rect x="-62.1816" y="1461.44" width="436.364" height="23.5636" transform="rotate(-60 -62.1816 1461.44)" fill="#918FFF"/>
</g>
<rect x="123.545" y="1787.03" width="1569.16" height="403.2" transform="rotate(-15 123.545 1787.03)" fill="#2A2756"/>
<rect x="695.638" y="1666.27" width="15.7091" height="78.5455" transform="rotate(-15 695.638 1666.27)" fill="#4A47FF"/>
<rect x="725.985" y="1658.14" width="15.7091" height="78.5455" transform="rotate(-15 725.985 1658.14)" fill="#4A47FF"/>
<rect x="756.333" y="1650" width="15.7091" height="78.5455" transform="rotate(-15 756.333 1650)" fill="#4A47FF"/>
<rect x="786.68" y="1641.87" width="15.7091" height="78.5455" transform="rotate(-15 786.68 1641.87)" fill="#4A47FF"/>
<rect x="817.028" y="1633.74" width="15.7091" height="78.5455" transform="rotate(-15 817.028 1633.74)" fill="#4A47FF"/>
<rect x="877.724" y="1617.48" width="15.7091" height="78.5455" transform="rotate(-15 877.724 1617.48)" fill="#4A47FF"/>
<rect x="938.418" y="1601.21" width="15.7091" height="78.5455" transform="rotate(-15 938.418 1601.21)" fill="#4A47FF"/>
<rect x="999.114" y="1584.95" width="15.7091" height="78.5455" transform="rotate(-15 999.114 1584.95)" fill="#4A47FF"/>
<rect x="1059.81" y="1568.69" width="15.7091" height="78.5455" transform="rotate(-15 1059.81 1568.69)" fill="#4A47FF"/>
<rect x="1109.4" y="1571.66" width="15.7091" height="62.8364" transform="rotate(-15 1109.4 1571.66)" fill="#4A47FF"/>
<rect x="1150.85" y="1544.29" width="15.7091" height="31.4182" transform="rotate(-15 1150.85 1544.29)" fill="#4A47FF"/>
<rect x="1181.2" y="1536.16" width="15.7091" height="78.5455" transform="rotate(-15 1181.2 1536.16)" fill="#4A47FF"/>
<rect x="968.766" y="1593.08" width="15.7091" height="31.4182" transform="rotate(-15 968.766 1593.08)" fill="#4A47FF"/>
<rect x="980.964" y="1638.6" width="15.7091" height="31.4182" transform="rotate(-15 980.964 1638.6)" fill="#4A47FF"/>
<rect x="851.441" y="1640.78" width="15.7091" height="47.1273" transform="rotate(-15 851.441 1640.78)" fill="#4A47FF"/>
<rect x="727.075" y="1722.9" width="15.7091" height="15.7091" transform="rotate(-15 727.075 1722.9)" fill="#4A47FF"/>
<rect x="771.507" y="1645.94" width="15.7091" height="15.7091" transform="rotate(-15 771.507 1645.94)" fill="#4A47FF"/>
<rect x="832.202" y="1629.67" width="15.7091" height="15.7091" transform="rotate(-15 832.202 1629.67)" fill="#4A47FF"/>
<rect x="953.593" y="1597.15" width="15.7091" height="15.7091" transform="rotate(-15 953.593 1597.15)" fill="#4A47FF"/>
<rect x="961.724" y="1627.5" width="15.7091" height="15.7091" transform="rotate(-15 961.724 1627.5)" fill="#4A47FF"/>
<rect x="892.897" y="1613.41" width="31.4182" height="15.7091" transform="rotate(-15 892.897 1613.41)" fill="#4A47FF"/>
<rect x="1014.29" y="1580.88" width="31.4182" height="15.7091" transform="rotate(-15 1014.29 1580.88)" fill="#4A47FF"/>
<rect x="1090.16" y="1560.56" width="47.1273" height="15.7091" transform="rotate(-15 1090.16 1560.56)" fill="#4A47FF"/>
<rect x="1158.98" y="1574.64" width="31.4182" height="15.7091" transform="rotate(-15 1158.98 1574.64)" fill="#4A47FF"/>
<rect x="1167.12" y="1604.99" width="31.4182" height="15.7091" transform="rotate(-15 1167.12 1604.99)" fill="#4A47FF"/>
<rect x="1030.55" y="1641.58" width="31.4182" height="15.7091" transform="rotate(-15 1030.55 1641.58)" fill="#4A47FF"/>
<rect x="909.16" y="1674.11" width="31.4182" height="15.7091" transform="rotate(-15 909.16 1674.11)" fill="#4A47FF"/>
<rect x="901.029" y="1643.76" width="31.4182" height="15.7091" transform="rotate(-15 901.029 1643.76)" fill="#4A47FF"/>
<rect x="848.465" y="1690.37" width="15.7091" height="15.7091" transform="rotate(-15 848.465 1690.37)" fill="#4A47FF"/>
<rect x="452.856" y="1731.32" width="15.7091" height="78.5455" transform="rotate(-15 452.856 1731.32)" fill="#4A47FF"/>
<rect x="513.551" y="1715.06" width="15.7091" height="78.5455" transform="rotate(-15 513.551 1715.06)" fill="#4A47FF"/>
<rect x="563.139" y="1718.03" width="15.7091" height="62.8364" transform="rotate(-15 563.139 1718.03)" fill="#4A47FF"/>
<rect x="604.594" y="1690.66" width="15.7091" height="31.4182" transform="rotate(-15 604.594 1690.66)" fill="#4A47FF"/>
<rect x="634.941" y="1682.53" width="15.7091" height="78.5455" transform="rotate(-15 634.941 1682.53)" fill="#4A47FF"/>
<rect x="468.03" y="1727.25" width="31.4182" height="15.7091" transform="rotate(-15 468.03 1727.25)" fill="#4A47FF"/>
<rect x="543.898" y="1706.93" width="47.1273" height="15.7091" transform="rotate(-15 543.898 1706.93)" fill="#4A47FF"/>
<rect x="612.726" y="1721.01" width="31.4182" height="15.7091" transform="rotate(-15 612.726 1721.01)" fill="#4A47FF"/>
<rect x="1241.9" y="1519.9" width="15.7091" height="78.5455" transform="rotate(-15 1241.9 1519.9)" fill="#4A47FF"/>
<rect x="1272.24" y="1511.77" width="15.7091" height="78.5455" transform="rotate(-15 1272.24 1511.77)" fill="#4A47FF"/>
<rect x="1273.33" y="1576.53" width="15.7091" height="15.7091" transform="rotate(-15 1273.33 1576.53)" fill="#4A47FF"/>
<path d="M-375.306 19.706L1092.34 -373.548L1158.3 -127.395L-309.35 265.859L-375.306 19.706Z" fill="#2A2756"/>
<rect x="94.6431" y="43.7667" width="15.7091" height="78.5455" transform="rotate(-15 94.6431 43.7667)" fill="#4A47FF"/>
<rect x="124.991" y="35.635" width="15.7091" height="78.5455" transform="rotate(-15 124.991 35.635)" fill="#4A47FF"/>
<rect x="155.338" y="27.5034" width="15.7091" height="78.5455" transform="rotate(-15 155.338 27.5034)" fill="#4A47FF"/>
<rect x="185.686" y="19.3718" width="15.7091" height="78.5455" transform="rotate(-15 185.686 19.3718)" fill="#4A47FF"/>
<rect x="216.034" y="11.2402" width="15.7091" height="78.5455" transform="rotate(-15 216.034 11.2402)" fill="#4A47FF"/>
<rect x="276.729" y="-5.02314" width="15.7091" height="78.5455" transform="rotate(-15 276.729 -5.02314)" fill="#4A47FF"/>
<rect x="337.424" y="-21.2863" width="15.7091" height="78.5455" transform="rotate(-15 337.424 -21.2863)" fill="#4A47FF"/>
<rect x="398.12" y="-37.5496" width="15.7091" height="78.5455" transform="rotate(-15 398.12 -37.5496)" fill="#4A47FF"/>
<rect x="458.814" y="-53.8128" width="15.7091" height="78.5455" transform="rotate(-15 458.814 -53.8128)" fill="#4A47FF"/>
<rect x="508.402" y="-50.8365" width="15.7091" height="62.8364" transform="rotate(-15 508.402 -50.8365)" fill="#4A47FF"/>
<rect x="367.772" y="-29.418" width="15.7091" height="31.4182" transform="rotate(-15 367.772 -29.418)" fill="#4A47FF"/>
<rect x="379.969" y="16.1034" width="15.7091" height="31.4182" transform="rotate(-15 379.969 16.1034)" fill="#4A47FF"/>
<rect x="250.447" y="18.2823" width="15.7091" height="47.1273" transform="rotate(-15 250.447 18.2823)" fill="#4A47FF"/>
<rect x="126.08" y="100.396" width="15.7091" height="15.7091" transform="rotate(-15 126.08 100.396)" fill="#4A47FF"/>
<rect x="170.512" y="23.4377" width="15.7091" height="15.7091" transform="rotate(-15 170.512 23.4377)" fill="#4A47FF"/>
<rect x="231.208" y="7.17435" width="15.7091" height="15.7091" transform="rotate(-15 231.208 7.17435)" fill="#4A47FF"/>
<rect x="360.73" y="4.99542" width="15.7091" height="15.7091" transform="rotate(-15 360.73 4.99542)" fill="#4A47FF"/>
<rect x="291.902" y="-9.08896" width="31.4182" height="15.7091" transform="rotate(-15 291.902 -9.08896)" fill="#4A47FF"/>
<rect x="429.557" y="19.0799" width="31.4182" height="15.7091" transform="rotate(-15 429.557 19.0799)" fill="#4A47FF"/>
<rect x="308.166" y="51.6064" width="31.4182" height="15.7091" transform="rotate(-15 308.166 51.6064)" fill="#4A47FF"/>
<rect x="300.035" y="21.2588" width="31.4182" height="15.7091" transform="rotate(-15 300.035 21.2588)" fill="#4A47FF"/>
<rect x="247.471" y="67.8696" width="15.7091" height="15.7091" transform="rotate(-15 247.471 67.8696)" fill="#4A47FF"/>
<rect x="3.59912" y="68.1621" width="15.7091" height="31.4182" transform="rotate(-15 3.59912 68.1621)" fill="#4A47FF"/>
<rect x="33.9468" y="60.0306" width="15.7091" height="78.5455" transform="rotate(-15 33.9468 60.0306)" fill="#4A47FF"/>
<rect x="11.7314" y="98.5098" width="31.4182" height="15.7091" transform="rotate(-15 11.7314 98.5098)" fill="#4A47FF"/>
<rect x="19.8623" y="128.857" width="31.4182" height="15.7091" transform="rotate(-15 19.8623 128.857)" fill="#4A47FF"/>
<rect x="528.655" y="712.627" width="109.964" height="109.964" transform="rotate(-15 528.655 712.627)" fill="#2A2756"/>
<rect x="578.242" y="715.604" width="15.7091" height="78.5455" transform="rotate(-15 578.242 715.604)" fill="#918FFF"/>
<rect x="665.219" y="676.035" width="15.7091" height="78.5455" transform="rotate(-15 665.219 676.035)" fill="#E8E9F5"/>
<rect x="693.679" y="782.252" width="31.4182" height="62.8364" transform="rotate(-15 693.679 782.252)" fill="#E8E9F5"/>
<rect x="770.638" y="826.684" width="31.4182" height="94.2546" transform="rotate(-15 770.638 826.684)" fill="#E8E9F5"/>
<rect x="815.07" y="749.725" width="31.4182" height="157.091" transform="rotate(-15 815.07 749.725)" fill="#E8E9F5"/>
<rect x="892.029" y="794.157" width="31.4182" height="62.8364" transform="rotate(-15 892.029 794.157)" fill="#E8E9F5"/>
<rect x="936.461" y="717.199" width="31.4182" height="157.091" transform="rotate(-15 936.461 717.199)" fill="#E8E9F5"/>
<rect x="997.156" y="700.936" width="31.4182" height="157.091" transform="rotate(-15 997.156 700.936)" fill="#E8E9F5"/>
<rect x="1057.85" y="684.672" width="31.4182" height="157.091" transform="rotate(-15 1057.85 684.672)" fill="#E8E9F5"/>
<rect x="1118.55" y="668.409" width="31.4182" height="157.091" transform="rotate(-15 1118.55 668.409)" fill="#E8E9F5"/>
<rect x="1195.51" y="712.841" width="31.4182" height="94.2546" transform="rotate(-15 1195.51 712.841)" fill="#E8E9F5"/>
<rect x="1148.89" y="660.277" width="62.8364" height="31.4182" transform="rotate(-15 1148.89 660.277)" fill="#E8E9F5"/>
<rect x="1181.42" y="781.668" width="31.4182" height="31.4182" transform="rotate(-15 1181.42 781.668)" fill="#E8E9F5"/>
<rect x="724.027" y="774.12" width="62.8364" height="31.4182" transform="rotate(-15 724.027 774.12)" fill="#E8E9F5"/>
<rect x="709.943" y="842.947" width="62.8364" height="31.4182" transform="rotate(-15 709.943 842.947)" fill="#E8E9F5"/>
<rect x="726.207" y="903.642" width="62.8364" height="31.4182" transform="rotate(-15 726.207 903.642)" fill="#E8E9F5"/>
<rect x="877.944" y="862.984" width="31.4182" height="31.4182" transform="rotate(-15 877.944 862.984)" fill="#E8E9F5"/>
<rect x="938.64" y="846.721" width="31.4182" height="31.4182" transform="rotate(-15 938.64 846.721)" fill="#E8E9F5"/>
<rect x="1027.5" y="692.804" width="31.4182" height="31.4182" transform="rotate(-15 1027.5 692.804)" fill="#E8E9F5"/>
<rect x="1043.77" y="753.499" width="31.4182" height="31.4182" transform="rotate(-15 1043.77 753.499)" fill="#E8E9F5"/>
<rect x="725.915" y="659.772" width="15.7091" height="78.5455" transform="rotate(-15 725.915 659.772)" fill="#E8E9F5"/>
<rect x="805.849" y="654.617" width="15.7091" height="62.8364" transform="rotate(-15 805.849 654.617)" fill="#E8E9F5"/>
<rect x="877.652" y="619.114" width="15.7091" height="47.1273" transform="rotate(-15 877.652 619.114)" fill="#E8E9F5"/>
<rect x="900.958" y="645.396" width="15.7091" height="15.7091" transform="rotate(-15 900.958 645.396)" fill="#E8E9F5"/>
<rect x="953.521" y="598.785" width="15.7091" height="15.7091" transform="rotate(-15 953.521 598.785)" fill="#E8E9F5"/>
<rect x="969.785" y="659.48" width="15.7091" height="15.7091" transform="rotate(-15 969.785 659.48)" fill="#E8E9F5"/>
<rect x="1030.48" y="643.217" width="15.7091" height="15.7091" transform="rotate(-15 1030.48 643.217)" fill="#E8E9F5"/>
<rect x="1083.04" y="596.606" width="15.7091" height="15.7091" transform="rotate(-15 1083.04 596.606)" fill="#E8E9F5"/>
<rect x="1074.91" y="566.258" width="15.7091" height="15.7091" transform="rotate(-15 1074.91 566.258)" fill="#E8E9F5"/>
<rect x="893.916" y="679.809" width="31.4182" height="15.7091" transform="rotate(-15 893.916 679.809)" fill="#E8E9F5"/>
<rect x="908" y="610.982" width="15.7091" height="78.5455" transform="rotate(-15 908 610.982)" fill="#E8E9F5"/>
<rect x="938.348" y="602.85" width="15.7091" height="78.5455" transform="rotate(-15 938.348 602.85)" fill="#E8E9F5"/>
<rect x="968.695" y="594.719" width="15.7091" height="78.5455" transform="rotate(-15 968.695 594.719)" fill="#E8E9F5"/>
<rect x="999.043" y="586.587" width="15.7091" height="78.5455" transform="rotate(-15 999.043 586.587)" fill="#E8E9F5"/>
<rect x="1029.39" y="578.456" width="15.7091" height="78.5455" transform="rotate(-15 1029.39 578.456)" fill="#E8E9F5"/>
<rect x="1059.74" y="570.324" width="15.7091" height="78.5455" transform="rotate(-15 1059.74 570.324)" fill="#E8E9F5"/>
<rect x="1090.09" y="562.192" width="15.7091" height="31.4182" transform="rotate(-15 1090.09 562.192)" fill="#E8E9F5"/>
<rect x="1102.28" y="607.714" width="15.7091" height="31.4182" transform="rotate(-15 1102.28 607.714)" fill="#E8E9F5"/>
<rect x="680.393" y="671.969" width="31.4182" height="15.7091" transform="rotate(-15 680.393 671.969)" fill="#E8E9F5"/>
<rect x="741.088" y="655.706" width="31.4182" height="15.7091" transform="rotate(-15 741.088 655.706)" fill="#E8E9F5"/>
<rect x="786.609" y="643.509" width="47.1273" height="15.7091" transform="rotate(-15 786.609 643.509)" fill="#E8E9F5"/>
<rect x="749.22" y="686.054" width="31.4182" height="15.7091" transform="rotate(-15 749.22 686.054)" fill="#E8E9F5"/>
<rect x="757.352" y="716.401" width="31.4182" height="15.7091" transform="rotate(-15 757.352 716.401)" fill="#E8E9F5"/>
<rect x="696.656" y="732.664" width="31.4182" height="15.7091" transform="rotate(-15 696.656 732.664)" fill="#E8E9F5"/>
<rect x="703.698" y="698.251" width="15.7091" height="31.4182" transform="rotate(-15 703.698 698.251)" fill="#E8E9F5"/>
<rect x="1074.43" y="1141.03" width="90.7636" height="315.055" transform="rotate(-15 1074.43 1141.03)" fill="#E8E9F5"/>
<rect x="1222.79" y="1101.27" width="207.709" height="315.055" transform="rotate(-15 1222.79 1101.27)" fill="#918FFF"/>
<rect x="939.327" y="1503.4" width="90.7636" height="315.055" transform="rotate(-105 939.327 1503.4)" fill="#E8E9F5"/>
<rect x="874.386" y="1261.04" width="64.1455" height="64.1455" transform="rotate(-105 874.386 1261.04)" fill="#E8E9F5"/>
<rect x="874.382" y="1261.07" width="90.7636" height="354.902" transform="rotate(-60 874.382 1261.07)" fill="#E8E9F5"/>
<rect x="38.3857" y="1418.63" width="109.964" height="109.964" transform="rotate(-15 38.3857 1418.63)" fill="#2A2756"/>
<rect x="72.7983" y="1425.67" width="47.1273" height="15.7091" transform="rotate(-15 72.7983 1425.67)" fill="#918FFF"/>
<rect x="174.95" y="1382.04" width="15.7091" height="78.5455" transform="rotate(-15 174.95 1382.04)" fill="#E8E9F5"/>
<rect x="296.341" y="1349.51" width="15.7091" height="78.5455" transform="rotate(-15 296.341 1349.51)" fill="#E8E9F5"/>
<rect x="357.035" y="1333.25" width="15.7091" height="78.5455" transform="rotate(-15 357.035 1333.25)" fill="#E8E9F5"/>
<rect x="417.731" y="1316.98" width="15.7091" height="78.5455" transform="rotate(-15 417.731 1316.98)" fill="#E8E9F5"/>
<rect x="448.079" y="1308.85" width="15.7091" height="78.5455" transform="rotate(-15 448.079 1308.85)" fill="#E8E9F5"/>
<rect x="478.426" y="1300.72" width="15.7091" height="78.5455" transform="rotate(-15 478.426 1300.72)" fill="#E8E9F5"/>
<rect x="539.122" y="1284.46" width="15.7091" height="78.5455" transform="rotate(-15 539.122 1284.46)" fill="#E8E9F5"/>
<rect x="751.556" y="1227.54" width="15.7091" height="78.5455" transform="rotate(-15 751.556 1227.54)" fill="#E8E9F5"/>
<rect x="649.404" y="1271.17" width="15.7091" height="62.8364" transform="rotate(-15 649.404 1271.17)" fill="#E8E9F5"/>
<rect x="690.859" y="1243.8" width="15.7091" height="78.5455" transform="rotate(-15 690.859 1243.8)" fill="#E8E9F5"/>
<rect x="721.207" y="1235.67" width="15.7091" height="78.5455" transform="rotate(-15 721.207 1235.67)" fill="#E8E9F5"/>
<rect x="630.165" y="1260.06" width="47.1273" height="15.7091" transform="rotate(-15 630.165 1260.06)" fill="#E8E9F5"/>
<rect x="714.165" y="1270.08" width="15.7091" height="15.7091" transform="rotate(-15 714.165 1270.08)" fill="#E8E9F5"/>
<rect x="235.645" y="1365.77" width="15.7091" height="31.4182" transform="rotate(-15 235.645 1365.77)" fill="#E8E9F5"/>
<rect x="247.843" y="1411.3" width="15.7091" height="31.4182" transform="rotate(-15 247.843 1411.3)" fill="#E8E9F5"/>
<rect x="258.95" y="1392.06" width="15.7091" height="15.7091" transform="rotate(-15 258.95 1392.06)" fill="#E8E9F5"/>
<rect x="265.992" y="1357.64" width="15.7091" height="31.4182" transform="rotate(-15 265.992 1357.64)" fill="#E8E9F5"/>
<rect x="311.514" y="1345.44" width="31.4182" height="15.7091" transform="rotate(-15 311.514 1345.44)" fill="#E8E9F5"/>
<rect x="319.646" y="1375.79" width="31.4182" height="15.7091" transform="rotate(-15 319.646 1375.79)" fill="#E8E9F5"/>
<rect x="388.473" y="1389.88" width="31.4182" height="15.7091" transform="rotate(-15 388.473 1389.88)" fill="#E8E9F5"/>
<rect x="449.167" y="1373.61" width="15.7091" height="15.7091" transform="rotate(-15 449.167 1373.61)" fill="#E8E9F5"/>
<rect x="432.904" y="1312.92" width="15.7091" height="15.7091" transform="rotate(-15 432.904 1312.92)" fill="#E8E9F5"/>
<rect x="493.6" y="1296.65" width="15.7091" height="15.7091" transform="rotate(-15 493.6 1296.65)" fill="#E8E9F5"/>
<rect x="554.295" y="1280.39" width="31.4182" height="15.7091" transform="rotate(-15 554.295 1280.39)" fill="#E8E9F5"/>
<rect x="766.728" y="1223.47" width="31.4182" height="15.7091" transform="rotate(-15 766.728 1223.47)" fill="#E8E9F5"/>
<rect x="562.427" y="1310.74" width="31.4182" height="15.7091" transform="rotate(-15 562.427 1310.74)" fill="#E8E9F5"/>
<rect x="774.861" y="1253.82" width="31.4182" height="15.7091" transform="rotate(-15 774.861 1253.82)" fill="#E8E9F5"/>
<rect x="570.559" y="1341.09" width="31.4182" height="15.7091" transform="rotate(-15 570.559 1341.09)" fill="#E8E9F5"/>
<rect x="782.991" y="1284.17" width="31.4182" height="15.7091" transform="rotate(-15 782.991 1284.17)" fill="#E8E9F5"/>
<rect x="501.731" y="1327" width="15.7091" height="15.7091" transform="rotate(-15 501.731 1327)" fill="#E8E9F5"/>
<rect x="520.971" y="1338.11" width="15.7091" height="31.4182" transform="rotate(-15 520.971 1338.11)" fill="#E8E9F5"/>
<rect x="508.774" y="1292.59" width="15.7091" height="31.4182" transform="rotate(-15 508.774 1292.59)" fill="#E8E9F5"/>
<rect x="330.754" y="1356.55" width="15.7091" height="15.7091" transform="rotate(-15 330.754 1356.55)" fill="#E8E9F5"/>
<rect x="278.19" y="1403.16" width="15.7091" height="31.4182" transform="rotate(-15 278.19 1403.16)" fill="#E8E9F5"/>
<rect x="190.124" y="1377.97" width="31.4182" height="15.7091" transform="rotate(-15 190.124 1377.97)" fill="#E8E9F5"/>
<rect x="198.255" y="1408.32" width="31.4182" height="15.7091" transform="rotate(-15 198.255 1408.32)" fill="#E8E9F5"/>
<rect x="206.386" y="1438.67" width="31.4182" height="15.7091" transform="rotate(-15 206.386 1438.67)" fill="#E8E9F5"/>
<rect x="261.355" y="1522.42" width="31.4182" height="125.673" transform="rotate(-15 261.355 1522.42)" fill="#E8E9F5"/>
<rect x="-296.705" y="1671.95" width="514.909" height="157.091" transform="rotate(-15 -296.705 1671.95)" fill="#918FFF"/>
<rect x="-489.327" y="1560.03" width="514.909" height="109.964" transform="rotate(-15 -489.327 1560.03)" fill="#918FFF"/>
<rect x="382.746" y="1489.89" width="31.4182" height="157.091" transform="rotate(-15 382.746 1489.89)" fill="#E8E9F5"/>
<rect x="746.917" y="1392.31" width="31.4182" height="157.091" transform="rotate(-15 746.917 1392.31)" fill="#E8E9F5"/>
<rect x="504.136" y="1457.37" width="31.4182" height="157.091" transform="rotate(-15 504.136 1457.37)" fill="#E8E9F5"/>
<rect x="625.527" y="1424.84" width="31.4182" height="157.091" transform="rotate(-15 625.527 1424.84)" fill="#E8E9F5"/>
<rect x="564.831" y="1441.1" width="31.4182" height="157.091" transform="rotate(-15 564.831 1441.1)" fill="#E8E9F5"/>
<rect x="686.222" y="1408.58" width="31.4182" height="157.091" transform="rotate(-15 686.222 1408.58)" fill="#E8E9F5"/>
<rect x="413.093" y="1481.76" width="62.8364" height="31.4182" transform="rotate(-15 413.093 1481.76)" fill="#E8E9F5"/>
<rect x="777.265" y="1384.18" width="62.8364" height="31.4182" transform="rotate(-15 777.265 1384.18)" fill="#E8E9F5"/>
<rect x="534.484" y="1449.24" width="31.4182" height="31.4182" transform="rotate(-15 534.484 1449.24)" fill="#E8E9F5"/>
<rect x="445.619" y="1603.15" width="62.8364" height="31.4182" transform="rotate(-15 445.619 1603.15)" fill="#E8E9F5"/>
<rect x="809.791" y="1505.57" width="62.8364" height="31.4182" transform="rotate(-15 809.791 1505.57)" fill="#E8E9F5"/>
<rect x="429.356" y="1542.46" width="62.8364" height="31.4182" transform="rotate(-15 429.356 1542.46)" fill="#E8E9F5"/>
<rect x="793.528" y="1444.88" width="62.8364" height="31.4182" transform="rotate(-15 793.528 1444.88)" fill="#E8E9F5"/>
<rect x="688.4" y="1538.1" width="31.4182" height="31.4182" transform="rotate(-15 688.4 1538.1)" fill="#E8E9F5"/>
<rect x="322.05" y="1506.16" width="31.4182" height="125.673" transform="rotate(-15 322.05 1506.16)" fill="#E8E9F5"/>
<rect x="324.229" y="1635.68" width="31.4182" height="31.4182" transform="rotate(-15 324.229 1635.68)" fill="#E8E9F5"/>
<rect x="107.212" y="1432.71" width="15.7091" height="15.7091" transform="rotate(-15 107.212 1432.71)" fill="#918FFF"/>
<rect x="80.9307" y="1456.02" width="47.1273" height="15.7091" transform="rotate(-15 80.9307 1456.02)" fill="#918FFF"/>
<rect x="84.9961" y="1471.19" width="15.7091" height="15.7091" transform="rotate(-15 84.9961 1471.19)" fill="#918FFF"/>
<rect x="89.062" y="1486.37" width="47.1273" height="15.7091" transform="rotate(-15 89.062 1486.37)" fill="#918FFF"/>
<mask id="mask2_1_5" style="mask-type:alpha" maskUnits="userSpaceOnUse" x="-254" y="929" width="1701" height="485">
<rect x="-253.089" y="1382.89" width="1751.56" height="31.4182" transform="rotate(-15 -253.089 1382.89)" fill="#C2AAAA"/>
</mask>
<g mask="url(#mask2_1_5)">
<rect x="140.446" y="1255.94" width="23.5636" height="130.909" transform="rotate(30 140.446 1255.94)" fill="#918FFF"/>
<rect x="79.7485" y="1272.2" width="23.5636" height="130.909" transform="rotate(30 79.7485 1272.2)" fill="#918FFF"/>
<rect x="19.0508" y="1288.46" width="23.5636" height="130.909" transform="rotate(30 19.0508 1288.46)" fill="#918FFF"/>
<rect x="140.446" y="1255.94" width="23.5636" height="130.909" transform="rotate(30 140.446 1255.94)" fill="#918FFF"/>
<rect x="79.752" y="1272.2" width="23.5636" height="130.909" transform="rotate(30 79.752 1272.2)" fill="#918FFF"/>
<rect x="19.0571" y="1288.46" width="23.5636" height="130.909" transform="rotate(30 19.0571 1288.46)" fill="#918FFF"/>
<rect x="201.142" y="1239.67" width="23.5636" height="130.909" transform="rotate(30 201.142 1239.67)" fill="#918FFF"/>
<rect x="261.837" y="1223.41" width="23.5636" height="130.909" transform="rotate(30 261.837 1223.41)" fill="#918FFF"/>
<rect x="322.533" y="1207.15" width="23.5636" height="130.909" transform="rotate(30 322.533 1207.15)" fill="#918FFF"/>
<rect x="383.227" y="1190.88" width="23.5636" height="130.909" transform="rotate(30 383.227 1190.88)" fill="#918FFF"/>
<rect x="443.923" y="1174.62" width="23.5636" height="130.909" transform="rotate(30 443.923 1174.62)" fill="#918FFF"/>
<rect x="504.618" y="1158.36" width="23.5636" height="130.909" transform="rotate(30 504.618 1158.36)" fill="#918FFF"/>
<rect x="565.313" y="1142.09" width="23.5636" height="130.909" transform="rotate(30 565.313 1142.09)" fill="#918FFF"/>
<rect x="626.009" y="1125.83" width="23.5636" height="130.909" transform="rotate(30 626.009 1125.83)" fill="#918FFF"/>
<rect x="686.704" y="1109.57" width="23.5636" height="130.909" transform="rotate(30 686.704 1109.57)" fill="#918FFF"/>
<rect x="747.399" y="1093.3" width="23.5636" height="130.909" transform="rotate(30 747.399 1093.3)" fill="#918FFF"/>
<rect x="808.094" y="1077.04" width="23.5636" height="130.909" transform="rotate(30 808.094 1077.04)" fill="#918FFF"/>
<rect x="868.79" y="1060.78" width="23.5636" height="130.909" transform="rotate(30 868.79 1060.78)" fill="#918FFF"/>
<rect x="929.484" y="1044.51" width="23.5636" height="130.909" transform="rotate(30 929.484 1044.51)" fill="#918FFF"/>
<rect x="990.18" y="1028.25" width="23.5636" height="130.909" transform="rotate(30 990.18 1028.25)" fill="#918FFF"/>
<rect x="1050.88" y="1011.99" width="23.5636" height="130.909" transform="rotate(30 1050.88 1011.99)" fill="#918FFF"/>
<rect x="1111.57" y="995.723" width="23.5636" height="130.909" transform="rotate(30 1111.57 995.723)" fill="#918FFF"/>
<rect x="1172.27" y="979.46" width="23.5636" height="130.909" transform="rotate(30 1172.27 979.46)" fill="#918FFF"/>
<rect x="1232.96" y="963.197" width="23.5636" height="130.909" transform="rotate(30 1232.96 963.197)" fill="#918FFF"/>
<rect x="1293.66" y="946.934" width="23.5636" height="130.909" transform="rotate(30 1293.66 946.934)" fill="#918FFF"/>
<rect x="1354.35" y="930.67" width="23.5636" height="130.909" transform="rotate(30 1354.35 930.67)" fill="#918FFF"/>
</g>
<rect x="828.093" y="26.1355" width="491.345" height="78.5455" transform="rotate(-15 828.093 26.1355)" fill="#918FFF"/>
<rect x="629.147" y="79.4427" width="15.7091" height="78.5455" transform="rotate(-15 629.147 79.4427)" fill="#918FFF"/>
<rect x="689.843" y="63.1792" width="15.7091" height="78.5455" transform="rotate(-15 689.843 63.1792)" fill="#918FFF"/>
<rect x="720.19" y="55.0477" width="15.7091" height="78.5455" transform="rotate(-15 720.19 55.0477)" fill="#918FFF"/>
<rect x="750.539" y="46.9161" width="15.7091" height="78.5455" transform="rotate(-15 750.539 46.9161)" fill="#918FFF"/>
<rect x="644.321" y="75.3768" width="31.4182" height="15.7091" transform="rotate(-15 644.321 75.3768)" fill="#918FFF"/>
<rect x="652.454" y="105.725" width="31.4182" height="15.7091" transform="rotate(-15 652.454 105.725)" fill="#918FFF"/>
<rect x="705.017" y="59.1135" width="15.7091" height="15.7091" transform="rotate(-15 705.017 59.1135)" fill="#918FFF"/>
<rect x="780.886" y="38.7845" width="15.7091" height="31.4182" transform="rotate(-15 780.886 38.7845)" fill="#918FFF"/>
<rect x="793.083" y="84.3063" width="15.7091" height="31.4182" transform="rotate(-15 793.083 84.3063)" fill="#918FFF"/>
<rect x="773.843" y="73.1982" width="15.7091" height="15.7091" transform="rotate(-15 773.843 73.1982)" fill="#918FFF"/>
<rect x="765.712" y="42.8504" width="15.7091" height="15.7091" transform="rotate(-15 765.712 42.8504)" fill="#918FFF"/>
<rect x="721.28" y="119.809" width="15.7091" height="15.7091" transform="rotate(-15 721.28 119.809)" fill="#918FFF"/>
<rect x="386.366" y="144.496" width="15.7091" height="78.5455" transform="rotate(-15 386.366 144.496)" fill="#918FFF"/>
<rect x="447.062" y="128.232" width="15.7091" height="78.5455" transform="rotate(-15 447.062 128.232)" fill="#918FFF"/>
<rect x="477.41" y="120.101" width="15.7091" height="78.5455" transform="rotate(-15 477.41 120.101)" fill="#918FFF"/>
<rect x="538.104" y="103.838" width="15.7091" height="47.1273" transform="rotate(-15 538.104 103.838)" fill="#918FFF"/>
<rect x="568.453" y="95.7058" width="15.7091" height="78.5455" transform="rotate(-15 568.453 95.7058)" fill="#918FFF"/>
<rect x="507.757" y="111.969" width="15.7091" height="78.5455" transform="rotate(-15 507.757 111.969)" fill="#918FFF"/>
<rect x="424.846" y="166.712" width="15.7091" height="31.4182" transform="rotate(-15 424.846 166.712)" fill="#918FFF"/>
<rect x="417.804" y="201.125" width="15.7091" height="15.7091" transform="rotate(-15 417.804 201.125)" fill="#918FFF"/>
<rect x="448.151" y="192.993" width="15.7091" height="15.7091" transform="rotate(-15 448.151 192.993)" fill="#918FFF"/>
<rect x="492.583" y="116.035" width="15.7091" height="15.7091" transform="rotate(-15 492.583 116.035)" fill="#918FFF"/>
<rect x="500.715" y="146.383" width="15.7091" height="15.7091" transform="rotate(-15 500.715 146.383)" fill="#918FFF"/>
<rect x="561.41" y="130.119" width="15.7091" height="15.7091" transform="rotate(-15 561.41 130.119)" fill="#918FFF"/>
<rect x="554.368" y="164.533" width="31.4182" height="15.7091" transform="rotate(-15 554.368 164.533)" fill="#918FFF"/>
<rect x="162.825" y="220.657" width="15.7091" height="62.8364" transform="rotate(-15 162.825 220.657)" fill="#918FFF"/>
<rect x="264.976" y="177.022" width="15.7091" height="78.5455" transform="rotate(-15 264.976 177.022)" fill="#918FFF"/>
<rect x="204.281" y="193.285" width="15.7091" height="78.5455" transform="rotate(-15 204.281 193.285)" fill="#918FFF"/>
<rect x="234.628" y="185.154" width="15.7091" height="78.5455" transform="rotate(-15 234.628 185.154)" fill="#918FFF"/>
<rect x="143.585" y="209.549" width="47.1273" height="15.7091" transform="rotate(-15 143.585 209.549)" fill="#918FFF"/>
<rect x="295.324" y="168.891" width="47.1273" height="15.7091" transform="rotate(-15 295.324 168.891)" fill="#918FFF"/>
<rect x="311.587" y="229.586" width="47.1273" height="15.7091" transform="rotate(-15 311.587 229.586)" fill="#918FFF"/>
<rect x="303.455" y="199.238" width="47.1273" height="15.7091" transform="rotate(-15 303.455 199.238)" fill="#918FFF"/>
<rect x="227.586" y="219.567" width="15.7091" height="15.7091" transform="rotate(-15 227.586 219.567)" fill="#918FFF"/>
<rect x="299.615" y="184.907" width="15.7091" height="15.7091" transform="rotate(-15 299.615 184.907)" fill="#918FFF"/>
<rect x="337.869" y="206.28" width="15.7091" height="15.7091" transform="rotate(-15 337.869 206.28)" fill="#918FFF"/>
</g>
<defs>
<clipPath id="clip0_1_5">
<rect width="1296" height="1728" fill="white"/>
</clipPath>
</defs>
</svg>
